{
.appVersion = "3151";
.formatVersion = 3;
DisplayStrings = (

glyphs = (
{
glyphname = A;
layers = (
{
layerId = m01;
shapes = (
{
closed = 1;
nodes = (
(54,-5,o),
(64,9,o),
(93,66,cs),
(583,1025,l),
(1037,1025,l),
(1114,58,ls),
(1116,27,o),
(1124,-5,o),
(1181,-5,cs),
(1228,-5,o),
(1241,18,o),
(1237,61,cs),
(1076,1968,ls),
(1074,1996,o),
(1058,2013,o),
(1013,2013,cs),
(957,2013,o),
(956,1991,o),
(932,1944,cs),
(-42,74,ls),
(-70,20,o),
(-42,-5,o),
(0,-5,cs)
);
},
{
closed = 1;
nodes = (
(865,1576,l),
(995,1866,l),
(995,1556,l),
(1028,1140,l),
(642,1140,l)
);
}
);
vertWidth = 0;
width = 1361;
},
{
guides = (
{
angle = 180;
pos = (850,1213);
},
{
pos = (820,950);
}
);
layerId = "140DECC1-64C4-40C0-9C07-503DBC3F4160";
shapes = (
{
closed = 1;
nodes = (
(174,0,o),
(218,26,o),
(260,101,c),
(616,803,l),
(1040,803,l),
(1097,125,ls),
(1103,49,o),
(1152,0,o),
(1248,0,cs),
(1334,0,o),
(1396,47,o),
(1388,143,cs),
(1240,1862,ls),
(1232,1959,o),
(1162,2008,o),
(1066,2008,cs),
(964,2008,o),
(901,1962,o),
(871,1904,cs),
(-24,185,ls),
(-82,74,o),
(-3,0,o),
(91,0,cs)
);
},
{
closed = 1;
nodes = (
(912,1386,l),
(1001,1615,l),
(990,1384,l),
(1016,1082,l),
(758,1082,l)
);
}
);
vertWidth = 0;
width = 1494;
}
);
unicode = 65;
},
{
glyphname = B;
layers = (
{
layerId = m01;
shapes = (
{
closed = 1;
nodes = (
(1031,0,o),
(1279,156,o),
(1330,497,cs),
(1374,793,o),
(1204,990,o),
(832,1080,c),
(1313,1131,o),
(1417,1267,o),
(1446,1487,cs),
(1493,1847,o),
(1181,2008,o),
(509,2008,cs),
(461,2008,o),
(441,1993,o),
(431,1936,cs),
(104,80,ls),
(96,37,o),
(113,0,o),
(147,0,cs)
);
},
{
closed = 1;
nodes = (
(403,1038,l),
(1008,1021,o),
(1244,796,o),
(1204,511,cs),
(1159,193,o),
(809,117,o),
(240,115,c)
);
},
{
closed = 1;
nodes = (
(554,1896,l),
(1050,1891,o),
(1351,1785,o),
(1317,1488,cs),
(1296,1300,o),
(1139,1173,o),
(419,1131,c)
);
}
);
vertWidth = 0;
width = 1458;
},
{
layerId = "140DECC1-64C4-40C0-9C07-503DBC3F4160";
shapes = (
{
closed = 1;
nodes = (
(1155,0,o),
(1469,81,o),
(1530,504,cs),
(1573,807,o),
(1443,977,o),
(1206,1081,c),
(1511,1159,o),
(1659,1303,o),
(1677,1478,cs),
(1715,1843,o),
(1365,2008,o),
(571,2008,cs),
(501,2008,o),
(439,1985,o),
(421,1881,cs),
(119,164,ls),
(102,70,o),
(169,0,o),
(249,0,cs)
);
},
{
closed = 1;
nodes = (
(573,951,l),
(1092,933,o),
(1262,822,o),
(1223,558,cs),
(1193,356,o),
(1004,291,o),
(455,278,c)
);
},
{
closed = 1;
nodes = (
(710,1727,l),
(1263,1711,o),
(1372,1615,o),
(1366,1495,cs),
(1360,1385,o),
(1329,1224,o),
(618,1205,c)
);
}
);
vertWidth = 0;
width = 1647;
}
);
metricLeft = H;
unicode = 66;
},
{
glyphname = C;
layers = (
{
layerId = m01;
shapes = (
{
closed = 1;
nodes = (
(1001,-5,o),
(1207,132,o),
(1387,330,cs),
(1460,411,o),
(1467,444,o),
(1464,463,cs),
(1458,493,o),
(1441,506,o),
(1406,506,cs),
(1364,506,o),
(1351,461,o),
(1284,401,cs),
(1111,236,o),
(950,110,o),
(737,110,cs),
(502,110,o),
(261,402,o),
(354,940,cs),
(417,1305,o),
(570,1901,o),
(1135,1901,cs),
(1285,1901,o),
(1443,1831,o),
(1586,1681,cs),
(1623,1644,o),
(1655,1652,o),
(1675,1677,c),
(1697,1698,o),
(1692,1737,o),
(1665,1762,c),
(1513,1923,o),
(1330,2013,o),
(1138,2013,cs),
(480,2013,o),
(306,1385,o),
(227,938,cs),
(117,325,o),
(438,-5,o),
(735,-5,cs)
);
}
);
vertWidth = 0;
width = 1553;
},
{
layerId = "140DECC1-64C4-40C0-9C07-503DBC3F4160";
shapes = (
{
closed = 1;
nodes = (
(1088,0,o),
(1353,120,o),
(1533,317,cs),
(1611,401,o),
(1639,442,o),
(1639,499,cs),
(1639,557,o),
(1595,606,o),
(1514,606,cs),
(1465,606,o),
(1403,588,o),
(1330,507,cs),
(1202,364,o),
(1018,278,o),
(841,278,cs),
(612,278,o),
(492,559,o),
(557,939,cs),
(646,1464,o),
(872,1730,o),
(1231,1730,cs),
(1371,1730,o),
(1470,1698,o),
(1569,1607,cs),
(1644,1540,o),
(1738,1511,o),
(1806,1579,cs),
(1876,1649,o),
(1837,1740,o),
(1759,1810,cs),
(1595,1959,o),
(1426,2008,o),
(1234,2008,cs),
(703,2008,o),
(373,1649,o),
(248,942,cs),
(154,401,o),
(406,0,o),
(838,0,cs)
);
}
);
vertWidth = 0;
width = 1659;
}
);
unicode = 67;
},
{
glyphname = D;
layers = (
{
layerId = m01;
shapes = (
{
closed = 1;
nodes = (
(360,0,ls),
(960,0,o),
(1465,373,o),
(1557,1067,cs),
(1639,1685,o),
(1199,2008,o),
(623,2008,cs),
(509,2008,ls),
(452,2008,o),
(440,1984,o),
(431,1935,cs),
(101,67,ls),
(94,25,o),
(110,0,o),
(158,0,cs)
);
},
{
closed = 1;
nodes = (
(554,1896,l),
(634,1896,ls),
(1124,1896,o),
(1488,1601,o),
(1429,1085,cs),
(1350,438,o),
(876,115,o),
(360,115,cs),
(240,115,l)
);
}
);
vertWidth = 0;
width = 1556;
},
{
layerId = "140DECC1-64C4-40C0-9C07-503DBC3F4160";
shapes = (
{
closed = 1;
nodes = (
(496,0,ls),
(1118,0,o),
(1640,463,o),
(1724,1085,cs),
(1802,1657,o),
(1425,2008,o),
(735,2008,cs),
(582,2008,ls),
(486,2008,o),
(439,1966,o),
(423,1881,cs),
(116,151,ls),
(101,68,o),
(161,0,o),
(257,0,cs)
);
},
{
closed = 1;
nodes = (
(709,1732,l),
(751,1732,ls),
(1219,1732,o),
(1477,1483,o),
(1425,1082,cs),
(1365,622,o),
(967,276,o),
(496,276,cs),
(454,276,l)
);
}
);
vertWidth = 0;
width = 1749;
}
);
metricLeft = H;
unicode = 68;
},
{
glyphname = E;
layers = (
{
layerId = m01;
shapes = (
{
closed = 1;
nodes = (
(1213,0,ls),
(1266,0,o),
(1281,33,o),
(1281,68,cs),
(1281,99,o),
(1269,115,o),
(1213,115,cs),
(241,115,l),
(401,1025,l),
(1246,1025,ls),
(1301,1025,o),
(1313,1048,o),
(1313,1081,cs),
(1313,1117,o),
(1301,1140,o),
(1246,1140,cs),
(421,1140,l),
(555,1896,l),
(1522,1896,ls),
(1578,1896,o),
(1589,1912,o),
(1589,1947,cs),
(1589,1980,o),
(1576,2008,o),
(1522,2008,cs),
(511,2008,ls),
(452,2008,o),
(439,1984,o),
(431,1936,cs),
(101,67,ls),
(93,24,o),
(109,0,o),
(158,0,cs)
);
}
);
vertWidth = 0;
width = 1426;
},
{
layerId = "140DECC1-64C4-40C0-9C07-503DBC3F4160";
shapes = (
{
closed = 1;
nodes = (
(1306,0,ls),
(1397,0,o),
(1459,49,o),
(1459,130,cs),
(1459,203,o),
(1410,276,o),
(1311,276,cs),
(458,276,l),
(577,950,l),
(1374,950,ls),
(1472,950,o),
(1540,1010,o),
(1540,1083,cs),
(1540,1163,o),
(1480,1213,o),
(1389,1213,cs),
(623,1213,l),
(715,1732,l),
(1609,1732,ls),
(1703,1732,o),
(1768,1792,o),
(1768,1873,cs),
(1768,1951,o),
(1711,2008,o),
(1617,2008,cs),
(587,2008,ls),
(491,2008,o),
(438,1974,o),
(423,1888,cs),
(117,153,ls),
(102,68,o),
(141,0,o),
(232,0,cs)
);
}
);
vertWidth = 0;
width = 1545;
}
);
metricLeft = H;
unicode = 69;
},
{
glyphname = F;
layers = (
{
layerId = m01;
shapes = (
{
closed = 1;
nodes = (
(216,0,o),
(225,36,o),
(231,67,cs),
(401,1025,l),
(1212,1025,ls),
(1267,1025,o),
(1280,1048,o),
(1280,1081,cs),
(1280,1117,o),
(1267,1140,o),
(1212,1140,cs),
(421,1140,l),
(554,1896,l),
(1490,1896,ls),
(1546,1896,o),
(1557,1912,o),
(1557,1947,cs),
(1557,1980,o),
(1544,2008,o),
(1490,2008,cs),
(512,2008,ls),
(452,2008,o),
(439,1984,o),
(431,1936,cs),
(101,67,ls),
(94,25,o),
(111,0,o),
(159,0,cs)
);
}
);
vertWidth = 0;
width = 1261;
},
{
layerId = "140DECC1-64C4-40C0-9C07-503DBC3F4160";
shapes = (
{
closed = 1;
nodes = (
(351,0,o),
(417,65,o),
(434,159,cs),
(574,950,l),
(1359,950,ls),
(1457,950,o),
(1509,1010,o),
(1509,1085,cs),
(1509,1163,o),
(1455,1213,o),
(1361,1213,cs),
(620,1213,l),
(713,1732,l),
(1574,1732,ls),
(1676,1732,o),
(1735,1802,o),
(1735,1868,cs),
(1735,1953,o),
(1678,2008,o),
(1584,2008,cs),
(581,2008,ls),
(484,2008,o),
(437,1972,o),
(422,1886,cs),
(119,166,ls),
(104,83,o),
(132,0,o),
(254,0,cs)
);
}
);
vertWidth = 0;
width = 1443;
}
);
metricLeft = E;
unicode = 70;
},
{
glyphname = G;
layers = (
{
layerId = m01;
shapes = (
{
closed = 1;
nodes = (
(913,-20,o),
(1100,108,o),
(1328,450,c),
(1262,67,ls),
(1256,33,o),
(1262,3,o),
(1311,0,cs),
(1373,-2,o),
(1385,38,o),
(1391,72,cs),
(1516,781,ls),
(1525,830,o),
(1518,848,o),
(1470,848,cs),
(1414,848,o),
(1388,811,o),
(1354,730,cs),
(1186,344,o),
(952,95,o),
(719,95,cs),
(423,95,o),
(276,466,o),
(357,940,cs),
(466,1575,o),
(726,1896,o),
(1135,1896,cs),
(1285,1896,o),
(1433,1829,o),
(1578,1678,cs),
(1613,1643,o),
(1642,1652,o),
(1665,1675,cs),
(1687,1697,o),
(1683,1734,o),
(1657,1760,cs),
(1505,1921,o),
(1330,2008,o),
(1138,2008,cs),
(659,2008,o),
(357,1655,o),
(227,938,cs),
(133,391,o),
(340,-20,o),
(716,-20,cs)
);
}
);
vertWidth = 0;
width = 1659;
},
{
layerId = "140DECC1-64C4-40C0-9C07-503DBC3F4160";
shapes = (
{
closed = 1;
nodes = (
(992,-20,o),
(1142,113,o),
(1284,315,c),
(1254,151,ls),
(1236,55,o),
(1301,0,o),
(1408,0,cs),
(1514,0,o),
(1543,55,o),
(1556,130,cs),
(1678,825,ls),
(1695,921,o),
(1644,981,o),
(1548,981,cs),
(1486,981,o),
(1421,965,o),
(1343,822,cs),
(1187,549,o),
(986,258,o),
(776,258,cs),
(594,258,o),
(493,531,o),
(563,939,cs),
(652,1464,o),
(872,1730,o),
(1231,1730,cs),
(1371,1730,o),
(1470,1698,o),
(1569,1607,cs),
(1644,1540,o),
(1738,1511,o),
(1806,1579,cs),
(1876,1649,o),
(1837,1740,o),
(1759,1810,cs),
(1595,1959,o),
(1426,2008,o),
(1234,2008,cs),
(703,2008,o),
(373,1649,o),
(248,942,cs),
(146,359,o),
(373,-20,o),
(773,-20,cs)
);
}
);
vertWidth = 0;
width = 1824;
}
);
metricLeft = C;
metricRight = H;
unicode = 71;
},
{
glyphname = H;
layers = (
{
layerId = m01;
shapes = (
{
closed = 1;
nodes = (
(216,0,o),
(226,36,o),
(231,67,cs),
(400,1025,l),
(1330,1025,l),
(1162,67,ls),
(1156,32,o),
(1162,0,o),
(1220,0,cs),
(1271,0,o),
(1285,29,o),
(1290,57,cs),
(1621,1936,ls),
(1629,1984,o),
(1617,2008,o),
(1565,2008,cs),
(1516,2008,o),
(1499,1982,o),
(1494,1951,cs),
(1351,1140,l),
(420,1140,l),
(559,1928,ls),
(568,1981,o),
(555,2008,o),
(512,2008,cs),
(459,2008,o),
(439,1983,o),
(431,1935,cs),
(102,67,ls),
(94,24,o),
(110,0,o),
(158,0,cs)
);
}
);
vertWidth = 0;
width = 1560;
},
{
layerId = "140DECC1-64C4-40C0-9C07-503DBC3F4160";
shapes = (
{
closed = 1;
nodes = (
(369,0,o),
(417,62,o),
(428,125,cs),
(573,950,l),
(1292,950,l),
(1151,151,ls),
(1135,62,o),
(1191,0,o),
(1292,0,cs),
(1381,0,o),
(1448,52,o),
(1459,114,cs),
(1765,1852,ls),
(1782,1951,o),
(1720,2008,o),
(1624,2008,cs),
(1536,2008,o),
(1470,1961,o),
(1458,1894,cs),
(1338,1213,l),
(619,1213,l),
(730,1844,ls),
(749,1953,o),
(689,2008,o),
(600,2008,cs),
(517,2008,o),
(437,1969,o),
(421,1881,cs),
(116,151,ls),
(101,65,o),
(164,0,o),
(262,0,cs)
);
}
);
vertWidth = 0;
width = 1711;
}
);
unicode = 72;
},
{
glyphname = I;
layers = (
{
layerId = m01;
shapes = (
{
closed = 1;
nodes = (
(451,0,ls),
(506,0,o),
(518,23,o),
(518,56,cs),
(518,92,o),
(506,115,o),
(451,115,cs),
(378,115,l),
(692,1896,l),
(778,1896,ls),
(830,1896,o),
(842,1921,o),
(842,1954,cs),
(842,1987,o),
(831,2008,o),
(778,2008,cs),
(497,2008,ls),
(442,2008,o),
(430,1987,o),
(430,1954,cs),
(430,1921,o),
(443,1896,o),
(497,1896,cs),
(562,1896,l),
(248,115,l),
(157,115,ls),
(105,115,o),
(93,92,o),
(93,56,cs),
(93,23,o),
(105,0,o),
(157,0,cs)
);
}
);
vertWidth = 0;
width = 782;
},
{
layerId = "140DECC1-64C4-40C0-9C07-503DBC3F4160";
shapes = (
{
closed = 1;
nodes = (
(641,0,ls),
(745,0,o),
(779,62,o),
(789,135,cs),
(802,211,o),
(763,278,o),
(685,278,cs),
(567,278,l),
(819,1730,l),
(951,1730,ls),
(1049,1730,o),
(1094,1802,o),
(1107,1875,cs),
(1117,1951,o),
(1065,2008,o),
(995,2008,cs),
(443,2008,ls),
(350,2008,o),
(306,1951,o),
(293,1875,cs),
(280,1802,o),
(329,1730,o),
(402,1730,cs),
(506,1730,l),
(255,278,l),
(136,278,ls),
(38,278,o),
(-9,211,o),
(-22,135,cs),
(-35,62,o),
(14,0,o),
(92,0,cs)
);
}
);
vertWidth = 0;
width = 822;
}
);
unicode = 73;
},
{
glyphname = J;
layers = (
{
layerId = m01;
shapes = (
{
closed = 1;
nodes = (
(-25,-5,o),
(257,8,o),
(318,16,cs),
(733,78,o),
(814,451,o),
(898,917,cs),
(1074,1896,l),
(1498,1896,ls),
(1552,1896,o),
(1564,1918,o),
(1564,1952,cs),
(1564,1985,o),
(1552,2008,o),
(1498,2008,cs),
(540,2008,ls),
(485,2008,o),
(473,1985,o),
(473,1952,cs),
(473,1918,o),
(485,1896,o),
(540,1896,cs),
(946,1896,l),
(772,927,ls),
(708,570,o),
(654,189,o),
(336,134,cs),
(249,119,o),
(-46,110,o),
(-121,110,cs),
(-156,110,o),
(-185,91,o),
(-185,56,cs),
(-185,17,o),
(-156,-5,o),
(-121,-5,cs)
);
}
);
vertWidth = 0;
width = 1140;
},
{
layerId = "140DECC1-64C4-40C0-9C07-503DBC3F4160";
shapes = (
{
closed = 1;
nodes = (
(173,0,o),
(441,5,o),
(496,13,cs),
(1057,81,o),
(1052,489,o),
(1130,908,cs),
(1276,1730,l),
(1591,1730,ls),
(1690,1730,o),
(1744,1792,o),
(1744,1873,cs),
(1744,1959,o),
(1684,2008,o),
(1593,2008,cs),
(704,2008,ls),
(608,2008,o),
(548,1956,o),
(548,1873,cs),
(548,1787,o),
(608,1730,o),
(699,1730,cs),
(962,1730,l),
(823,947,ls),
(769,619,o),
(738,325,o),
(490,294,cs),
(415,284,o),
(147,278,o),
(82,278,cs),
(7,278,o),
(-69,218,o),
(-69,138,cs),
(-69,55,o),
(7,0,o),
(82,0,cs)
);
}
);
vertWidth = 0;
width = 1512;
}
);
unicode = 74;
},
{
glyphname = K;
layers = (
{
layerId = m01;
shapes = (
{
closed = 1;
nodes = (
(1257,0,o),
(1286,24,o),
(1286,56,cs),
(1286,77,o),
(1278,93,o),
(1253,127,cs),
(531,1082,l),
(1564,1886,ls),
(1603,1916,o),
(1617,1932,o),
(1617,1965,cs),
(1617,1987,o),
(1602,2008,o),
(1570,2008,cs),
(1547,2008,o),
(1520,2000,o),
(1483,1971,cs),
(420,1135,l),
(559,1928,ls),
(568,1982,o),
(561,2008,o),
(512,2008,cs),
(457,2008,o),
(439,1983,o),
(431,1936,cs),
(104,83,ls),
(96,40,o),
(114,0,o),
(160,0,cs),
(215,0,o),
(227,44,o),
(234,85,cs),
(405,1050,l),
(1145,55,ls),
(1168,24,o),
(1189,0,o),
(1225,0,cs)
);
}
);
vertWidth = 0;
width = 1422;
},
{
layerId = "140DECC1-64C4-40C0-9C07-503DBC3F4160";
shapes = (
{
closed = 1;
nodes = (
(1381,0,o),
(1443,68,o),
(1443,146,cs),
(1443,187,o),
(1429,232,o),
(1407,263,cs),
(847,1060,l),
(1688,1748,ls),
(1734,1785,o),
(1766,1831,o),
(1766,1888,cs),
(1766,1951,o),
(1719,2008,o),
(1628,2008,cs),
(1578,2008,o),
(1518,1991,o),
(1469,1951,cs),
(629,1265,l),
(730,1844,ls),
(751,1966,o),
(668,2008,o),
(593,2008,cs),
(514,2008,o),
(436,1969,o),
(421,1881,cs),
(119,166,ls),
(103,75,o),
(169,0,o),
(267,0,cs),
(361,0,o),
(416,60,o),
(430,138,cs),
(565,916,l),
(1147,78,ls),
(1181,29,o),
(1240,0,o),
(1297,0,cs)
);
}
);
vertWidth = 0;
width = 1541;
}
);
metricLeft = H;
unicode = 75;
},
{
glyphname = L;
layers = (
{
layerId = m01;
shapes = (
{
closed = 1;
nodes = (
(1219,0,ls),
(1268,0,o),
(1286,34,o),
(1286,68,cs),
(1286,98,o),
(1271,115,o),
(1219,115,cs),
(240,115,l),
(559,1927,ls),
(569,1982,o),
(563,2008,o),
(511,2008,cs),
(457,2008,o),
(439,1983,o),
(431,1935,cs),
(101,67,ls),
(94,25,o),
(110,0,o),
(158,0,cs)
);
}
);
vertWidth = 0;
width = 1431;
},
{
layerId = "140DECC1-64C4-40C0-9C07-503DBC3F4160";
shapes = (
{
closed = 1;
nodes = (
(1318,0,ls),
(1411,0,o),
(1474,68,o),
(1474,143,cs),
(1474,216,o),
(1411,278,o),
(1318,278,cs),
(455,278,l),
(730,1844,ls),
(753,1973,o),
(681,2008,o),
(603,2008,cs),
(511,2008,o),
(437,1969,o),
(421,1881,cs),
(116,151,ls),
(101,65,o),
(158,0,o),
(249,0,cs)
);
}
);
vertWidth = 0;
width = 1556;
}
);
metricLeft = E;
metricRight = E;
unicode = 76;
},
{
glyphname = M;
layers = (
{
layerId = m01;
shapes = (
{
closed = 1;
nodes = (
(32,-5,o),
(67,13,o),
(91,66,c),
(973,1776,l),
(1101,58,ls),
(1104,28,o),
(1114,-5,o),
(1174,-5,cs),
(1225,-5,o),
(1245,40,o),
(1258,64,cs),
(2146,1781,l),
(2278,57,ls),
(2279,28,o),
(2291,-5,o),
(2347,-5,cs),
(2389,-5,o),
(2408,19,o),
(2403,61,cs),
(2249,1939,l),
(2247,1989,o),
(2240,2013,o),
(2185,2013,cs),
(2127,2013,o),
(2111,1974,o),
(2092,1938,cs),
(1207,216,l),
(1074,1968,l),
(1071,1989,o),
(1059,2013,o),
(1010,2013,cs),
(965,2013,o),
(949,1986,o),
(927,1945,cs),
(-38,92,ls),
(-71,27,o),
(-42,-5,o),
(2,-5,cs)
);
}
);
vertWidth = 0;
width = 2527;
},
{
layerId = "140DECC1-64C4-40C0-9C07-503DBC3F4160";
shapes = (
{
closed = 1;
nodes = (
(155,0,o),
(240,29,o),
(277,101,cs),
(926,1372,l),
(1021,125,l),
(1029,55,o),
(1081,0,o),
(1174,0,cs),
(1296,0,o),
(1328,60,o),
(1346,96,cs),
(2005,1375,l),
(2095,125,ls),
(2098,60,o),
(2165,0,o),
(2261,0,cs),
(2350,0,o),
(2410,62,o),
(2402,143,cs),
(2261,1873,ls),
(2254,1961,o),
(2235,2008,o),
(2126,2008,cs),
(2035,2008,o),
(1980,1972,o),
(1947,1904,cs),
(1277,609,l),
(1185,1873,ls),
(1179,1961,o),
(1143,2008,o),
(1016,2008,cs),
(932,2008,o),
(904,1972,o),
(870,1907,cs),
(-22,198,l),
(-80,94,o),
(6,0,o),
(97,0,cs)
);
}
);
vertWidth = 0;
width = 2508;
}
);
metricLeft = A;
metricRight = A;
unicode = 77;
},
{
glyphname = N;
layers = (
{
layerId = m01;
shapes = (
{
closed = 1;
nodes = (
(218,0,o),
(227,38,o),
(233,75,cs),
(529,1758,l),
(1159,46,ls),
(1169,20,o),
(1190,0,o),
(1229,0,cs),
(1282,0,o),
(1286,35,o),
(1292,67,cs),
(1621,1928,ls),
(1631,1983,o),
(1624,2008,o),
(1575,2008,cs),
(1523,2008,o),
(1505,1982,o),
(1497,1936,cs),
(1200,270,l),
(594,1954,ls),
(585,1980,o),
(558,2008,o),
(509,2008,cs),
(453,2008,o),
(440,1984,o),
(431,1935,cs),
(101,67,ls),
(94,25,o),
(113,0,o),
(160,0,cs)
);
}
);
vertWidth = 0;
width = 1561;
},
{
layerId = "140DECC1-64C4-40C0-9C07-503DBC3F4160";
shapes = (
{
closed = 1;
nodes = (
(352,0,o),
(412,60,o),
(425,130,cs),
(629,1362,l),
(1164,86,l),
(1190,31,o),
(1234,0,o),
(1312,0,cs),
(1416,0,o),
(1445,60,o),
(1458,125,cs),
(1760,1844,ls),
(1778,1943,o),
(1728,2018,o),
(1627,2018,cs),
(1541,2018,o),
(1471,1969,o),
(1455,1881,cs),
(1250,638,l),
(714,1917,ls),
(685,1982,o),
(631,2008,o),
(568,2008,cs),
(490,2008,o),
(438,1966,o),
(423,1881,cs),
(116,151,ls),
(100,65,o),
(160,0,o),
(248,0,cs)
);
}
);
vertWidth = 0;
width = 1708;
}
);
metricLeft = H;
metricRight = H;
unicode = 78;
},
{
glyphname = O;
layers = (
{
layerId = m01;
shapes = (
{
closed = 1;
nodes = (
(1297,-5,o),
(1537,790,o),
(1610,1203,cs),
(1702,1715,o),
(1541,2013,o),
(1102,2013,cs),
(552,2013,o),
(316,1449,o),
(241,1015,cs),
(154,505,o),
(236,-5,o),
(768,-5,cs)
);
},
{
closed = 1;
nodes = (
(416,1263,o),
(615,1901,o),
(1086,1901,cs),
(1520,1901,o),
(1548,1541,o),
(1483,1179,cs),
(1421,830,o),
(1144,110,o),
(765,110,cs),
(331,110,o),
(298,615,o),
(365,988,cs)
);
}
);
vertWidth = 0;
width = 1628;
},
{
layerId = "140DECC1-64C4-40C0-9C07-503DBC3F4160";
shapes = (
{
closed = 1;
nodes = (
(1309,0,o),
(1657,458,o),
(1788,1196,cs),
(1876,1704,o),
(1712,2008,o),
(1197,2008,cs),
(693,2008,o),
(378,1675,o),
(261,1017,cs),
(151,390,o),
(383,0,o),
(869,0,cs)
);
},
{
closed = 1;
nodes = (
(656,1480,o),
(862,1730,o),
(1181,1730,cs),
(1514,1730,o),
(1540,1529,o),
(1478,1178,cs),
(1382,622,o),
(1148,278,o),
(867,278,cs),
(604,278,o),
(490,546,o),
(565,986,cs)
);
}
);
vertWidth = 0;
width = 1780;
}
);
metricLeft = C;
unicode = 79;
},
{
glyphname = P;
layers = (
{
layerId = m01;
shapes = (
{
closed = 1;
nodes = (
(33,0,o),
(41,36,o),
(46,67,cs),
(215,1025,l),
(839,1029,o),
(1303,1091,o),
(1358,1505,cs),
(1405,1854,o),
(1000,2008,o),
(327,2008,cs),
(268,2008,o),
(255,1984,o),
(246,1935,cs),
(-84,67,ls),
(-91,25,o),
(-71,0,o),
(-24,0,cs)
);
},
{
closed = 1;
nodes = (
(369,1896,l),
(1007,1889,o),
(1261,1746,o),
(1232,1517,cs),
(1193,1207,o),
(752,1145,o),
(235,1140,c)
);
}
);
vertWidth = 0;
width = 1193;
},
{
layerId = "140DECC1-64C4-40C0-9C07-503DBC3F4160";
shapes = (
{
closed = 1;
nodes = (
(365,0,o),
(415,52,o),
(427,120,cs),
(573,950,l),
(1122,962,o),
(1635,1021,o),
(1697,1482,cs),
(1748,1861,o),
(1343,2008,o),
(586,2008,cs),
(493,2008,o),
(437,1969,o),
(421,1881,cs),
(116,148,ls),
(101,65,o),
(160,0,o),
(261,0,cs)
);
},
{
closed = 1;
nodes = (
(712,1737,l),
(1335,1737,o),
(1411,1647,o),
(1397,1498,cs),
(1378,1298,o),
(1030,1226,o),
(619,1212,c)
);
}
);
vertWidth = 0;
width = 1582;
}
);
metricLeft = H;
unicode = 80;
},
{
glyphname = Q;
layers = (
{
layerId = m01;
shapes = (
{
closed = 1;
nodes = (
(858,-20,o),
(939,1,o),
(1014,61,c),
(1194,-200,ls),
(1225,-245,o),
(1263,-265,o),
(1296,-246,cs),
(1333,-226,o),
(1332,-180,o),
(1309,-146,cs),
(1118,133,l),
(1409,380,o),
(1559,898,o),
(1613,1205,cs),
(1705,1718,o),
(1541,2008,o),
(1102,2008,cs),
(552,2008,o),
(316,1451,o),
(241,1017,cs),
(154,508,o),
(236,-20,o),
(768,-20,cs)
);
},
{
closed = 1;
nodes = (
(416,1266,o),
(615,1896,o),
(1086,1896,cs),
(1520,1896,o),
(1543,1543,o),
(1478,1181,cs),
(1433,924,o),
(1274,466,o),
(1042,243,c),
(970,348,ls),
(942,389,o),
(897,406,o),
(859,373,cs),
(829,350,o),
(833,325,o),
(865,278,cs),
(942,166,l),
(887,113,o),
(827,95,o),
(765,95,cs),
(331,95,o),
(298,617,o),
(365,991,cs)
);
}
);
vertWidth = 0;
width = 1631;
},
{
layerId = "140DECC1-64C4-40C0-9C07-503DBC3F4160";
shapes = (
{
closed = 1;
nodes = (
(938,0,o),
(1005,11,o),
(1070,33,c),
(1197,-153,ls),
(1252,-237,o),
(1348,-263,o),
(1416,-218,cs),
(1486,-174,o),
(1501,-86,o),
(1452,-13,cs),
(1319,184,l),
(1540,383,o),
(1706,735,o),
(1788,1196,cs),
(1876,1704,o),
(1712,2008,o),
(1197,2008,cs),
(693,2008,o),
(378,1675,o),
(261,1017,cs),
(151,390,o),
(383,0,o),
(869,0,cs)
);
},
{
closed = 1;
nodes = (
(656,1480,o),
(862,1730,o),
(1181,1730,cs),
(1514,1730,o),
(1540,1529,o),
(1478,1178,cs),
(1418,832,o),
(1305,569,o),
(1161,419,c),
(1122,476,ls),
(1067,559,o),
(971,585,o),
(903,536,cs),
(836,489,o),
(823,395,o),
(872,323,cs),
(902,280,l),
(890,279,o),
(879,278,o),
(867,278,cs),
(604,278,o),
(490,546,o),
(565,986,cs)
);
}
);
vertWidth = 0;
width = 1780;
}
);
unicode = 81;
},
{
glyphname = R;
layers = (
{
layerId = m01;
shapes = (
{
closed = 1;
nodes = (
(216,0,o),
(226,38,o),
(234,85,cs),
(397,1008,l),
(1159,46,ls),
(1190,7,o),
(1215,-5,o),
(1235,-5,cs),
(1291,-5,o),
(1311,51,o),
(1252,126,cs),
(539,1027,l),
(1081,1043,o),
(1494,1130,o),
(1544,1511,cs),
(1589,1854,o),
(1196,2008,o),
(512,2008,cs),
(453,2008,o),
(440,1984,o),
(431,1935,cs),
(105,85,ls),
(96,36,o),
(112,0,o),
(158,0,cs)
);
},
{
closed = 1;
nodes = (
(554,1896,l),
(1150,1889,o),
(1448,1751,o),
(1418,1522,cs),
(1377,1211,o),
(934,1145,o),
(421,1140,c)
);
}
);
vertWidth = 0;
width = 1406;
},
{
layerId = "140DECC1-64C4-40C0-9C07-503DBC3F4160";
shapes = (
{
closed = 1;
nodes = (
(335,0,o),
(419,70,o),
(435,164,cs),
(558,869,l),
(1155,70,ls),
(1202,7,o),
(1274,0,o),
(1313,0,cs),
(1412,0,o),
(1504,121,o),
(1389,276,cs),
(888,951,l),
(1303,995,o),
(1634,1129,o),
(1697,1479,cs),
(1766,1861,o),
(1342,2008,o),
(590,2008,cs),
(494,2008,o),
(437,1969,o),
(421,1881,cs),
(119,166,ls),
(103,75,o),
(140,0,o),
(239,0,cs)
);
},
{
closed = 1;
nodes = (
(710,1730,l),
(1262,1732,o),
(1424,1642,o),
(1397,1486,cs),
(1365,1301,o),
(1041,1226,o),
(619,1213,c)
);
}
);
vertWidth = 0;
width = 1542;
}
);
metricLeft = H;
unicode = 82;
},
{
glyphname = S;
layers = (
{
layerId = m01;
shapes = (
{
closed = 1;
nodes = (
(961,-5,o),
(1212,222,o),
(1212,598,cs),
(1212,792,o),
(1071,971,o),
(849,1127,cs),
(615,1288,o),
(466,1391,o),
(466,1546,cs),
(466,1765,o),
(674,1901,o),
(999,1901,cs),
(1225,1901,o),
(1281,1829,o),
(1300,1707,cs),
(1304,1676,o),
(1354,1669,o),
(1388,1677,cs),
(1424,1687,o),
(1424,1719,o),
(1419,1749,cs),
(1383,1944,o),
(1265,2013,o),
(1002,2013,cs),
(589,2013,o),
(343,1832,o),
(343,1537,cs),
(343,1325,o),
(517,1210,o),
(739,1048,cs),
(992,868,o),
(1083,733,o),
(1083,577,cs),
(1083,289,o),
(877,110,o),
(548,110,cs),
(357,110,o),
(258,176,o),
(230,300,cs),
(222,335,o),
(191,346,o),
(159,337,cs),
(119,325,o),
(107,287,o),
(112,261,cs),
(142,86,o),
(302,-5,o),
(548,-5,cs)
);
}
);
vertWidth = 0;
width = 1371;
},
{
layerId = "140DECC1-64C4-40C0-9C07-503DBC3F4160";
shapes = (
{
closed = 1;
nodes = (
(1004,0,o),
(1326,281,o),
(1326,655,cs),
(1326,832,o),
(1259,965,o),
(941,1189,cs),
(785,1301,o),
(588,1410,o),
(588,1506,cs),
(588,1654,o),
(736,1730,o),
(1030,1730,cs),
(1165,1730,o),
(1235,1696,o),
(1248,1626,cs),
(1264,1532,o),
(1358,1511,o),
(1425,1529,c),
(1501,1555,o),
(1529,1620,o),
(1516,1693,cs),
(1475,1920,o),
(1324,2008,o),
(1077,2008,cs),
(554,2008,o),
(289,1839,o),
(289,1506,cs),
(289,1212,o),
(570,1087,o),
(736,968,cs),
(965,801,o),
(1033,739,o),
(1033,622,cs),
(1033,429,o),
(858,278,o),
(627,278,cs),
(471,278,o),
(369,323,o),
(356,382,cs),
(338,473,o),
(247,489,o),
(182,476,cs),
(101,460,o),
(70,390,o),
(86,315,cs),
(120,120,o),
(307,0,o),
(575,0,cs)
);
}
);
vertWidth = 0;
width = 1434;
}
);
unicode = 83;
},
{
glyphname = T;
layers = (
{
layerId = m01;
shapes = (
{
closed = 1;
nodes = (
(661,0,o),
(669,36,o),
(674,67,cs),
(994,1896,l),
(1537,1896,ls),
(1589,1896,o),
(1601,1918,o),
(1601,1952,cs),
(1601,1985,o),
(1589,2008,o),
(1537,2008,cs),
(317,2008,ls),
(262,2008,o),
(250,1985,o),
(250,1952,cs),
(250,1918,o),
(262,1896,o),
(317,1896,cs),
(866,1896,l),
(548,67,ls),
(541,24,o),
(555,0,o),
(605,0,cs)
);
}
);
vertWidth = 0;
width = 1234;
},
{
layerId = "140DECC1-64C4-40C0-9C07-503DBC3F4160";
shapes = (
{
closed = 1;
nodes = (
(735,-3,o),
(787,55,o),
(800,120,cs),
(1083,1740,l),
(1510,1740,ls),
(1609,1740,o),
(1664,1802,o),
(1664,1875,cs),
(1664,1956,o),
(1604,2018,o),
(1510,2018,cs),
(392,2018,ls),
(298,2018,o),
(238,1956,o),
(238,1875,cs),
(238,1802,o),
(293,1740,o),
(392,1740,cs),
(771,1740,l),
(491,151,ls),
(475,65,o),
(537,-3,o),
(634,-3,cs)
);
}
);
vertWidth = 0;
width = 1281;
}
);
unicode = 84;
},
{
glyphname = U;
layers = (
{
guides = (
{
angle = 80;
pos = (1321,998);
}
);
layerId = m01;
shapes = (
{
closed = 1;
nodes = (
(668,-20,o),
(1043,334,o),
(1334,1073,c),
(1157,70,ls),
(1148,21,o),
(1179,0,o),
(1219,0,cs),
(1252,0,o),
(1282,18,o),
(1289,60,cs),
(1621,1944,ls),
(1628,1986,o),
(1614,2008,o),
(1561,2008,cs),
(1512,2008,o),
(1494,1981,o),
(1488,1946,cs),
(1427,1600,l),
(1162,741,o),
(723,96,o),
(407,96,cs),
(241,96,o),
(281,347,o),
(317,551,cs),
(561,1938,ls),
(568,1978,o),
(549,2005,o),
(509,2008,cs),
(466,2008,o),
(437,1974,o),
(429,1927,cs),
(187,552,ls),
(116,146,o),
(204,-20,o),
(381,-20,cs)
);
}
);
vertWidth = 0;
width = 1559;
},
{
layerId = "140DECC1-64C4-40C0-9C07-503DBC3F4160";
shapes = (
{
closed = 1;
nodes = (
(738,-20,o),
(1010,194,o),
(1222,557,c),
(1151,151,ls),
(1133,49,o),
(1210,0,o),
(1296,0,cs),
(1366,0,o),
(1446,36,o),
(1460,114,cs),
(1767,1860,ls),
(1782,1946,o),
(1725,2008,o),
(1621,2008,cs),
(1533,2008,o),
(1470,1961,o),
(1457,1891,cs),
(1419,1678,l),
(1182,804,o),
(851,258,o),
(560,258,cs),
(464,258,o),
(475,388,o),
(507,572,cs),
(732,1855,ls),
(747,1943,o),
(685,2008,o),
(594,2008,cs),
(495,2011,o),
(430,1927,o),
(420,1873,cs),
(196,603,ls),
(121,177,o),
(248,-20,o),
(474,-20,cs)
);
}
);
vertWidth = 0;
width = 1712;
}
);
metricLeft = H;
metricRight = H;
unicode = 85;
},
{
glyphname = V;
layers = (
{
layerId = m01;
shapes = (
{
closed = 1;
nodes = (
(474,-5,o),
(484,21,o),
(506,66,cs),
(1429,1934,ls),
(1456,1988,o),
(1431,2013,o),
(1390,2013,cs),
(1335,2013,o),
(1318,1996,o),
(1292,1945,cs),
(460,226,l),
(380,1953,ls),
(380,1982,o),
(368,2013,o),
(307,2013,cs),
(261,2013,o),
(249,1990,o),
(251,1946,cs),
(354,69,l),
(359,32,o),
(378,-5,o),
(424,-5,cs)
);
}
);
vertWidth = 0;
width = 1099;
},
{
layerId = "140DECC1-64C4-40C0-9C07-503DBC3F4160";
shapes = (
{
closed = 1;
nodes = (
(580,-5,o),
(619,47,o),
(651,104,c),
(1501,1826,ls),
(1556,1933,o),
(1486,2008,o),
(1387,2008,cs),
(1298,2008,o),
(1238,1972,o),
(1210,1909,c),
(598,645,l),
(539,1886,ls),
(536,1956,o),
(479,2008,o),
(380,2008,cs),
(292,2008,o),
(232,1959,o),
(240,1868,c),
(338,135,ls),
(341,60,o),
(404,-5,o),
(492,-5,cs)
);
}
);
vertWidth = 0;
width = 1283;
}
);
unicode = 86;
},
{
glyphname = W;
layers = (
{
layerId = m01;
shapes = (
{
closed = 1;
nodes = (
(463,-5,o),
(485,35,o),
(500,69,c),
(1337,1798,l),
(1426,42,ls),
(1429,6,o),
(1443,-5,o),
(1493,-5,cs),
(1527,-5,o),
(1550,16,o),
(1572,66,c),
(2494,1934,ls),
(2520,1988,o),
(2495,2013,o),
(2443,2013,cs),
(2404,2013,o),
(2381,1992,o),
(2356,1945,c),
(1531,240,l),
(1443,1952,l),
(1439,1982,o),
(1426,2013,o),
(1363,2013,cs),
(1321,2013,o),
(1292,1968,o),
(1282,1947,cs),
(454,230,l),
(369,1953,l),
(369,1982,o),
(358,2013,o),
(297,2013,cs),
(250,2013,o),
(238,1990,o),
(241,1946,cs),
(344,69,ls),
(348,23,o),
(371,-5,o),
(419,-5,cs)
);
}
);
vertWidth = 0;
width = 2163;
},
{
layerId = "140DECC1-64C4-40C0-9C07-503DBC3F4160";
shapes = (
{
closed = 1;
nodes = (
(557,0,o),
(612,39,o),
(646,104,cs),
(1273,1367,l),
(1358,138,ls),
(1364,52,o),
(1424,0,o),
(1509,0,cs),
(1577,0,o),
(1639,39,o),
(1671,109,cs),
(2513,1826,ls),
(2565,1933,o),
(2485,2008,o),
(2394,2008,cs),
(2297,2008,o),
(2245,1956,o),
(2217,1901,cs),
(1617,658,l),
(1530,1886,ls),
(1525,1961,o),
(1473,2008,o),
(1364,2008,cs),
(1262,2008,o),
(1234,1951,o),
(1215,1912,cs),
(592,640,l),
(539,1886,ls),
(537,1956,o),
(482,2008,o),
(383,2008,cs),
(295,2008,o),
(232,1959,o),
(240,1868,c),
(331,135,l),
(339,52,o),
(399,0,o),
(498,0,cs)
);
}
);
vertWidth = 0;
width = 2293;
}
);
unicode = 87;
},
{
glyphname = X;
layers = (
{
layerId = m01;
shapes = (
{
closed = 1;
nodes = (
(-33,-15,o),
(14,-18,o),
(43,24,cs),
(660,873,l),
(970,46,ls),
(988,-6,o),
(1038,-14,o),
(1073,4,cs),
(1099,17,o),
(1108,43,o),
(1092,86,cs),
(750,995,l),
(1412,1908,ls),
(1443,1949,o),
(1437,1983,o),
(1415,2000,cs),
(1388,2023,o),
(1340,2021,o),
(1310,1979,cs),
(696,1137,l),
(384,1965,ls),
(365,2016,o),
(325,2025,o),
(292,2011,cs),
(259,2000,o),
(248,1971,o),
(269,1917,cs),
(608,1015,l),
(-67,90,l),
(-92,58,o),
(-86,28,o),
(-64,10,cs)
);
}
);
vertWidth = 0;
width = 1191;
},
{
layerId = "140DECC1-64C4-40C0-9C07-503DBC3F4160";
shapes = (
{
closed = 1;
nodes = (
(34,-10,o),
(156,-26,o),
(210,49,cs),
(672,695,l),
(900,86,ls),
(934,-3,o),
(1051,-18,o),
(1121,18,cs),
(1186,52,o),
(1217,112,o),
(1186,187,c),
(883,989,l),
(1454,1787,ls),
(1508,1860,o),
(1495,1925,o),
(1438,1974,cs),
(1383,2024,o),
(1272,2026,o),
(1217,1951,cs),
(760,1316,l),
(530,1925,ls),
(497,2011,o),
(398,2024,o),
(327,2000,cs),
(247,1972,o),
(218,1907,o),
(255,1810,cs),
(549,1023,l),
(-34,213,ls),
(-81,148,o),
(-81,88,o),
(-26,39,cs)
);
}
);
vertWidth = 0;
width = 1272;
}
);
unicode = 88;
},
{
glyphname = Y;
layers = (
{
layerId = m01;
shapes = (
{
closed = 1;
nodes = (
(569,-5,o),
(577,31,o),
(585,63,c),
(750,1002,l),
(1415,1907,ls),
(1430,1930,o),
(1439,1947,o),
(1439,1962,cs),
(1439,1989,o),
(1409,2013,o),
(1379,2013,cs),
(1350,2013,o),
(1331,2007,o),
(1310,1979,cs),
(700,1137,l),
(384,1959,ls),
(372,1993,o),
(350,2013,o),
(308,2013,cs),
(277,2013,o),
(251,1990,o),
(251,1965,cs),
(251,1949,o),
(253,1944,o),
(264,1917,cs),
(618,1000,l),
(453,62,ls),
(446,20,o),
(463,-5,o),
(509,-5,cs)
);
}
);
vertWidth = 0;
width = 1099;
},
{
layerId = "140DECC1-64C4-40C0-9C07-503DBC3F4160";
shapes = (
{
closed = 1;
nodes = (
(682,-5,o),
(724,60,o),
(737,125,cs),
(885,975,l),
(1489,1776,l),
(1512,1810,o),
(1525,1842,o),
(1525,1878,cs),
(1525,1959,o),
(1429,2008,o),
(1374,2008,cs),
(1325,2008,o),
(1275,1985,o),
(1247,1943,c),
(771,1287,l),
(534,1912,l),
(505,1977,o),
(469,2008,o),
(404,2008,cs),
(313,2008,o),
(240,1959,o),
(240,1894,cs),
(240,1862,o),
(245,1844,o),
(258,1810,cs),
(573,996,l),
(427,151,ls),
(412,65,o),
(477,-5,o),
(576,-5,cs)
);
}
);
vertWidth = 0;
width = 1182;
}
);
unicode = 89;
},
{
glyphname = Z;
layers = (
{
layerId = m01;
shapes = (
{
closed = 1;
nodes = (
(1034,-5,ls),
(1089,-5,o),
(1102,23,o),
(1102,59,cs),
(1102,92,o),
(1090,110,o),
(1034,110,cs),
(92,110,l),
(1385,1904,ls),
(1400,1926,o),
(1410,1949,o),
(1410,1965,cs),
(1410,2000,o),
(1395,2013,o),
(1344,2013,cs),
(320,2013,ls),
(267,2013,o),
(254,1985,o),
(254,1952,cs),
(254,1917,o),
(265,1901,o),
(320,1901,cs),
(1237,1901,l),
(-65,93,ls),
(-78,75,o),
(-81,61,o),
(-81,46,cs),
(-81,19,o),
(-64,-5,o),
(-13,-5,cs)
);
}
);
vertWidth = 0;
width = 1191;
},
{
layerId = "140DECC1-64C4-40C0-9C07-503DBC3F4160";
shapes = (
{
closed = 1;
nodes = (
(1067,0,ls),
(1166,0,o),
(1221,60,o),
(1221,133,cs),
(1221,213,o),
(1158,278,o),
(1067,278,cs),
(371,278,l),
(1465,1782,ls),
(1494,1821,o),
(1504,1855,o),
(1504,1886,cs),
(1504,1961,o),
(1439,2018,o),
(1338,2018,cs),
(399,2018,ls),
(305,2018,o),
(245,1956,o),
(245,1875,cs),
(245,1802,o),
(300,1740,o),
(399,1740,cs),
(1069,1740,l),
(-43,216,ls),
(-61,192,o),
(-69,164,o),
(-69,135,cs),
(-69,78,o),
(-30,0,o),
(108,0,cs)
);
}
);
vertWidth = 0;
width = 1295;
}
);
unicode = 90;
},
{
color = 10;
glyphname = A.ss02;
layers = (
{
layerId = m01;
shapes = (
{
closed = 1;
nodes = (
(94,0,o),
(111,25,o),
(141,83,cs),
(612,1008,l),
(1012,1008,l),
(1085,84,ls),
(1088,52,o),
(1100,0,o),
(1174,0,cs),
(1236,0,o),
(1257,39,o),
(1253,91,cs),
(1097,1943,ls),
(1094,1978,o),
(1069,2008,o),
(1012,2008,cs),
(936,2008,o),
(932,1968,o),
(911,1928,cs),
(-34,113,ls),
(-71,43,o),
(-24,0,o),
(29,0,cs)
);
},
{
closed = 1;
nodes = (
(-14,20,o),
(-46,49,o),
(-17,104,cs),
(929,1919,ls),
(952,1963,o),
(953,1988,o),
(1012,1988,cs),
(1058,1988,o),
(1075,1968,o),
(1077,1940,cs),
(1234,89,ls),
(1238,45,o),
(1223,20,o),
(1174,20,cs),
(1116,20,o),
(1107,55,o),
(1105,85,cs),
(1030,1028,l),
(600,1028,l),
(123,92,ls),
(94,36,o),
(83,20,o),
(29,20,cs)
);
},
{
closed = 1;
nodes = (
(999,1159,l),
(959,1689,l),
(690,1159,l)
);
},
{
closed = 1;
nodes = (
(949,1713,ls),
(968,1750,o),
(973,1750,o),
(976,1708,cs),
(1021,1140,l),
(657,1140,l)
);
}
);
vertWidth = 0;
width = 1372;
},
{
layerId = "140DECC1-64C4-40C0-9C07-503DBC3F4160";
shapes = (
{
closed = 1;
nodes = (
(202,-20,o),
(257,8,o),
(299,92,cs),
(659,803,l),
(1042,802,l),
(1098,124,ls),
(1105,37,o),
(1162,-20,o),
(1269,-20,cs),
(1365,-20,o),
(1438,35,o),
(1429,145,cs),
(1281,1864,ls),
(1272,1972,o),
(1192,2028,o),
(1087,2028,cs),
(977,2028,o),
(907,1976,o),
(874,1913,cs),
(-21,194,ls),
(-86,70,o),
(3,-20,o),
(112,-20,cs)
);
},
{
closed = 1;
nodes = (
(26,20,o),
(-36,78,o),
(15,176,cs),
(910,1895,ls),
(938,1949,o),
(992,1988,o),
(1087,1988,cs),
(1177,1988,o),
(1233,1948,o),
(1241,1860,cs),
(1389,141,ls),
(1396,56,o),
(1348,20,o),
(1269,20,cs),
(1181,20,o),
(1144,58,o),
(1138,126,cs),
(1078,842,l),
(635,843,l),
(263,110,ls),
(227,39,o),
(190,20,o),
(112,20,cs)
);
},
{
closed = 1;
nodes = (
(1016,1122,l),
(988,1451,l),
(821,1122,l)
);
},
{
closed = 1;
nodes = (
(971,1505,ls),
(1005,1571,o),
(1016,1576,o),
(1022,1509,cs),
(1058,1082,l),
(756,1082,l)
);
}
);
vertWidth = 0;
width = 1536;
}
);
metricLeft = A;
metricRight = A;
},
{
color = 10;
glyphname = B.ss02;
layers = (
{
layerId = m01;
shapes = (
{
closed = 1;
nodes = (
(1045,0,o),
(1295,167,o),
(1348,509,cs),
(1391,787,o),
(1254,976,o),
(963,1077,c),
(1342,1138,o),
(1437,1279,o),
(1461,1469,cs),
(1508,1839,o),
(1189,2008,o),
(528,2008,cs),
(472,2008,o),
(440,1984,o),
(428,1918,cs),
(108,107,ls),
(99,55,o),
(125,0,o),
(174,0,cs)
);
},
{
closed = 1;
nodes = (
(139,20,o),
(119,60,o),
(127,103,cs),
(447,1914,ls),
(457,1972,o),
(480,1988,o),
(528,1988,cs),
(1182,1988,o),
(1485,1827,o),
(1441,1472,cs),
(1416,1270,o),
(1316,1136,o),
(870,1084,c),
(1214,994,o),
(1373,802,o),
(1329,511,cs),
(1279,180,o),
(1037,20,o),
(174,20,cs)
);
},
{
closed = 1;
nodes = (
(827,166,o),
(1137,246,o),
(1177,529,cs),
(1215,796,o),
(1002,999,o),
(443,1020,c),
(292,162,l)
);
},
{
closed = 1;
nodes = (
(426,1040,l),
(1008,1022,o),
(1237,807,o),
(1197,527,cs),
(1154,225,o),
(821,144,o),
(268,142,c)
);
},
{
closed = 1;
nodes = (
(1168,1169,o),
(1266,1287,o),
(1287,1476,cs),
(1316,1741,o),
(1051,1842,o),
(588,1849,c),
(467,1160,l)
);
},
{
closed = 1;
nodes = (
(572,1869,l),
(1049,1865,o),
(1340,1759,o),
(1307,1474,cs),
(1284,1274,o),
(1177,1147,o),
(444,1140,c)
);
}
);
vertWidth = 0;
width = 1474;
},
{
layerId = "140DECC1-64C4-40C0-9C07-503DBC3F4160";
shapes = (
{
closed = 1;
nodes = (
(1180,-20,o),
(1508,62,o),
(1570,507,cs),
(1609,784,o),
(1493,954,o),
(1280,1063,c),
(1557,1146,o),
(1696,1292,o),
(1716,1455,cs),
(1764,1856,o),
(1394,2028,o),
(592,2028,cs),
(516,2028,o),
(443,2002,o),
(422,1884,cs),
(119,167,ls),
(100,61,o),
(177,-20,o),
(269,-20,cs)
);
},
{
closed = 1;
nodes = (
(198,20,o),
(144,76,o),
(159,161,cs),
(462,1878,ls),
(478,1970,o),
(526,1988,o),
(592,1988,cs),
(1382,1988,o),
(1719,1832,o),
(1676,1461,cs),
(1655,1285,o),
(1499,1147,o),
(1157,1073,c),
(1427,973,o),
(1572,807,o),
(1530,513,cs),
(1471,97,o),
(1172,20,o),
(269,20,cs)
);
},
{
closed = 1;
nodes = (
(1026,313,o),
(1195,373,o),
(1223,567,cs),
(1257,797,o),
(1107,898,o),
(608,917,c),
(499,299,l)
);
},
{
closed = 1;
nodes = (
(575,959,l),
(1118,942,o),
(1301,825,o),
(1263,561,cs),
(1231,336,o),
(1025,269,o),
(451,257,c)
);
},
{
closed = 1;
nodes = (
(1330,1234,o),
(1357,1377,o),
(1366,1476,cs),
(1377,1605,o),
(1281,1689,o),
(747,1706,c),
(659,1213,l)
);
},
{
closed = 1;
nodes = (
(713,1747,l),
(1295,1733,o),
(1420,1629,o),
(1406,1472,cs),
(1396,1365,o),
(1367,1188,o),
(612,1171,c)
);
}
);
vertWidth = 0;
width = 1687;
}
);
metricLeft = B;
metricRight = B;
},
{
color = 10;
glyphname = C.ss02;
layers = (
{
layerId = m01;
shapes = (
{
closed = 1;
nodes = (
(1012,0,o),
(1221,139,o),
(1397,333,cs),
(1474,418,o),
(1482,459,o),
(1479,483,cs),
(1471,524,o),
(1440,546,o),
(1397,546,cs),
(1341,546,o),
(1322,490,o),
(1262,437,cs),
(1095,278,o),
(946,162,o),
(748,162,cs),
(534,162,o),
(313,430,o),
(400,938,cs),
(462,1290,o),
(606,1849,o),
(1134,1849,cs),
(1274,1849,o),
(1419,1786,o),
(1555,1644,cs),
(1601,1598,o),
(1649,1611,o),
(1677,1641,cs),
(1706,1673,o),
(1698,1727,o),
(1667,1757,cs),
(1509,1909,o),
(1330,2008,o),
(1137,2008,cs),
(480,2008,o),
(306,1380,o),
(228,944,cs),
(119,335,o),
(446,0,o),
(746,0,cs)
);
},
{
closed = 1;
nodes = (
(456,20,o),
(141,343,o),
(248,941,cs),
(325,1375,o),
(495,1988,o),
(1137,1988,cs),
(1325,1988,o),
(1504,1900,o),
(1653,1743,cs),
(1679,1718,o),
(1685,1677,o),
(1662,1654,cs),
(1641,1629,o),
(1606,1620,o),
(1569,1657,cs),
(1431,1803,o),
(1278,1869,o),
(1134,1869,cs),
(591,1869,o),
(442,1294,o),
(381,941,cs),
(292,422,o),
(523,142,o),
(748,142,cs),
(953,142,o),
(1108,263,o),
(1275,423,cs),
(1340,479,o),
(1354,526,o),
(1397,526,cs),
(1433,526,o),
(1453,511,o),
(1459,480,cs),
(1462,461,o),
(1455,427,o),
(1382,346,cs),
(1208,154,o),
(1005,20,o),
(746,20,cs)
);
}
);
vertWidth = 0;
width = 1564;
},
{
layerId = "140DECC1-64C4-40C0-9C07-503DBC3F4160";
shapes = (
{
closed = 1;
nodes = (
(1114,-20,o),
(1384,103,o),
(1568,303,cs),
(1647,389,o),
(1679,435,o),
(1679,499,cs),
(1679,567,o),
(1627,626,o),
(1534,626,cs),
(1481,626,o),
(1413,607,o),
(1335,520,cs),
(1210,380,o),
(1034,298,o),
(861,298,cs),
(645,298,o),
(533,561,o),
(597,936,cs),
(685,1455,o),
(901,1710,o),
(1251,1710,cs),
(1388,1710,o),
(1480,1680,o),
(1576,1592,cs),
(1656,1521,o),
(1762,1487,o),
(1840,1565,cs),
(1921,1646,o),
(1875,1750,o),
(1792,1825,cs),
(1624,1977,o),
(1450,2028,o),
(1254,2028,cs),
(712,2028,o),
(375,1661,o),
(248,945,cs),
(152,394,o),
(412,-20,o),
(858,-20,cs)
);
},
{
closed = 1;
nodes = (
(437,20,o),
(195,405,o),
(288,939,cs),
(412,1640,o),
(732,1988,o),
(1254,1988,cs),
(1443,1988,o),
(1605,1941,o),
(1766,1795,cs),
(1840,1728,o),
(1872,1654,o),
(1812,1593,cs),
(1752,1534,o),
(1674,1558,o),
(1602,1622,cs),
(1500,1716,o),
(1395,1750,o),
(1251,1750,cs),
(880,1750,o),
(648,1475,o),
(557,942,cs),
(491,552,o),
(616,258,o),
(861,258,cs),
(1044,258,o),
(1233,347,o),
(1365,494,cs),
(1434,570,o),
(1488,586,o),
(1534,586,cs),
(1606,586,o),
(1639,549,o),
(1639,499,cs),
(1639,448,o),
(1615,414,o),
(1538,331,cs),
(1361,137,o),
(1104,20,o),
(858,20,cs)
);
}
);
vertWidth = 0;
width = 1699;
}
);
metricLeft = C;
metricRight = C;
},
{
color = 10;
glyphname = D.ss02;
layers = (
{
layerId = m01;
shapes = (
{
closed = 1;
nodes = (
(385,0,ls),
(976,0,o),
(1475,377,o),
(1566,1062,cs),
(1647,1677,o),
(1208,2008,o),
(639,2008,cs),
(528,2008,ls),
(457,2008,o),
(437,1969,o),
(428,1918,cs),
(106,94,ls),
(97,41,o),
(123,0,o),
(185,0,cs)
);
},
{
closed = 1;
nodes = (
(135,20,o),
(117,47,o),
(125,90,cs),
(448,1914,ls),
(456,1961,o),
(470,1988,o),
(528,1988,cs),
(639,1988,ls),
(1200,1988,o),
(1625,1667,o),
(1546,1065,cs),
(1456,389,o),
(968,20,o),
(385,20,cs),
(185,20,ls)
);
},
{
closed = 1;
nodes = (
(385,162,ls),
(876,162,o),
(1320,471,o),
(1394,1085,cs),
(1450,1571,o),
(1115,1849,o),
(650,1849,cs),
(589,1849,l),
(291,162,l)
);
},
{
closed = 1;
nodes = (
(572,1869,l),
(650,1869,ls),
(1123,1869,o),
(1471,1581,o),
(1414,1083,cs),
(1338,459,o),
(883,142,o),
(385,142,cs),
(268,142,l)
);
}
);
vertWidth = 0;
width = 1566;
},
{
layerId = "140DECC1-64C4-40C0-9C07-503DBC3F4160";
shapes = (
{
closed = 1;
nodes = (
(517,-20,ls),
(1149,-20,o),
(1680,451,o),
(1765,1082,cs),
(1845,1668,o),
(1457,2028,o),
(756,2028,cs),
(601,2028,ls),
(495,2028,o),
(439,1979,o),
(422,1885,cs),
(117,155,ls),
(100,59,o),
(170,-20,o),
(278,-20,cs)
);
},
{
closed = 1;
nodes = (
(191,20,o),
(144,74,o),
(157,147,cs),
(462,1877,ls),
(476,1956,o),
(513,1988,o),
(601,1988,cs),
(756,1988,ls),
(1438,1988,o),
(1802,1649,o),
(1725,1088,cs),
(1642,473,o),
(1131,20,o),
(517,20,cs),
(278,20,ls)
);
},
{
closed = 1;
nodes = (
(517,296,ls),
(981,296,o),
(1367,632,o),
(1426,1085,cs),
(1477,1476,o),
(1232,1712,o),
(772,1712,cs),
(748,1712,l),
(499,296,l)
);
},
{
closed = 1;
nodes = (
(714,1752,l),
(772,1752,ls),
(1251,1752,o),
(1520,1493,o),
(1466,1079,cs),
(1405,610,o),
(998,256,o),
(517,256,cs),
(451,256,l)
);
}
);
vertWidth = 0;
width = 1791;
}
);
metricLeft = D;
metricRight = D;
},
{
color = 10;
glyphname = E.ss02;
layers = (
{
layerId = m01;
shapes = (
{
closed = 1;
nodes = (
(1213,0,ls),
(1282,0,o),
(1303,51,o),
(1303,90,cs),
(1303,130,o),
(1281,162,o),
(1213,162,cs),
(291,162,l),
(440,1005,l),
(1244,1005,ls),
(1314,1005,o),
(1334,1045,o),
(1333,1078,cs),
(1332,1120,o),
(1313,1160,o),
(1243,1160,cs),
(467,1160,l),
(589,1849,l),
(1512,1849,ls),
(1580,1849,o),
(1601,1881,o),
(1601,1924,cs),
(1601,1963,o),
(1581,2008,o),
(1512,2008,cs),
(531,2008,ls),
(457,2008,o),
(437,1968,o),
(428,1918,cs),
(106,94,ls),
(97,41,o),
(123,0,o),
(185,0,cs)
);
},
{
closed = 1;
nodes = (
(135,20,o),
(117,47,o),
(125,90,cs),
(448,1914,ls),
(456,1961,o),
(470,1988,o),
(531,1988,cs),
(1512,1988,ls),
(1567,1988,o),
(1582,1957,o),
(1582,1924,cs),
(1582,1888,o),
(1569,1869,o),
(1512,1869,cs),
(572,1869,l),
(443,1140,l),
(1243,1140,ls),
(1300,1140,o),
(1312,1114,o),
(1313,1078,cs),
(1314,1051,o),
(1301,1025,o),
(1244,1025,cs),
(423,1025,l),
(268,142,l),
(1213,142,ls),
(1270,142,o),
(1284,123,o),
(1284,90,cs),
(1284,56,o),
(1268,20,o),
(1213,20,cs),
(185,20,ls)
);
}
);
vertWidth = 0;
width = 1444;
},
{
layerId = "140DECC1-64C4-40C0-9C07-503DBC3F4160";
shapes = (
{
closed = 1;
nodes = (
(1326,-20,ls),
(1427,-20,o),
(1499,37,o),
(1499,130,cs),
(1499,212,o),
(1443,296,o),
(1331,296,cs),
(499,296,l),
(606,910,l),
(1390,910,ls),
(1498,910,o),
(1576,978,o),
(1576,1063,cs),
(1576,1155,o),
(1506,1213,o),
(1405,1213,cs),
(660,1213,l),
(748,1712,l),
(1630,1712,ls),
(1734,1712,o),
(1809,1781,o),
(1809,1873,cs),
(1809,1962,o),
(1743,2028,o),
(1638,2028,cs),
(608,2028,ls),
(504,2028,o),
(441,1988,o),
(424,1892,cs),
(117,156,ls),
(100,61,o),
(147,-20,o),
(252,-20,cs)
);
},
{
closed = 1;
nodes = (
(173,20,o),
(143,72,o),
(157,150,cs),
(464,1884,ls),
(478,1962,o),
(518,1988,o),
(608,1988,cs),
(1638,1988,ls),
(1724,1988,o),
(1769,1943,o),
(1769,1873,cs),
(1769,1801,o),
(1716,1752,o),
(1630,1752,cs),
(714,1752,l),
(612,1173,l),
(1405,1173,ls),
(1489,1173,o),
(1536,1134,o),
(1536,1063,cs),
(1536,999,o),
(1480,950,o),
(1390,950,cs),
(572,950,l),
(451,256,l),
(1331,256,ls),
(1419,256,o),
(1459,197,o),
(1459,130,cs),
(1459,59,o),
(1410,20,o),
(1326,20,cs),
(252,20,ls)
);
}
);
vertWidth = 0;
width = 1587;
}
);
metricLeft = E;
metricRight = E;
},
{
color = 10;
glyphname = F.ss02;
layers = (
{
layerId = m01;
shapes = (
{
closed = 1;
nodes = (
(260,0,o),
(271,54,o),
(277,86,cs),
(440,1005,l),
(1210,1005,ls),
(1280,1005,o),
(1300,1045,o),
(1300,1078,cs),
(1300,1120,o),
(1280,1160,o),
(1210,1160,cs),
(468,1160,l),
(589,1849,l),
(1481,1849,ls),
(1549,1849,o),
(1571,1881,o),
(1571,1924,cs),
(1571,1963,o),
(1550,2008,o),
(1481,2008,cs),
(531,2008,ls),
(457,2008,o),
(437,1968,o),
(428,1918,cs),
(106,94,ls),
(97,41,o),
(124,0,o),
(186,0,cs)
);
},
{
closed = 1;
nodes = (
(136,20,o),
(118,48,o),
(125,90,cs),
(448,1914,ls),
(456,1961,o),
(470,1988,o),
(531,1988,cs),
(1481,1988,ls),
(1537,1988,o),
(1551,1957,o),
(1551,1924,cs),
(1551,1888,o),
(1538,1869,o),
(1481,1869,cs),
(572,1869,l),
(444,1140,l),
(1210,1140,ls),
(1267,1140,o),
(1281,1114,o),
(1281,1078,cs),
(1281,1051,o),
(1267,1025,o),
(1210,1025,cs),
(423,1025,l),
(258,89,ls),
(253,59,o),
(244,20,o),
(186,20,cs)
);
}
);
vertWidth = 0;
width = 1279;
},
{
layerId = "140DECC1-64C4-40C0-9C07-503DBC3F4160";
shapes = (
{
closed = 1;
nodes = (
(382,-20,o),
(457,53,o),
(475,156,cs),
(607,910,l),
(1376,910,ls),
(1486,910,o),
(1546,980,o),
(1546,1065,cs),
(1546,1154,o),
(1482,1213,o),
(1378,1213,cs),
(660,1213,l),
(748,1712,l),
(1595,1712,ls),
(1709,1712,o),
(1776,1792,o),
(1776,1868,cs),
(1776,1964,o),
(1710,2028,o),
(1605,2028,cs),
(602,2028,ls),
(496,2028,o),
(440,1985,o),
(423,1889,cs),
(120,170,ls),
(104,79,o),
(136,-20,o),
(275,-20,cs)
);
},
{
closed = 1;
nodes = (
(167,20,o),
(146,85,o),
(160,162,cs),
(463,1883,ls),
(477,1961,o),
(512,1988,o),
(602,1988,cs),
(1605,1988,ls),
(1691,1988,o),
(1736,1945,o),
(1736,1868,cs),
(1736,1809,o),
(1688,1752,o),
(1595,1752,cs),
(714,1752,l),
(612,1173,l),
(1378,1173,ls),
(1464,1173,o),
(1506,1134,o),
(1506,1065,cs),
(1506,997,o),
(1465,950,o),
(1376,950,cs),
(573,950,l),
(435,162,ls),
(420,75,o),
(364,20,o),
(275,20,cs)
);
}
);
vertWidth = 0;
width = 1484;
}
);
metricLeft = F;
metricRight = F;
},
{
color = 10;
glyphname = G.ss02;
layers = (
{
layerId = m01;
shapes = (
{
closed = 1;
nodes = (
(908,-20,o),
(1077,95,o),
(1274,363,c),
(1230,94,ls),
(1224,55,o),
(1234,4,o),
(1301,0,cs),
(1381,-3,o),
(1398,56,o),
(1404,91,cs),
(1523,783,ls),
(1533,840,o),
(1517,877,o),
(1454,877,cs),
(1386,877,o),
(1352,829,o),
(1318,748,cs),
(1157,379,o),
(945,142,o),
(730,142,cs),
(462,142,o),
(324,487,o),
(400,938,cs),
(505,1545,o),
(751,1869,o),
(1134,1869,cs),
(1274,1869,o),
(1409,1809,o),
(1547,1666,cs),
(1590,1622,o),
(1638,1634,o),
(1667,1664,cs),
(1697,1695,o),
(1690,1749,o),
(1659,1780,cs),
(1508,1939,o),
(1330,2028,o),
(1137,2028,cs),
(660,2028,o),
(356,1648,o),
(228,944,cs),
(135,404,o),
(346,-20,o),
(727,-20,cs)
);
},
{
closed = 1;
nodes = (
(360,0,o),
(156,409,o),
(248,941,cs),
(374,1638,o),
(670,2008,o),
(1137,2008,cs),
(1325,2008,o),
(1496,1923,o),
(1645,1767,cs),
(1671,1740,o),
(1673,1701,o),
(1652,1677,cs),
(1630,1653,o),
(1596,1644,o),
(1561,1679,cs),
(1421,1826,o),
(1278,1889,o),
(1134,1889,cs),
(740,1889,o),
(486,1555,o),
(381,941,cs),
(303,483,o),
(447,122,o),
(730,122,cs),
(954,122,o),
(1174,367,o),
(1336,740,cs),
(1370,819,o),
(1397,857,o),
(1454,857,cs),
(1504,857,o),
(1512,836,o),
(1504,787,cs),
(1385,94,ls),
(1379,61,o),
(1366,17,o),
(1302,20,cs),
(1251,23,o),
(1245,56,o),
(1250,90,cs),
(1298,389,ls),
(1305,435,o),
(1298,432,o),
(1270,392,cs),
(1071,113,o),
(906,0,o),
(727,0,cs)
);
}
);
vertWidth = 0;
width = 1668;
},
{
layerId = "140DECC1-64C4-40C0-9C07-503DBC3F4160";
shapes = (
{
closed = 1;
nodes = (
(993,-20,o),
(1138,72,o),
(1269,235,c),
(1257,174,ls),
(1236,65,o),
(1313,-1,o),
(1431,-1,cs),
(1551,-1,o),
(1585,65,o),
(1599,146,cs),
(1718,822,ls),
(1737,930,o),
(1676,1001,o),
(1568,1001,cs),
(1503,1001,o),
(1429,985,o),
(1346,832,cs),
(1190,560,o),
(996,298,o),
(796,298,cs),
(627,298,o),
(528,533,o),
(597,936,cs),
(685,1455,o),
(901,1710,o),
(1251,1710,cs),
(1388,1710,o),
(1480,1680,o),
(1576,1592,cs),
(1656,1521,o),
(1762,1487,o),
(1840,1565,cs),
(1921,1646,o),
(1875,1750,o),
(1792,1825,cs),
(1624,1977,o),
(1450,2028,o),
(1254,2028,cs),
(712,2028,o),
(375,1661,o),
(248,945,cs),
(144,351,o),
(380,-20,o),
(793,-20,cs)
);
},
{
closed = 1;
nodes = (
(404,20,o),
(187,363,o),
(288,939,cs),
(412,1640,o),
(732,1988,o),
(1254,1988,cs),
(1443,1988,o),
(1605,1941,o),
(1766,1795,cs),
(1840,1728,o),
(1872,1654,o),
(1812,1593,cs),
(1752,1534,o),
(1674,1558,o),
(1602,1622,cs),
(1500,1716,o),
(1395,1750,o),
(1251,1750,cs),
(880,1750,o),
(648,1475,o),
(557,942,cs),
(485,523,o),
(598,258,o),
(796,258,cs),
(1017,258,o),
(1223,537,o),
(1380,812,cs),
(1454,948,o),
(1508,961,o),
(1568,961,cs),
(1655,961,o),
(1693,915,o),
(1678,828,cs),
(1559,152,ls),
(1547,81,o),
(1525,39,o),
(1431,39,cs),
(1331,39,o),
(1282,82,o),
(1297,166,cs),
(1321,297,ls),
(1332,355,o),
(1312,360,o),
(1275,309,cs),
(1139,121,o),
(999,20,o),
(793,20,cs)
);
}
);
vertWidth = 0;
width = 1864;
}
);
metricLeft = G;
metricRight = G;
},
{
color = 10;
glyphname = H.ss02;
layers = (
{
layerId = m01;
shapes = (
{
closed = 1;
nodes = (
(260,0,o),
(272,54,o),
(278,86,cs),
(440,1005,l),
(1294,1005,l),
(1136,94,ls),
(1129,55,o),
(1137,0,o),
(1215,0,cs),
(1282,0,o),
(1302,45,o),
(1307,76,cs),
(1630,1909,ls),
(1640,1966,o),
(1617,2008,o),
(1551,2008,cs),
(1488,2008,o),
(1459,1968,o),
(1453,1933,cs),
(1320,1160,l),
(467,1160,l),
(598,1901,ls),
(609,1963,o),
(589,2008,o),
(530,2008,cs),
(465,2008,o),
(437,1969,o),
(428,1918,cs),
(106,94,ls),
(97,41,o),
(124,0,o),
(185,0,cs)
);
},
{
closed = 1;
nodes = (
(135,20,o),
(117,47,o),
(125,90,cs),
(447,1914,ls),
(455,1960,o),
(476,1988,o),
(530,1988,cs),
(576,1988,o),
(588,1958,o),
(578,1904,cs),
(443,1140,l),
(1337,1140,l),
(1473,1929,ls),
(1478,1959,o),
(1500,1988,o),
(1551,1988,cs),
(1604,1988,o),
(1620,1961,o),
(1611,1912,cs),
(1288,79,ls),
(1283,52,o),
(1269,20,o),
(1215,20,cs),
(1155,20,o),
(1150,56,o),
(1156,90,cs),
(1317,1025,l),
(423,1025,l),
(258,89,ls),
(253,59,o),
(245,20,o),
(185,20,cs)
);
}
);
vertWidth = 0;
width = 1574;
},
{
layerId = "140DECC1-64C4-40C0-9C07-503DBC3F4160";
shapes = (
{
closed = 1;
nodes = (
(402,-20,o),
(458,52,o),
(467,122,c),
(594,851,l),
(1275,851,l),
(1153,154,ls),
(1135,53,o),
(1200,-20,o),
(1313,-20,cs),
(1411,-20,o),
(1485,39,o),
(1500,110,c),
(1802,1848,ls),
(1822,1961,o),
(1748,2028,o),
(1641,2028,cs),
(1544,2028,o),
(1470,1975,o),
(1457,1897,cs),
(1330,1170,l),
(649,1170,l),
(766,1841,ls),
(787,1963,o),
(721,2028,o),
(621,2028,cs),
(531,2028,o),
(440,1985,o),
(422,1885,cs),
(118,155,ls),
(100,56,o),
(174,-20,o),
(283,-20,cs)
);
},
{
closed = 1;
nodes = (
(193,20,o),
(144,72,o),
(158,147,cs),
(462,1877,ls),
(476,1955,o),
(543,1988,o),
(621,1988,cs),
(702,1988,o),
(744,1946,o),
(726,1847,cs),
(601,1130,l),
(1364,1130,l),
(1497,1891,ls),
(1506,1950,o),
(1559,1988,o),
(1641,1988,cs),
(1729,1988,o),
(1778,1944,o),
(1762,1856,cs),
(1460,118,ls),
(1449,63,o),
(1395,20,o),
(1313,20,cs),
(1221,20,o),
(1178,68,o),
(1193,148,cs),
(1323,891,l),
(560,891,l),
(427,128,l),
(420,70,o),
(380,20,o),
(283,20,cs)
);
}
);
vertWidth = 0;
width = 1753;
}
);
metricLeft = H;
metricRight = H;
},
{
color = 10;
glyphname = I.ss02;
layers = (
{
layerId = m01;
shapes = (
{
closed = 1;
nodes = (
(469,0,ls),
(539,0,o),
(559,40,o),
(559,79,cs),
(559,122,o),
(539,162,o),
(469,162,cs),
(428,162,l),
(725,1849,l),
(789,1849,ls),
(855,1849,o),
(876,1892,o),
(876,1931,cs),
(876,1971,o),
(855,2008,o),
(789,2008,cs),
(516,2008,ls),
(447,2008,o),
(427,1971,o),
(427,1931,cs),
(427,1892,o),
(447,1849,o),
(516,1849,cs),
(546,1849,l),
(252,162,l),
(184,162,ls),
(118,162,o),
(97,121,o),
(97,79,cs),
(97,40,o),
(118,0,o),
(184,0,cs)
);
},
{
closed = 1;
nodes = (
(131,20,o),
(117,46,o),
(117,79,cs),
(117,115,o),
(131,142,o),
(184,142,cs),
(269,142,l),
(570,1869,l),
(516,1869,ls),
(460,1869,o),
(446,1897,o),
(446,1931,cs),
(446,1965,o),
(460,1988,o),
(516,1988,cs),
(789,1988,ls),
(843,1988,o),
(856,1965,o),
(856,1931,cs),
(856,1897,o),
(842,1869,o),
(789,1869,cs),
(708,1869,l),
(405,142,l),
(469,142,ls),
(526,142,o),
(539,115,o),
(539,79,cs),
(539,46,o),
(526,20,o),
(469,20,cs),
(184,20,ls)
);
}
);
vertWidth = 0;
width = 819;
},
{
layerId = "140DECC1-64C4-40C0-9C07-503DBC3F4160";
shapes = (
{
closed = 1;
nodes = (
(662,-20,ls),
(780,-20,o),
(819,54,o),
(830,132,cs),
(844,218,o),
(798,298,o),
(706,298,cs),
(612,298,l),
(857,1710,l),
(972,1710,ls),
(1083,1710,o),
(1134,1793,o),
(1148,1872,cs),
(1159,1961,o),
(1098,2028,o),
(1016,2028,cs),
(464,2028,ls),
(359,2028,o),
(308,1961,o),
(294,1878,cs),
(279,1795,o),
(336,1710,o),
(423,1710,cs),
(503,1710,l),
(259,298,l),
(157,298,ls),
(47,298,o),
(-7,221,o),
(-21,138,cs),
(-36,54,o),
(22,-20,o),
(113,-20,cs)
);
},
{
closed = 1;
nodes = (
(45,20,o),
(7,67,o),
(19,132,cs),
(31,203,o),
(69,258,o),
(157,258,cs),
(293,258,l),
(551,1750,l),
(423,1750,ls),
(361,1750,o),
(322,1807,o),
(334,1872,cs),
(346,1943,o),
(381,1988,o),
(464,1988,cs),
(1016,1988,ls),
(1077,1988,o),
(1117,1944,o),
(1108,1878,cs),
(1096,1809,o),
(1059,1750,o),
(972,1750,cs),
(823,1750,l),
(564,258,l),
(706,258,ls),
(773,258,o),
(802,207,o),
(790,138,cs),
(781,68,o),
(754,20,o),
(662,20,cs),
(113,20,ls)
);
}
);
vertWidth = 0;
width = 863;
}
);
metricLeft = I;
metricRight = I;
},
{
color = 10;
glyphname = J.ss02;
layers = (
{
layerId = m01;
shapes = (
{
closed = 1;
nodes = (
(1,0,o),
(277,13,o),
(337,21,cs),
(758,83,o),
(842,461,o),
(922,915,cs),
(1088,1849,l),
(1479,1849,ls),
(1548,1849,o),
(1568,1888,o),
(1568,1929,cs),
(1568,1968,o),
(1548,2008,o),
(1479,2008,cs),
(549,2008,ls),
(480,2008,o),
(459,1968,o),
(459,1929,cs),
(459,1888,o),
(480,1849,o),
(549,1849,cs),
(914,1849,l),
(751,933,ls),
(691,586,o),
(638,234,o),
(347,184,cs),
(264,169,o),
(-20,162,o),
(-92,162,cs),
(-135,162,o),
(-179,132,o),
(-179,84,cs),
(-179,33,o),
(-135,0,o),
(-92,0,cs)
);
},
{
closed = 1;
nodes = (
(-127,20,o),
(-159,44,o),
(-159,84,cs),
(-159,121,o),
(-128,142,o),
(-92,142,cs),
(-20,142,o),
(266,150,o),
(350,165,cs),
(655,217,o),
(711,582,o),
(770,930,cs),
(937,1869,l),
(549,1869,ls),
(493,1869,o),
(479,1895,o),
(479,1929,cs),
(479,1962,o),
(493,1988,o),
(549,1988,cs),
(1479,1988,ls),
(1534,1988,o),
(1548,1962,o),
(1548,1929,cs),
(1548,1895,o),
(1535,1869,o),
(1479,1869,cs),
(1072,1869,l),
(902,919,ls),
(823,465,o),
(741,101,o),
(334,41,cs),
(275,33,o),
(1,20,o),
(-92,20,cs)
);
}
);
vertWidth = 0;
width = 1148;
},
{
layerId = "140DECC1-64C4-40C0-9C07-503DBC3F4160";
shapes = (
{
closed = 1;
nodes = (
(193,-20,o),
(463,-15,o),
(519,-7,cs),
(1097,63,o),
(1092,487,o),
(1170,904,cs),
(1313,1710,l),
(1611,1710,ls),
(1722,1710,o),
(1784,1782,o),
(1784,1873,cs),
(1784,1971,o),
(1714,2028,o),
(1613,2028,cs),
(724,2028,ls),
(618,2028,o),
(548,1968,o),
(548,1873,cs),
(548,1776,o),
(617,1710,o),
(719,1710,cs),
(958,1710,l),
(823,950,ls),
(769,622,o),
(740,343,o),
(507,314,cs),
(433,304,o),
(167,298,o),
(102,298,cs),
(17,298,o),
(-69,230,o),
(-69,138,cs),
(-69,42,o),
(18,-20,o),
(102,-20,cs)
);
},
{
closed = 1;
nodes = (
(33,20,o),
(-29,65,o),
(-29,138,cs),
(-29,208,o),
(34,258,o),
(102,258,cs),
(167,258,o),
(437,264,o),
(513,274,cs),
(777,307,o),
(809,616,o),
(863,944,cs),
(1006,1750,l),
(719,1750,ls),
(636,1750,o),
(588,1796,o),
(588,1873,cs),
(588,1947,o),
(635,1988,o),
(724,1988,cs),
(1613,1988,ls),
(1697,1988,o),
(1744,1950,o),
(1744,1873,cs),
(1744,1799,o),
(1701,1750,o),
(1611,1750,cs),
(1279,1750,l),
(1130,912,ls),
(1052,490,o),
(1058,99,o),
(513,33,cs),
(459,25,o),
(193,20,o),
(102,20,cs)
);
}
);
vertWidth = 0;
width = 1552;
}
);
metricLeft = J;
metricRight = J;
},
{
color = 10;
glyphname = K.ss02;
layers = (
{
layerId = m01;
shapes = (
{
closed = 1;
nodes = (
(1264,0,o),
(1308,35,o),
(1308,79,cs),
(1308,106,o),
(1296,128,o),
(1270,163,cs),
(582,1075,l),
(1572,1846,ls),
(1610,1876,o),
(1632,1898,o),
(1632,1942,cs),
(1632,1971,o),
(1608,2008,o),
(1564,2008,cs),
(1535,2008,o),
(1500,1997,o),
(1462,1967,cs),
(475,1191,l),
(602,1901,ls),
(613,1961,o),
(598,2008,o),
(530,2008,cs),
(463,2008,o),
(440,1969,o),
(431,1917,cs),
(109,110,ls),
(100,58,o),
(126,0,o),
(188,0,cs),
(260,0,o),
(276,62,o),
(283,104,cs),
(439,988,l),
(1125,64,ls),
(1149,32,o),
(1177,0,o),
(1223,0,cs)
);
},
{
closed = 1;
nodes = (
(1186,20,o),
(1164,45,o),
(1141,75,cs),
(448,1009,ls),
(430,1034,o),
(427,1033,o),
(423,1008,cs),
(263,107,ls),
(256,66,o),
(245,20,o),
(188,20,cs),
(140,20,o),
(120,63,o),
(128,106,cs),
(450,1914,ls),
(458,1961,o),
(475,1988,o),
(530,1988,cs),
(582,1988,o),
(592,1959,o),
(582,1904,cs),
(453,1178,ls),
(448,1150,o),
(452,1148,o),
(480,1170,cs),
(1474,1952,ls),
(1510,1980,o),
(1539,1988,o),
(1562,1988,cs),
(1596,1988,o),
(1612,1964,o),
(1612,1942,cs),
(1612,1907,o),
(1597,1890,o),
(1560,1861,cs),
(554,1079,l),
(1254,151,ls),
(1279,118,o),
(1288,101,o),
(1288,79,cs),
(1288,46,o),
(1256,20,o),
(1223,20,cs)
);
}
);
vertWidth = 0;
width = 1440;
},
{
layerId = "140DECC1-64C4-40C0-9C07-503DBC3F4160";
shapes = (
{
closed = 1;
nodes = (
(1412,-20,o),
(1483,58,o),
(1483,146,cs),
(1483,191,o),
(1467,241,o),
(1444,274,cs),
(894,1056,l),
(1721,1733,ls),
(1769,1772,o),
(1806,1823,o),
(1806,1888,cs),
(1806,1961,o),
(1751,2028,o),
(1648,2028,cs),
(1594,2028,o),
(1528,2010,o),
(1476,1967,cs),
(675,1313,l),
(770,1841,ls),
(795,1979,o),
(695,2028,o),
(613,2028,cs),
(527,2028,o),
(441,1984,o),
(423,1885,cs),
(119,169,ls),
(101,66,o),
(177,-20,o),
(287,-20,cs),
(392,-20,o),
(451,48,o),
(466,134,cs),
(596,865,l),
(1150,67,ls),
(1188,13,o),
(1254,-20,o),
(1317,-20,cs)
);
},
{
closed = 1;
nodes = (
(1265,20,o),
(1214,45,o),
(1184,89,cs),
(617,905,ls),
(582,955,o),
(571,952,o),
(561,895,cs),
(426,142,ls),
(413,69,o),
(372,20,o),
(287,20,cs),
(198,20,o),
(144,81,o),
(159,163,cs),
(463,1877,ls),
(477,1956,o),
(539,1988,o),
(613,1988,cs),
(683,1988,o),
(749,1955,o),
(730,1847,cs),
(630,1286,ls),
(619,1227,o),
(625,1219,o),
(688,1271,cs),
(1502,1935,ls),
(1547,1972,o),
(1601,1988,o),
(1648,1988,cs),
(1730,1988,o),
(1766,1944,o),
(1766,1888,cs),
(1766,1838,o),
(1739,1799,o),
(1695,1763,cs),
(840,1064,l),
(1410,252,ls),
(1430,223,o),
(1443,183,o),
(1443,146,cs),
(1443,76,o),
(1392,20,o),
(1317,20,cs)
);
}
);
vertWidth = 0;
width = 1581;
}
);
metricLeft = K;
metricRight = K;
},
{
color = 10;
glyphname = L.ss02;
layers = (
{
layerId = m01;
shapes = (
{
closed = 1;
nodes = (
(1219,0,ls),
(1282,0,o),
(1308,50,o),
(1308,90,cs),
(1308,132,o),
(1280,162,o),
(1219,162,cs),
(295,162,l),
(603,1901,ls),
(613,1960,o),
(602,2008,o),
(531,2008,cs),
(463,2008,o),
(437,1969,o),
(428,1918,cs),
(109,94,ls),
(98,42,o),
(128,0,o),
(188,0,cs)
);
},
{
closed = 1;
nodes = (
(140,20,o),
(120,48,o),
(129,90,cs),
(447,1914,ls),
(458,1961,o),
(475,1988,o),
(531,1988,cs),
(585,1988,o),
(593,1959,o),
(583,1904,cs),
(271,142,l),
(1219,142,ls),
(1271,142,o),
(1288,122,o),
(1288,90,cs),
(1288,56,o),
(1269,20,o),
(1219,20,cs),
(188,20,ls)
);
}
);
vertWidth = 0;
width = 1449;
},
{
layerId = "140DECC1-64C4-40C0-9C07-503DBC3F4160";
shapes = (
{
closed = 1;
nodes = (
(1339,-20,ls),
(1443,-20,o),
(1515,58,o),
(1515,143,cs),
(1515,227,o),
(1443,298,o),
(1339,298,cs),
(499,298,l),
(774,1841,l),
(796,1988,o),
(709,2028,o),
(624,2028,cs),
(525,2028,o),
(442,1984,o),
(424,1885,cs),
(117,154,ls),
(100,56,o),
(167,-20,o),
(270,-20,cs)
);
},
{
closed = 1;
nodes = (
(188,20,o),
(143,71,o),
(157,148,cs),
(464,1877,ls),
(478,1956,o),
(537,1988,o),
(624,1988,cs),
(698,1988,o),
(752,1962,o),
(734,1847,cs),
(451,258,l),
(1339,258,ls),
(1424,258,o),
(1475,208,o),
(1475,143,cs),
(1475,76,o),
(1423,20,o),
(1339,20,cs),
(270,20,ls)
);
}
);
vertWidth = 0;
width = 1598;
}
);
metricLeft = L;
metricRight = L;
},
{
color = 10;
glyphname = M.ss02;
layers = (
{
layerId = m01;
shapes = (
{
closed = 1;
nodes = (
(66,0,o),
(109,25,o),
(139,83,cs),
(955,1664,l),
(1073,83,ls),
(1076,51,o),
(1091,0,o),
(1168,0,cs),
(1234,0,o),
(1260,57,o),
(1272,80,cs),
(2093,1669,l),
(2214,84,ls),
(2217,51,o),
(2234,0,o),
(2307,0,cs),
(2362,0,o),
(2391,39,o),
(2386,91,cs),
(2236,1913,ls),
(2232,1965,o),
(2221,2008,o),
(2149,2008,cs),
(2076,2008,o),
(2055,1956,o),
(2037,1922,cs),
(1218,329,l),
(1096,1943,ls),
(1092,1968,o),
(1072,2008,o),
(1009,2008,cs),
(951,2008,o),
(928,1969,o),
(907,1928,cs),
(-31,130,ls),
(-70,50,o),
(-25,0,o),
(31,0,cs)
);
},
{
closed = 1;
nodes = (
(-15,20,o),
(-46,55,o),
(-13,121,cs),
(924,1919,ls),
(945,1959,o),
(963,1988,o),
(1009,1988,cs),
(1059,1988,o),
(1074,1961,o),
(1076,1941,cs),
(1199,310,ls),
(1202,268,o),
(1209,269,o),
(1229,308,cs),
(2055,1913,ls),
(2073,1947,o),
(2089,1988,o),
(2149,1988,cs),
(2206,1988,o),
(2212,1961,o),
(2216,1912,cs),
(2366,89,ls),
(2371,47,o),
(2350,20,o),
(2307,20,cs),
(2249,20,o),
(2236,56,o),
(2234,85,cs),
(2112,1689,ls),
(2109,1729,o),
(2104,1732,o),
(2082,1690,cs),
(1254,89,ls),
(1241,66,o),
(1221,20,o),
(1168,20,cs),
(1106,20,o),
(1096,55,o),
(1093,85,cs),
(973,1683,ls),
(970,1719,o),
(961,1721,o),
(939,1678,cs),
(122,92,ls),
(95,39,o),
(61,20,o),
(31,20,cs)
);
}
);
vertWidth = 0;
width = 2505;
},
{
layerId = "140DECC1-64C4-40C0-9C07-503DBC3F4160";
shapes = (
{
closed = 1;
nodes = (
(180,-20,o),
(274,11,o),
(315,92,cs),
(931,1300,l),
(1021,123,ls),
(1027,44,o),
(1090,-20,o),
(1194,-20,cs),
(1329,-20,o),
(1365,50,o),
(1384,87,cs),
(2010,1303,l),
(2095,124,ls),
(2100,48,o),
(2175,-20,o),
(2281,-20,cs),
(2381,-20,o),
(2450,52,o),
(2442,145,cs),
(2301,1875,ls),
(2293,1968,o),
(2270,2028,o),
(2146,2028,cs),
(2047,2028,o),
(1987,1987,o),
(1949,1913,cs),
(1312,681,l),
(1225,1874,ls),
(1218,1971,o),
(1175,2028,o),
(1036,2028,cs),
(941,2028,o),
(908,1984,o),
(872,1916,cs),
(-20,207,ls),
(-82,88,o),
(12,-20,o),
(117,-20,cs)
);
},
{
closed = 1;
nodes = (
(35,20,o),
(-33,95,o),
(16,189,cs),
(908,1898,ls),
(941,1961,o),
(962,1988,o),
(1036,1988,cs),
(1153,1988,o),
(1179,1954,o),
(1185,1872,cs),
(1275,634,ls),
(1281,552,o),
(1289,552,o),
(1332,634,cs),
(1985,1895,ls),
(2017,1957,o),
(2061,1988,o),
(2146,1988,cs),
(2242,1988,o),
(2254,1956,o),
(2261,1871,cs),
(2402,141,ls),
(2408,69,o),
(2362,20,o),
(2281,20,cs),
(2193,20,o),
(2139,69,o),
(2135,126,cs),
(2046,1363,ls),
(2041,1437,o),
(2035,1437,o),
(1994,1358,cs),
(1348,105,ls),
(1330,69,o),
(1304,20,o),
(1194,20,cs),
(1110,20,o),
(1066,64,o),
(1061,127,cs),
(968,1354,ls),
(962,1433,o),
(955,1432,o),
(915,1354,cs),
(279,110,ls),
(246,45,o),
(172,20,o),
(117,20,cs)
);
}
);
vertWidth = 0;
width = 2547;
}
);
metricLeft = M;
metricRight = M;
},
{
color = 10;
glyphname = N.ss02;
layers = (
{
layerId = m01;
shapes = (
{
closed = 1;
nodes = (
(263,0,o),
(276,56,o),
(283,94,cs),
(555,1646,l),
(1134,61,ls),
(1146,29,o),
(1177,0,o),
(1225,0,cs),
(1298,0,o),
(1305,55,o),
(1310,86,cs),
(1629,1901,ls),
(1639,1960,o),
(1628,2008,o),
(1560,2008,cs),
(1495,2008,o),
(1469,1969,o),
(1460,1917,cs),
(1189,388,l),
(633,1940,ls),
(622,1970,o),
(587,2008,o),
(527,2008,cs),
(456,2008,o),
(437,1968,o),
(428,1918,cs),
(109,94,ls),
(100,42,o),
(128,0,o),
(188,0,cs)
);
},
{
closed = 1;
nodes = (
(139,20,o),
(121,48,o),
(128,90,cs),
(447,1914,ls),
(455,1962,o),
(470,1988,o),
(527,1988,cs),
(578,1988,o),
(605,1959,o),
(614,1933,cs),
(1179,356,ls),
(1191,322,o),
(1197,322,o),
(1203,356,cs),
(1480,1914,ls),
(1488,1960,o),
(1507,1988,o),
(1560,1988,cs),
(1611,1988,o),
(1620,1959,o),
(1610,1904,cs),
(1291,89,ls),
(1286,58,o),
(1281,20,o),
(1225,20,cs),
(1186,20,o),
(1163,41,o),
(1153,68,cs),
(565,1676,ls),
(552,1712,o),
(546,1712,o),
(540,1676,cs),
(263,97,ls),
(257,60,o),
(248,20,o),
(188,20,cs)
);
}
);
vertWidth = 0;
width = 1575;
},
{
layerId = "140DECC1-64C4-40C0-9C07-503DBC3F4160";
shapes = (
{
closed = 1;
nodes = (
(383,-20,o),
(453,48,o),
(466,127,cs),
(658,1290,l),
(1167,78,ls),
(1194,15,o),
(1247,-20,o),
(1333,-20,cs),
(1451,-20,o),
(1487,52,o),
(1499,121,cs),
(1801,1840,ls),
(1820,1950,o),
(1763,2038,o),
(1648,2038,cs),
(1553,2038,o),
(1472,1983,o),
(1456,1884,cs),
(1263,710,l),
(753,1925,ls),
(722,2000,o),
(659,2028,o),
(589,2028,cs),
(502,2028,o),
(441,1979,o),
(424,1884,cs),
(117,155,ls),
(99,56,o),
(169,-20,o),
(269,-20,cs)
);
},
{
closed = 1;
nodes = (
(190,20,o),
(144,71,o),
(157,147,cs),
(464,1878,ls),
(478,1955,o),
(518,1988,o),
(589,1988,cs),
(647,1988,o),
(692,1968,o),
(717,1909,cs),
(1243,652,ls),
(1275,576,o),
(1281,576,o),
(1294,657,cs),
(1496,1878,ls),
(1509,1957,o),
(1568,1998,o),
(1648,1998,cs),
(1738,1998,o),
(1777,1939,o),
(1761,1848,cs),
(1459,129,ls),
(1448,66,o),
(1424,20,o),
(1333,20,cs),
(1261,20,o),
(1224,43,o),
(1203,94,cs),
(678,1348,ls),
(647,1422,o),
(640,1421,o),
(627,1344,cs),
(426,133,ls),
(416,70,o),
(365,20,o),
(269,20,cs)
);
}
);
vertWidth = 0;
width = 1750;
}
);
metricLeft = N;
metricRight = N;
},
{
color = 10;
glyphname = O.ss02;
layers = (
{
layerId = m01;
shapes = (
{
closed = 1;
nodes = (
(1309,0,o),
(1547,790,o),
(1618,1192,cs),
(1709,1700,o),
(1543,2008,o),
(1100,2008,cs),
(550,2008,o),
(314,1443,o),
(241,1019,cs),
(156,519,o),
(239,0,o),
(777,0,cs)
);
},
{
closed = 1;
nodes = (
(256,20,o),
(176,520,o),
(261,1015,cs),
(333,1437,o),
(563,1988,o),
(1100,1988,cs),
(1530,1988,o),
(1688,1695,o),
(1598,1196,cs),
(1528,795,o),
(1294,20,o),
(777,20,cs)
);
},
{
closed = 1;
nodes = (
(346,627,o),
(376,162,o),
(774,162,cs),
(1122,162,o),
(1387,842,o),
(1446,1178,cs),
(1508,1524,o),
(1483,1849,o),
(1085,1849,cs),
(647,1849,o),
(458,1249,o),
(410,984,cs)
);
},
{
closed = 1;
nodes = (
(439,1254,o),
(632,1869,o),
(1085,1869,cs),
(1502,1869,o),
(1528,1524,o),
(1465,1175,cs),
(1406,836,o),
(1137,142,o),
(774,142,cs),
(357,142,o),
(326,628,o),
(391,988,cs)
);
}
);
vertWidth = 0;
width = 1638;
},
{
layerId = "140DECC1-64C4-40C0-9C07-503DBC3F4160";
shapes = (
{
closed = 1;
nodes = (
(1341,-20,o),
(1695,447,o),
(1828,1193,cs),
(1917,1710,o),
(1747,2028,o),
(1217,2028,cs),
(702,2028,o),
(380,1687,o),
(261,1020,cs),
(149,382,o),
(389,-20,o),
(889,-20,cs)
);
},
{
closed = 1;
nodes = (
(414,20,o),
(192,394,o),
(301,1014,cs),
(417,1666,o),
(722,1988,o),
(1217,1988,cs),
(1720,1988,o),
(1875,1701,o),
(1788,1199,cs),
(1658,466,o),
(1319,20,o),
(889,20,cs)
);
},
{
closed = 1;
nodes = (
(531,548,o),
(637,298,o),
(887,298,cs),
(1157,298,o),
(1383,630,o),
(1478,1181,cs),
(1540,1529,o),
(1516,1710,o),
(1201,1710,cs),
(891,1710,o),
(695,1471,o),
(605,983,cs)
);
},
{
closed = 1;
nodes = (
(658,1491,o),
(870,1750,o),
(1201,1750,cs),
(1552,1750,o),
(1581,1532,o),
(1518,1175,cs),
(1421,612,o),
(1181,258,o),
(887,258,cs),
(609,258,o),
(489,540,o),
(565,989,cs)
);
}
);
vertWidth = 0;
width = 1820;
}
);
metricLeft = O;
metricRight = O;
},
{
color = 10;
glyphname = P.ss02;
layers = (
{
layerId = m01;
shapes = (
{
closed = 1;
nodes = (
(76,0,o),
(87,55,o),
(92,86,cs),
(254,999,l),
(856,1004,o),
(1316,1071,o),
(1372,1493,cs),
(1419,1846,o),
(1007,2008,o),
(346,2008,cs),
(272,2008,o),
(252,1969,o),
(243,1918,cs),
(-79,94,ls),
(-88,42,o),
(-60,0,o),
(1,0,cs)
);
},
{
closed = 1;
nodes = (
(-48,20,o),
(-66,48,o),
(-59,90,cs),
(263,1914,ls),
(271,1961,o),
(285,1988,o),
(346,1988,cs),
(1001,1988,o),
(1396,1832,o),
(1352,1496,cs),
(1298,1085,o),
(845,1023,o),
(238,1018,c),
(73,89,ls),
(68,58,o),
(60,20,o),
(1,20,cs)
);
},
{
closed = 1;
nodes = (
(772,1167,o),
(1166,1230,o),
(1201,1512,cs),
(1225,1706,o),
(1000,1840,o),
(404,1849,c),
(283,1160,l)
);
},
{
closed = 1;
nodes = (
(387,1869,l),
(1003,1863,o),
(1245,1720,o),
(1219,1509,cs),
(1183,1206,o),
(761,1145,o),
(259,1140,c)
);
}
);
vertWidth = 0;
width = 1209;
},
{
layerId = "140DECC1-64C4-40C0-9C07-503DBC3F4160";
shapes = (
{
closed = 1;
nodes = (
(397,-20,o),
(455,41,o),
(468,116,cs),
(604,893,l),
(1149,907,o),
(1658,920,o),
(1732,1441,cs),
(1794,1875,o),
(1369,2028,o),
(606,2028,cs),
(504,2028,o),
(439,1983,o),
(422,1885,cs),
(116,152,ls),
(99,56,o),
(168,-20,o),
(281,-20,cs)
);
},
{
closed = 1;
nodes = (
(189,20,o),
(143,71,o),
(156,144,cs),
(462,1877,ls),
(476,1957,o),
(519,1988,o),
(606,1988,cs),
(1359,1988,o),
(1750,1847,o),
(1692,1447,cs),
(1622,946,o),
(1124,944,o),
(570,933,c),
(428,124,ls),
(417,61,o),
(375,20,o),
(281,20,cs)
);
},
{
closed = 1;
nodes = (
(1058,1229,o),
(1365,1231,o),
(1393,1461,cs),
(1415,1638,o),
(1347,1716,o),
(749,1717,c),
(660,1213,l)
);
},
{
closed = 1;
nodes = (
(715,1757,l),
(1368,1759,o),
(1458,1658,o),
(1433,1457,cs),
(1400,1186,o),
(1037,1183,o),
(612,1171,c)
);
}
);
vertWidth = 0;
width = 1624;
}
);
metricLeft = P;
metricRight = P;
},
{
color = 10;
glyphname = Q.ss02;
layers = (
{
layerId = m01;
shapes = (
{
closed = 1;
nodes = (
(860,-1,o),
(938,19,o),
(1007,53,c),
(1169,-182,ls),
(1203,-231,o),
(1257,-261,o),
(1301,-234,cs),
(1351,-207,o),
(1351,-141,o),
(1322,-101,cs),
(1149,151,l),
(1426,400,o),
(1567,898,o),
(1618,1191,cs),
(1709,1699,o),
(1543,2007,o),
(1100,2007,cs),
(550,2007,o),
(314,1442,o),
(241,1017,cs),
(156,518,o),
(239,-1,o),
(777,-1,cs)
);
},
{
closed = 1;
nodes = (
(256,19,o),
(176,519,o),
(261,1014,cs),
(333,1436,o),
(563,1987,o),
(1100,1987,cs),
(1530,1987,o),
(1688,1694,o),
(1598,1195,cs),
(1547,898,o),
(1404,395,o),
(1123,154,c),
(1306,-113,ls),
(1330,-146,o),
(1330,-196,o),
(1291,-217,cs),
(1257,-237,o),
(1216,-215,o),
(1186,-171,cs),
(1013,79,l),
(942,40,o),
(863,19,o),
(777,19,cs)
);
},
{
closed = 1;
nodes = (
(346,626,o),
(376,160,o),
(774,160,cs),
(821,160,o),
(866,173,o),
(910,195,c),
(851,281,ls),
(815,333,o),
(809,376,o),
(849,408,cs),
(898,448,o),
(959,426,o),
(993,378,cs),
(1046,301,l),
(1256,519,o),
(1404,937,o),
(1446,1177,cs),
(1508,1523,o),
(1483,1848,o),
(1085,1848,cs),
(647,1848,o),
(458,1248,o),
(410,983,cs)
);
},
{
closed = 1;
nodes = (
(439,1253,o),
(632,1868,o),
(1085,1868,cs),
(1502,1868,o),
(1528,1523,o),
(1465,1173,cs),
(1422,926,o),
(1265,486,o),
(1043,270,c),
(976,366,ls),
(947,408,o),
(901,425,o),
(862,392,cs),
(831,368,o),
(835,339,o),
(867,293,cs),
(938,189,l),
(887,158,o),
(831,140,o),
(774,140,cs),
(357,140,o),
(326,626,o),
(391,987,cs)
);
}
);
vertWidth = 0;
width = 1638;
},
{
layerId = "140DECC1-64C4-40C0-9C07-503DBC3F4160";
shapes = (
{
closed = 1;
nodes = (
(955,-20,o),
(1020,-10,o),
(1082,9,c),
(1200,-164,ls),
(1261,-256,o),
(1369,-286,o),
(1447,-235,cs),
(1526,-185,o),
(1544,-84,o),
(1489,-2,cs),
(1365,181,l),
(1583,385,o),
(1747,737,o),
(1828,1193,cs),
(1917,1710,o),
(1747,2028,o),
(1217,2028,cs),
(702,2028,o),
(380,1687,o),
(261,1020,cs),
(149,382,o),
(389,-20,o),
(889,-20,cs)
);
},
{
closed = 1;
nodes = (
(414,20,o),
(192,394,o),
(301,1014,cs),
(417,1666,o),
(722,1988,o),
(1217,1988,cs),
(1720,1988,o),
(1875,1701,o),
(1788,1199,cs),
(1705,732,o),
(1537,382,o),
(1313,187,c),
(1455,-24,ls),
(1500,-91,o),
(1488,-162,o),
(1425,-201,cs),
(1365,-241,o),
(1285,-220,o),
(1234,-142,cs),
(1098,57,l),
(1030,32,o),
(961,20,o),
(889,20,cs)
);
},
{
closed = 1;
nodes = (
(531,548,o),
(637,298,o),
(887,298,cs),
(886,298,o),
(886,298,o),
(885,298,c),
(876,312,ls),
(821,392,o),
(835,499,o),
(911,552,cs),
(989,608,o),
(1098,579,o),
(1159,487,cs),
(1183,451,l),
(1317,601,o),
(1421,851,o),
(1478,1181,cs),
(1540,1529,o),
(1516,1710,o),
(1201,1710,cs),
(891,1710,o),
(695,1471,o),
(605,983,cs)
);
},
{
closed = 1;
nodes = (
(658,1491,o),
(870,1750,o),
(1201,1750,cs),
(1552,1750,o),
(1581,1532,o),
(1518,1175,cs),
(1455,812,o),
(1333,537,o),
(1178,388,c),
(1125,465,ls),
(1074,542,o),
(995,563,o),
(935,520,cs),
(875,478,o),
(864,400,o),
(908,334,cs),
(959,262,l),
(933,262,o),
(912,258,o),
(887,258,cs),
(609,258,o),
(489,540,o),
(565,989,cs)
);
}
);
vertWidth = 0;
width = 1820;
}
);
metricLeft = Q;
metricRight = Q;
},
{
color = 10;
glyphname = R.ss02;
layers = (
{
layerId = m01;
shapes = (
{
closed = 1;
nodes = (
(261,0,o),
(272,56,o),
(280,103,cs),
(432,956,l),
(1139,58,ls),
(1172,16,o),
(1205,0,o),
(1232,0,cs),
(1305,0,o),
(1336,80,o),
(1267,168,cs),
(612,1002,l),
(1113,1022,o),
(1508,1119,o),
(1557,1492,cs),
(1603,1845,o),
(1203,2008,o),
(531,2008,cs),
(457,2008,o),
(437,1969,o),
(428,1918,cs),
(109,112,ls),
(99,56,o),
(124,0,o),
(186,0,cs)
);
},
{
closed = 1;
nodes = (
(138,20,o),
(121,60,o),
(129,108,cs),
(448,1914,ls),
(456,1961,o),
(470,1988,o),
(531,1988,cs),
(1196,1988,o),
(1580,1832,o),
(1537,1496,cs),
(1490,1132,o),
(1104,1041,o),
(601,1022,cs),
(576,1021,o),
(574,1015,o),
(588,997,cs),
(1252,155,ls),
(1312,79,o),
(1290,20,o),
(1232,20,cs),
(1211,20,o),
(1184,33,o),
(1154,71,cs),
(442,971,ls),
(421,997,o),
(418,995,o),
(413,966,cs),
(261,107,ls),
(253,61,o),
(245,20,o),
(186,20,cs)
);
},
{
closed = 1;
nodes = (
(954,1167,o),
(1349,1234,o),
(1386,1511,cs),
(1412,1710,o),
(1147,1840,o),
(589,1849,c),
(468,1160,l)
);
},
{
closed = 1;
nodes = (
(572,1869,l),
(1149,1863,o),
(1433,1725,o),
(1405,1508,cs),
(1366,1210,o),
(943,1145,o),
(444,1140,c)
);
}
);
vertWidth = 0;
width = 1420;
},
{
layerId = "140DECC1-64C4-40C0-9C07-503DBC3F4160";
shapes = (
{
closed = 1;
nodes = (
(366,-20,o),
(455,57,o),
(473,161,cs),
(586,806,l),
(1161,57,ls),
(1215,-14,o),
(1293,-20,o),
(1334,-20,cs),
(1449,-20,o),
(1555,120,o),
(1425,289,cs),
(946,914,l),
(1349,963,o),
(1672,1105,o),
(1738,1473,cs),
(1810,1876,o),
(1369,2028,o),
(611,2028,cs),
(507,2028,o),
(439,1983,o),
(422,1885,cs),
(121,169,ls),
(104,70,o),
(146,-20,o),
(260,-20,cs)
);
},
{
closed = 1;
nodes = (
(174,20,o),
(146,78,o),
(161,163,cs),
(462,1877,ls),
(476,1957,o),
(521,1988,o),
(611,1988,cs),
(1360,1988,o),
(1763,1848,o),
(1698,1481,cs),
(1635,1124,o),
(1322,996,o),
(915,951,cs),
(873,946,o),
(869,940,o),
(900,901,cs),
(1395,263,ls),
(1505,121,o),
(1424,20,o),
(1334,20,cs),
(1297,20,o),
(1235,26,o),
(1191,83,cs),
(608,839,ls),
(567,892,o),
(563,888,o),
(553,834,cs),
(435,167,ls),
(420,80,o),
(349,20,o),
(260,20,cs)
);
},
{
closed = 1;
nodes = (
(1066,1228,o),
(1366,1301,o),
(1398,1487,cs),
(1422,1630,o),
(1278,1710,o),
(748,1710,c),
(660,1213,l)
);
},
{
closed = 1;
nodes = (
(714,1750,l),
(1286,1754,o),
(1469,1659,o),
(1438,1481,cs),
(1399,1257,o),
(1047,1182,o),
(612,1171,c)
);
}
);
vertWidth = 0;
width = 1584;
}
);
metricLeft = R;
metricRight = R;
},
{
color = 10;
glyphname = S.ss02;
layers = (
{
layerId = m01;
shapes = (
{
closed = 1;
nodes = (
(975,0,o),
(1232,233,o),
(1232,610,cs),
(1232,807,o),
(1088,990,o),
(870,1144,cs),
(643,1300,o),
(509,1393,o),
(509,1530,cs),
(509,1727,o),
(695,1849,o),
(1001,1849,cs),
(1207,1849,o),
(1252,1793,o),
(1269,1683,cs),
(1275,1633,o),
(1346,1624,o),
(1384,1633,cs),
(1439,1648,o),
(1438,1699,o),
(1433,1731,cs),
(1396,1933,o),
(1267,2008,o),
(1004,2008,cs),
(594,2008,o),
(339,1821,o),
(339,1522,cs),
(339,1303,o),
(519,1184,o),
(735,1027,cs),
(976,855,o),
(1058,733,o),
(1058,589,cs),
(1058,323,o),
(871,162,o),
(563,162,cs),
(388,162,o),
(304,217,o),
(279,326,cs),
(268,373,o),
(220,392,o),
(179,380,cs),
(127,365,o),
(110,311,o),
(116,279,cs),
(147,96,o),
(317,0,o),
(563,0,cs)
);
},
{
closed = 1;
nodes = (
(323,20,o),
(165,109,o),
(135,282,cs),
(131,308,o),
(143,349,o),
(185,361,cs),
(217,371,o),
(251,358,o),
(259,322,cs),
(286,204,o),
(381,142,o),
(563,142,cs),
(880,142,o),
(1078,313,o),
(1078,589,cs),
(1078,739,o),
(991,869,o),
(746,1043,cs),
(530,1200,o),
(359,1313,o),
(359,1522,cs),
(359,1810,o),
(602,1988,o),
(1004,1988,cs),
(1260,1988,o),
(1378,1919,o),
(1414,1728,cs),
(1419,1698,o),
(1419,1663,o),
(1379,1652,cs),
(1346,1645,o),
(1293,1651,o),
(1289,1685,cs),
(1270,1802,o),
(1218,1869,o),
(1001,1869,cs),
(689,1869,o),
(489,1740,o),
(489,1530,cs),
(489,1383,o),
(632,1284,o),
(858,1128,cs),
(1074,976,o),
(1213,800,o),
(1213,610,cs),
(1213,243,o),
(966,20,o),
(563,20,cs)
);
}
);
vertWidth = 0;
width = 1389;
},
{
layerId = "140DECC1-64C4-40C0-9C07-503DBC3F4160";
shapes = (
{
closed = 1;
nodes = (
(1034,-20,o),
(1366,269,o),
(1366,655,cs),
(1366,839,o),
(1296,977,o),
(973,1205,cs),
(816,1318,o),
(628,1422,o),
(628,1506,cs),
(628,1642,o),
(761,1710,o),
(1050,1710,cs),
(1180,1710,o),
(1237,1682,o),
(1248,1622,cs),
(1267,1513,o),
(1377,1490,o),
(1451,1510,c),
(1538,1539,o),
(1570,1615,o),
(1556,1697,cs),
(1513,1935,o),
(1352,2028,o),
(1097,2028,cs),
(566,2028,o),
(289,1853,o),
(289,1506,cs),
(289,1199,o),
(580,1070,o),
(744,952,cs),
(972,785,o),
(1033,730,o),
(1033,622,cs),
(1033,438,o),
(871,298,o),
(647,298,cs),
(495,298,o),
(406,337,o),
(396,386,cs),
(375,492,o),
(269,510,o),
(198,496,cs),
(104,477,o),
(69,395,o),
(86,311,cs),
(122,106,o),
(319,-20,o),
(595,-20,cs)
);
},
{
closed = 1;
nodes = (
(333,20,o),
(158,132,o),
(126,319,c),
(111,388,o),
(135,442,o),
(206,456,cs),
(267,469,o),
(341,456,o),
(356,378,cs),
(372,306,o),
(484,258,o),
(647,258,cs),
(888,258,o),
(1073,417,o),
(1073,622,cs),
(1073,749,o),
(998,816,o),
(768,984,cs),
(600,1105,o),
(329,1225,o),
(329,1506,cs),
(329,1828,o),
(580,1988,o),
(1097,1988,cs),
(1339,1988,o),
(1477,1907,o),
(1516,1689,cs),
(1528,1623,o),
(1506,1571,o),
(1439,1548,c),
(1377,1532,o),
(1301,1549,o),
(1288,1630,cs),
(1272,1712,o),
(1192,1750,o),
(1050,1750,cs),
(748,1750,o),
(588,1669,o),
(588,1506,cs),
(588,1396,o),
(794,1284,o),
(949,1173,cs),
(1263,952,o),
(1326,827,o),
(1326,655,cs),
(1326,290,o),
(1017,20,o),
(595,20,cs)
);
}
);
vertWidth = 0;
width = 1475;
}
);
metricLeft = S;
metricRight = S;
},
{
color = 10;
glyphname = T.ss02;
layers = (
{
layerId = m01;
shapes = (
{
closed = 1;
nodes = (
(689,0,o),
(701,54,o),
(706,86,cs),
(1014,1849,l),
(1520,1849,ls),
(1586,1849,o),
(1607,1888,o),
(1607,1929,cs),
(1607,1968,o),
(1587,2008,o),
(1520,2008,cs),
(336,2008,ls),
(266,2008,o),
(246,1968,o),
(246,1929,cs),
(246,1888,o),
(267,1849,o),
(336,1849,cs),
(839,1849,l),
(535,94,l),
(523,42,o),
(551,0,o),
(614,0,cs)
);
},
{
closed = 1;
nodes = (
(563,20,o),
(545,48,o),
(555,90,c),
(863,1869,l),
(336,1869,ls),
(279,1869,o),
(266,1895,o),
(266,1929,cs),
(266,1962,o),
(280,1988,o),
(336,1988,cs),
(1520,1988,ls),
(1573,1988,o),
(1587,1962,o),
(1587,1929,cs),
(1587,1895,o),
(1574,1869,o),
(1520,1869,cs),
(997,1869,l),
(687,89,ls),
(682,58,o),
(673,20,o),
(614,20,cs)
);
}
);
vertWidth = 0;
width = 1244;
},
{
layerId = "140DECC1-64C4-40C0-9C07-503DBC3F4160";
shapes = (
{
closed = 1;
nodes = (
(766,-23,o),
(825,44,o),
(840,116,c),
(1120,1720,l),
(1530,1720,ls),
(1641,1720,o),
(1704,1792,o),
(1704,1875,cs),
(1704,1967,o),
(1635,2038,o),
(1530,2038,cs),
(412,2038,ls),
(307,2038,o),
(238,1967,o),
(238,1875,cs),
(238,1792,o),
(301,1720,o),
(412,1720,cs),
(767,1720,l),
(491,155,ls),
(473,56,o),
(545,-23,o),
(654,-23,cs)
);
},
{
closed = 1;
nodes = (
(566,17,o),
(516,71,o),
(531,147,cs),
(815,1760,l),
(412,1760,ls),
(322,1760,o),
(278,1810,o),
(278,1875,cs),
(278,1948,o),
(326,1998,o),
(412,1998,cs),
(1530,1998,ls),
(1616,1998,o),
(1664,1948,o),
(1664,1875,cs),
(1664,1810,o),
(1620,1760,o),
(1530,1760,cs),
(1086,1760,l),
(800,124,ls),
(788,64,o),
(746,17,o),
(654,17,cs)
);
}
);
vertWidth = 0;
width = 1321;
}
);
metricLeft = T;
metricRight = T;
},
{
color = 10;
glyphname = U.ss02;
layers = (
{
layerId = m01;
shapes = (
{
closed = 1;
nodes = (
(693,-14,o),
(1062,385,o),
(1273,885,c),
(1136,93,ls),
(1123,29,o),
(1166,-4,o),
(1215,-4,cs),
(1254,-4,o),
(1298,23,o),
(1307,74,cs),
(1631,1915,ls),
(1642,1967,o),
(1616,2007,o),
(1549,2007,cs),
(1486,2007,o),
(1463,1966,o),
(1454,1926,c),
(1395,1587,l),
(1138,757,o),
(718,147,o),
(429,147,cs),
(296,147,o),
(325,363,o),
(361,559,cs),
(607,1910,ls),
(616,1959,o),
(585,2003,o),
(532,2007,cs),
(477,2007,o),
(440,1960,o),
(432,1908,cs),
(190,569,ls),
(115,164,o),
(215,-14,o),
(403,-14,cs)
);
},
{
closed = 1;
nodes = (
(228,6,o),
(136,170,o),
(210,565,cs),
(451,1905,ls),
(459,1951,o),
(488,1987,o),
(531,1987,cs),
(573,1984,o),
(594,1953,o),
(587,1913,cs),
(342,562,ls),
(306,365,o),
(272,128,o),
(429,128,cs),
(731,128,o),
(1156,749,o),
(1414,1583,c),
(1474,1923,ls),
(1481,1958,o),
(1498,1987,o),
(1549,1987,cs),
(1603,1987,o),
(1621,1961,o),
(1612,1918,cs),
(1287,78,ls),
(1280,36,o),
(1247,16,o),
(1215,16,cs),
(1174,16,o),
(1145,39,o),
(1155,89,cs),
(1298,911,ls),
(1310,981,o),
(1303,1000,o),
(1265,915,cs),
(1023,372,o),
(675,6,o),
(403,6,cs)
);
}
);
vertWidth = 0;
width = 1574;
},
{
layerId = "140DECC1-64C4-40C0-9C07-503DBC3F4160";
shapes = (
{
closed = 1;
nodes = (
(745,-33,o),
(1000,146,o),
(1208,459,c),
(1154,154,ls),
(1133,38,o),
(1221,-20,o),
(1317,-20,cs),
(1393,-20,o),
(1485,20,o),
(1501,111,cs),
(1808,1857,ls),
(1825,1955,o),
(1758,2028,o),
(1642,2028,cs),
(1545,2028,o),
(1473,1975,o),
(1458,1894,cs),
(1419,1682,l),
(1184,812,o),
(861,285,o),
(581,285,cs),
(506,285,o),
(513,386,o),
(546,568,cs),
(775,1851,ls),
(793,1953,o),
(717,2028,o),
(615,2028,cs),
(504,2031,o),
(437,1937,o),
(426,1877,cs),
(197,607,ls),
(118,167,o),
(256,-33,o),
(495,-33,cs)
);
},
{
closed = 1;
nodes = (
(280,7,o),
(162,181,o),
(237,599,cs),
(466,1869,ls),
(475,1919,o),
(526,1991,o),
(615,1988,cs),
(698,1988,o),
(749,1936,o),
(735,1859,cs),
(506,576,ls),
(472,388,o),
(462,245,o),
(581,245,cs),
(887,245,o),
(1221,794,o),
(1459,1674,c),
(1498,1888,ls),
(1509,1950,o),
(1560,1988,o),
(1642,1988,cs),
(1737,1988,o),
(1782,1940,o),
(1768,1863,cs),
(1461,117,ls),
(1449,50,o),
(1383,20,o),
(1317,20,cs),
(1237,20,o),
(1178,59,o),
(1194,148,cs),
(1264,550,ls),
(1277,622,o),
(1263,628,o),
(1221,556,cs),
(1013,202,o),
(750,7,o),
(495,7,cs)
);
}
);
vertWidth = 0;
width = 1754;
}
);
metricLeft = U;
metricRight = U;
},
{
color = 10;
glyphname = V.ss02;
layers = (
{
layerId = m01;
shapes = (
{
closed = 1;
nodes = (
(505,0,o),
(520,40,o),
(541,83,cs),
(1437,1896,ls),
(1472,1966,o),
(1429,2008,o),
(1377,2008,cs),
(1313,2008,o),
(1286,1982,o),
(1260,1928,cs),
(495,347,l),
(421,1926,ls),
(419,1959,o),
(403,2008,o),
(326,2008,cs),
(265,2008,o),
(244,1968,o),
(247,1917,cs),
(347,94,ls),
(349,53,o),
(379,0,o),
(439,0,cs)
);
},
{
closed = 1;
nodes = (
(392,20,o),
(369,60,o),
(367,96,cs),
(267,1918,ls),
(265,1962,o),
(278,1988,o),
(326,1988,cs),
(389,1988,o),
(401,1955,o),
(402,1925,cs),
(477,314,ls),
(479,273,o),
(481,273,o),
(500,312,cs),
(1278,1919,ls),
(1302,1969,o),
(1321,1988,o),
(1377,1988,cs),
(1419,1988,o),
(1447,1960,o),
(1419,1904,cs),
(523,92,ls),
(501,48,o),
(492,20,o),
(439,20,cs)
);
}
);
vertWidth = 0;
width = 1114;
},
{
layerId = "140DECC1-64C4-40C0-9C07-503DBC3F4160";
shapes = (
{
closed = 1;
nodes = (
(610,-25,o),
(658,34,o),
(688,95,cs),
(1538,1817,ls),
(1600,1938,o),
(1519,2028,o),
(1406,2028,cs),
(1309,2028,o),
(1245,1987,o),
(1211,1917,cs),
(633,724,l),
(578,1887,ls),
(575,1968,o),
(508,2028,o),
(399,2028,cs),
(301,2028,o),
(233,1971,o),
(239,1867,cs),
(337,134,ls),
(340,49,o),
(412,-25,o),
(511,-25,cs)
);
},
{
closed = 1;
nodes = (
(431,15,o),
(380,68,o),
(377,136,cs),
(279,1869,ls),
(274,1950,o),
(318,1988,o),
(399,1988,cs),
(490,1988,o),
(535,1947,o),
(538,1885,cs),
(596,673,ls),
(601,579,o),
(611,586,o),
(653,673,cs),
(1247,1901,ls),
(1273,1958,o),
(1323,1988,o),
(1406,1988,cs),
(1496,1988,o),
(1551,1930,o),
(1502,1835,cs),
(652,113,ls),
(624,56,o),
(589,15,o),
(511,15,cs)
);
}
);
vertWidth = 0;
width = 1322;
}
);
metricLeft = V;
metricRight = V;
},
{
color = 10;
glyphname = W.ss02;
layers = (
{
layerId = m01;
shapes = (
{
closed = 1;
nodes = (
(492,0,o),
(519,53,o),
(535,86,cs),
(1306,1677,l),
(1387,69,ls),
(1390,22,o),
(1418,0,o),
(1477,0,cs),
(1520,0,o),
(1550,30,o),
(1576,83,cs),
(2470,1896,ls),
(2504,1966,o),
(2461,2008,o),
(2399,2008,cs),
(2351,2008,o),
(2317,1980,o),
(2292,1928,cs),
(1533,360,l),
(1453,1927,ls),
(1451,1959,o),
(1430,2008,o),
(1350,2008,cs),
(1296,2008,o),
(1259,1952,o),
(1249,1930,cs),
(488,351,l),
(411,1926,ls),
(409,1959,o),
(393,2008,o),
(316,2008,cs),
(254,2008,o),
(233,1968,o),
(236,1917,cs),
(336,94,ls),
(339,41,o),
(374,0,o),
(434,0,cs)
);
},
{
closed = 1;
nodes = (
(385,20,o),
(359,50,o),
(356,96,cs),
(256,1918,ls),
(253,1962,o),
(267,1988,o),
(316,1988,cs),
(378,1988,o),
(390,1955,o),
(391,1925,cs),
(470,318,ls),
(472,283,o),
(478,285,o),
(495,321,cs),
(1267,1921,ls),
(1277,1942,o),
(1307,1988,o),
(1350,1988,cs),
(1415,1988,o),
(1431,1954,o),
(1433,1925,cs),
(1514,339,ls),
(1516,295,o),
(1524,297,o),
(1544,338,cs),
(2309,1919,ls),
(2334,1966,o),
(2359,1988,o),
(2399,1988,cs),
(2451,1988,o),
(2480,1960,o),
(2452,1904,cs),
(1558,91,ls),
(1534,43,o),
(1512,20,o),
(1477,20,cs),
(1426,20,o),
(1409,33,o),
(1407,70,cs),
(1323,1706,ls),
(1321,1748,o),
(1316,1744,o),
(1297,1705,cs),
(517,94,ls),
(503,61,o),
(480,20,o),
(434,20,cs)
);
}
);
vertWidth = 0;
width = 2146;
},
{
layerId = "140DECC1-64C4-40C0-9C07-503DBC3F4160";
shapes = (
{
closed = 1;
nodes = (
(584,-20,o),
(647,23,o),
(683,95,cs),
(1277,1292,l),
(1357,137,ls),
(1364,40,o),
(1433,-20,o),
(1528,-20,cs),
(1604,-20,o),
(1671,24,o),
(1708,100,cs),
(2550,1817,ls),
(2610,1939,o),
(2518,2028,o),
(2413,2028,cs),
(2306,2028,o),
(2247,1970,o),
(2218,1910,cs),
(1651,734,l),
(1569,1887,ls),
(1563,1973,o),
(1502,2028,o),
(1383,2028,cs),
(1268,2028,o),
(1235,1960,o),
(1216,1921,cs),
(628,719,l),
(578,1887,ls),
(575,1967,o),
(512,2028,o),
(402,2028,cs),
(304,2028,o),
(234,1971,o),
(239,1867,cs),
(330,134,ls),
(335,40,o),
(408,-20,o),
(517,-20,cs)
);
},
{
closed = 1;
nodes = (
(425,20,o),
(374,62,o),
(370,136,cs),
(279,1869,ls),
(275,1950,o),
(321,1988,o),
(402,1988,cs),
(493,1988,o),
(535,1947,o),
(538,1885,cs),
(590,656,ls),
(593,575,o),
(602,578,o),
(640,655,cs),
(1252,1903,ls),
(1271,1942,o),
(1293,1988,o),
(1383,1988,cs),
(1484,1988,o),
(1524,1952,o),
(1529,1885,cs),
(1615,669,ls),
(1620,595,o),
(1626,593,o),
(1663,669,cs),
(2254,1892,ls),
(2279,1944,o),
(2324,1988,o),
(2413,1988,cs),
(2496,1988,o),
(2560,1928,o),
(2514,1835,cs),
(1672,118,ls),
(1640,54,o),
(1590,20,o),
(1528,20,cs),
(1450,20,o),
(1402,62,o),
(1397,139,cs),
(1314,1344,ls),
(1309,1421,o),
(1297,1422,o),
(1259,1345,cs),
(647,113,ls),
(617,53,o),
(570,20,o),
(517,20,cs)
);
}
);
vertWidth = 0;
width = 2333;
}
);
metricLeft = W;
metricRight = W;
},
{
color = 10;
glyphname = X.ss02;
layers = (
{
layerId = m01;
shapes = (
{
closed = 1;
nodes = (
(-14,-11,o),
(51,-13,o),
(88,38,cs),
(659,825,l),
(944,66,ls),
(968,1,o),
(1036,-11,o),
(1079,11,cs),
(1114,29,o),
(1128,70,o),
(1109,121,cs),
(781,992,l),
(1417,1866,ls),
(1453,1916,o),
(1445,1967,o),
(1415,1990,cs),
(1380,2019,o),
(1315,2017,o),
(1277,1965,cs),
(709,1185,l),
(422,1945,ls),
(399,2007,o),
(343,2020,o),
(300,2004,cs),
(257,1988,o),
(241,1944,o),
(264,1882,cs),
(588,1018,l),
(-58,132,ls),
(-89,90,o),
(-81,44,o),
(-52,20,cs)
);
},
{
closed = 1;
nodes = (
(-62,54,o),
(-67,87,o),
(-43,120,cs),
(610,1015,l),
(282,1889,ls),
(262,1942,o),
(273,1974,o),
(307,1986,cs),
(341,2000,o),
(383,1990,o),
(403,1938,cs),
(694,1168,ls),
(702,1147,o),
(705,1147,o),
(722,1170,cs),
(1293,1954,ls),
(1324,1996,o),
(1375,1998,o),
(1402,1974,cs),
(1425,1957,o),
(1432,1920,o),
(1401,1878,cs),
(759,995,l),
(1091,114,ls),
(1107,71,o),
(1097,43,o),
(1070,29,cs),
(1034,10,o),
(983,20,o),
(963,73,cs),
(673,844,ls),
(666,863,o),
(663,863,o),
(650,845,cs),
(72,50,ls),
(41,8,o),
(-8,10,o),
(-39,36,cs)
);
}
);
vertWidth = 0;
width = 1204;
},
{
layerId = "140DECC1-64C4-40C0-9C07-503DBC3F4160";
shapes = (
{
closed = 1;
nodes = (
(49,-31,o),
(185,-49,o),
(247,37,cs),
(687,653,l),
(902,79,ls),
(941,-24,o),
(1073,-40,o),
(1151,0,cs),
(1224,38,o),
(1261,109,o),
(1226,194,cs),
(926,986,l),
(1491,1775,ls),
(1552,1857,o),
(1536,1934,o),
(1472,1989,cs),
(1410,2046,o),
(1285,2048,o),
(1222,1963,cs),
(787,1358,l),
(570,1932,ls),
(532,2031,o),
(419,2045,o),
(341,2019,cs),
(251,1987,o),
(216,1910,o),
(257,1803,cs),
(548,1026,l),
(-29,225,ls),
(-81,153,o),
(-82,81,o),
(-18,24,cs)
);
},
{
closed = 1;
nodes = (
(-40,97,o),
(-40,142,o),
(3,201,cs),
(592,1020,l),
(295,1817,ls),
(261,1906,o),
(283,1956,o),
(355,1981,cs),
(421,2004,o),
(504,1993,o),
(532,1918,cs),
(759,1316,ls),
(773,1278,o),
(778,1279,o),
(805,1316,cs),
(1254,1939,ls),
(1303,2006,o),
(1396,2004,o),
(1446,1959,cs),
(1498,1914,o),
(1508,1865,o),
(1459,1799,cs),
(882,992,l),
(1188,180,ls),
(1214,112,o),
(1192,67,o),
(1133,36,cs),
(1068,3,o),
(969,15,o),
(940,93,cs),
(715,694,ls),
(701,733,o),
(696,733,o),
(669,695,cs),
(215,61,ls),
(168,-5,o),
(63,9,o),
(8,54,cs)
);
}
);
vertWidth = 0;
width = 1314;
}
);
metricLeft = X;
metricRight = X;
},
{
color = 10;
glyphname = Y.ss02;
layers = (
{
layerId = m01;
shapes = (
{
closed = 1;
nodes = (
(600,0,o),
(613,53,o),
(619,85,cs),
(778,992,l),
(1420,1866,ls),
(1437,1890,o),
(1448,1914,o),
(1448,1934,cs),
(1448,1974,o),
(1403,2008,o),
(1366,2008,cs),
(1333,2008,o),
(1304,1999,o),
(1279,1965,cs),
(713,1185,l),
(423,1940,ls),
(408,1979,o),
(377,2008,o),
(326,2008,cs),
(285,2008,o),
(246,1974,o),
(246,1937,cs),
(246,1916,o),
(250,1907,o),
(260,1882,cs),
(601,998,l),
(442,94,ls),
(433,42,o),
(461,0,o),
(521,0,cs)
);
},
{
closed = 1;
nodes = (
(473,20,o),
(454,48,o),
(462,91,cs),
(622,1000,l),
(278,1889,ls),
(268,1915,o),
(266,1920,o),
(266,1937,cs),
(266,1963,o),
(293,1988,o),
(326,1988,cs),
(369,1988,o),
(391,1967,o),
(404,1933,cs),
(701,1162,ls),
(707,1147,o),
(710,1147,o),
(721,1162,cs),
(1295,1953,ls),
(1316,1982,o),
(1337,1988,o),
(1366,1988,cs),
(1396,1988,o),
(1428,1962,o),
(1428,1934,cs),
(1428,1918,o),
(1420,1900,o),
(1404,1878,cs),
(759,1000,l),
(600,89,ls),
(595,58,o),
(584,20,o),
(521,20,cs)
);
}
);
vertWidth = 0;
width = 1113;
},
{
layerId = "140DECC1-64C4-40C0-9C07-503DBC3F4160";
shapes = (
{
closed = 1;
nodes = (
(715,-25,o),
(765,50,o),
(777,121,cs),
(924,967,l),
(1525,1764,ls),
(1552,1800,o),
(1565,1837,o),
(1565,1878,cs),
(1565,1973,o),
(1456,2028,o),
(1394,2028,cs),
(1339,2028,o),
(1285,2000,o),
(1251,1954,cs),
(797,1329,l),
(573,1920,ls),
(545,1993,o),
(499,2028,o),
(424,2028,cs),
(324,2028,o),
(240,1972,o),
(240,1894,cs),
(240,1859,o),
(246,1838,o),
(259,1803,cs),
(572,994,l),
(427,154,ls),
(410,56,o),
(485,-25,o),
(596,-25,cs)
);
},
{
closed = 1;
nodes = (
(506,15,o),
(454,71,o),
(467,148,cs),
(614,998,l),
(297,1817,ls),
(284,1850,o),
(280,1865,o),
(280,1894,cs),
(280,1948,o),
(339,1988,o),
(424,1988,cs),
(481,1988,o),
(512,1967,o),
(536,1904,cs),
(771,1282,ls),
(784,1248,o),
(788,1248,o),
(812,1282,cs),
(1283,1932,ls),
(1310,1969,o),
(1349,1988,o),
(1394,1988,cs),
(1444,1988,o),
(1525,1947,o),
(1525,1878,cs),
(1525,1846,o),
(1516,1819,o),
(1493,1788,cs),
(886,983,l),
(737,129,ls),
(726,68,o),
(691,15,o),
(596,15,cs)
);
}
);
vertWidth = 0;
width = 1222;
}
);
metricLeft = Y;
metricRight = Y;
},
{
color = 10;
glyphname = Z.ss02;
layers = (
{
layerId = m01;
shapes = (
{
closed = 1;
nodes = (
(1031,0,ls),
(1101,0,o),
(1121,45,o),
(1121,87,cs),
(1121,127,o),
(1100,162,o),
(1031,162,cs),
(166,162,l),
(1392,1864,ls),
(1408,1887,o),
(1420,1916,o),
(1420,1937,cs),
(1420,1983,o),
(1392,2008,o),
(1332,2008,cs),
(338,2008,ls),
(270,2008,o),
(249,1963,o),
(249,1924,cs),
(249,1881,o),
(270,1849,o),
(338,1849,cs),
(1179,1849,l),
(-56,135,ls),
(-72,112,o),
(-75,91,o),
(-75,74,cs),
(-75,38,o),
(-47,0,o),
(15,0,cs)
);
},
{
closed = 1;
nodes = (
(-37,20,o),
(-56,47,o),
(-56,74,cs),
(-56,89,o),
(-53,104,o),
(-40,123,cs),
(1203,1848,ls),
(1217,1867,o),
(1216,1869,o),
(1190,1869,cs),
(338,1869,ls),
(282,1869,o),
(269,1888,o),
(269,1924,cs),
(269,1957,o),
(283,1988,o),
(338,1988,cs),
(1332,1988,ls),
(1383,1988,o),
(1401,1973,o),
(1401,1937,cs),
(1401,1920,o),
(1392,1897,o),
(1376,1875,cs),
(145,167,ls),
(129,144,o),
(130,142,o),
(160,142,cs),
(1031,142,ls),
(1088,142,o),
(1102,120,o),
(1102,87,cs),
(1102,51,o),
(1087,20,o),
(1031,20,cs),
(15,20,ls)
);
}
);
vertWidth = 0;
width = 1205;
},
{
layerId = "140DECC1-64C4-40C0-9C07-503DBC3F4160";
shapes = (
{
closed = 1;
nodes = (
(1087,-20,ls),
(1197,-20,o),
(1261,50,o),
(1261,133,cs),
(1261,224,o),
(1189,298,o),
(1087,298,cs),
(430,298,l),
(1496,1760,ls),
(1528,1803,o),
(1539,1841,o),
(1539,1876,cs),
(1539,1963,o),
(1464,2028,o),
(1353,2028,cs),
(414,2028,ls),
(309,2028,o),
(240,1957,o),
(240,1865,cs),
(240,1782,o),
(303,1710,o),
(414,1710,cs),
(1045,1710,l),
(-39,228,ls),
(-59,200,o),
(-69,167,o),
(-69,135,cs),
(-69,71,o),
(-25,-20,o),
(128,-20,cs)
);
},
{
closed = 1;
nodes = (
(2,20,o),
(-29,83,o),
(-29,135,cs),
(-29,161,o),
(-23,183,o),
(-7,204,cs),
(1095,1712,ls),
(1121,1747,o),
(1119,1750,o),
(1072,1750,cs),
(414,1750,ls),
(324,1750,o),
(280,1800,o),
(280,1865,cs),
(280,1938,o),
(328,1988,o),
(414,1988,cs),
(1353,1988,ls),
(1446,1988,o),
(1499,1942,o),
(1499,1876,cs),
(1499,1848,o),
(1490,1820,o),
(1464,1784,cs),
(383,301,ls),
(354,261,o),
(355,258,o),
(408,258,cs),
(1087,258,ls),
(1170,258,o),
(1221,205,o),
(1221,133,cs),
(1221,68,o),
(1177,20,o),
(1087,20,cs),
(128,20,ls)
);
}
);
vertWidth = 0;
width = 1335;
}
);
metricLeft = Z;
metricRight = Z;
},
{
color = 7;
glyphname = A.ss04;
layers = (
{
layerId = m01;
shapes = (
{
closed = 1;
nodes = (
(94,0,o),
(111,25,o),
(141,83,cs),
(612,1008,l),
(1012,1008,l),
(1085,84,ls),
(1088,52,o),
(1100,0,o),
(1174,0,cs),
(1236,0,o),
(1257,39,o),
(1253,91,cs),
(1097,1943,ls),
(1094,1978,o),
(1069,2008,o),
(1012,2008,cs),
(936,2008,o),
(932,1968,o),
(911,1928,cs),
(-34,113,ls),
(-71,43,o),
(-24,0,o),
(29,0,cs)
);
},
{
closed = 1;
nodes = (
(-14,20,o),
(-46,49,o),
(-17,104,cs),
(929,1919,ls),
(952,1963,o),
(953,1988,o),
(1012,1988,cs),
(1058,1988,o),
(1075,1968,o),
(1077,1940,cs),
(1234,89,ls),
(1238,45,o),
(1223,20,o),
(1174,20,cs),
(1116,20,o),
(1107,55,o),
(1105,85,cs),
(1030,1028,l),
(600,1028,l),
(123,92,ls),
(94,36,o),
(83,20,o),
(29,20,cs)
);
},
{
closed = 1;
nodes = (
(999,1159,l),
(959,1689,l),
(690,1159,l)
);
},
{
closed = 1;
nodes = (
(949,1713,ls),
(968,1750,o),
(973,1750,o),
(976,1708,cs),
(1021,1140,l),
(657,1140,l)
);
},
{
closed = 1;
nodes = (
(1032,1874,o),
(1052,1894,o),
(1052,1919,cs),
(1052,1944,o),
(1032,1964,o),
(1007,1964,cs),
(982,1964,o),
(962,1944,o),
(962,1919,cs),
(962,1894,o),
(982,1874,o),
(1007,1874,cs)
);
}
);
vertWidth = 0;
width = 1372;
},
{
layerId = "140DECC1-64C4-40C0-9C07-503DBC3F4160";
shapes = (
{
closed = 1;
nodes = (
(202,-20,o),
(257,8,o),
(299,92,cs),
(659,803,l),
(1042,802,l),
(1098,124,ls),
(1105,37,o),
(1162,-20,o),
(1269,-20,cs),
(1365,-20,o),
(1438,35,o),
(1429,145,cs),
(1281,1864,ls),
(1272,1972,o),
(1192,2028,o),
(1087,2028,cs),
(977,2028,o),
(907,1976,o),
(874,1913,cs),
(-21,194,ls),
(-86,70,o),
(3,-20,o),
(112,-20,cs)
);
},
{
closed = 1;
nodes = (
(26,20,o),
(-36,78,o),
(15,176,cs),
(910,1895,ls),
(938,1949,o),
(992,1988,o),
(1087,1988,cs),
(1177,1988,o),
(1233,1948,o),
(1241,1860,cs),
(1389,141,ls),
(1396,56,o),
(1348,20,o),
(1269,20,cs),
(1181,20,o),
(1144,58,o),
(1138,126,cs),
(1078,842,l),
(635,843,l),
(263,110,ls),
(227,39,o),
(190,20,o),
(112,20,cs)
);
},
{
closed = 1;
nodes = (
(1016,1122,l),
(988,1451,l),
(821,1122,l)
);
},
{
closed = 1;
nodes = (
(971,1505,ls),
(1005,1571,o),
(1016,1576,o),
(1022,1509,cs),
(1058,1082,l),
(756,1082,l)
);
},
{
closed = 1;
nodes = (
(1107,1819,o),
(1134,1846,o),
(1134,1879,cs),
(1134,1912,o),
(1107,1939,o),
(1074,1939,cs),
(1041,1939,o),
(1014,1912,o),
(1014,1879,cs),
(1014,1846,o),
(1041,1819,o),
(1074,1819,cs)
);
}
);
vertWidth = 0;
width = 1536;
}
);
metricLeft = A;
metricRight = A;
},
{
color = 7;
glyphname = B.ss04;
layers = (
{
layerId = m01;
shapes = (
{
closed = 1;
nodes = (
(1045,0,o),
(1295,167,o),
(1348,509,cs),
(1391,787,o),
(1254,976,o),
(963,1077,c),
(1342,1138,o),
(1437,1279,o),
(1461,1469,cs),
(1508,1839,o),
(1189,2008,o),
(528,2008,cs),
(472,2008,o),
(440,1984,o),
(428,1918,cs),
(108,107,ls),
(99,55,o),
(125,0,o),
(174,0,cs)
);
},
{
closed = 1;
nodes = (
(139,20,o),
(119,60,o),
(127,103,cs),
(447,1914,ls),
(457,1972,o),
(480,1988,o),
(528,1988,cs),
(1182,1988,o),
(1485,1827,o),
(1441,1472,cs),
(1416,1270,o),
(1316,1136,o),
(870,1084,c),
(1214,994,o),
(1373,802,o),
(1329,511,cs),
(1279,180,o),
(1037,20,o),
(174,20,cs)
);
},
{
closed = 1;
nodes = (
(827,166,o),
(1137,246,o),
(1177,529,cs),
(1215,796,o),
(1002,999,o),
(443,1020,c),
(292,162,l)
);
},
{
closed = 1;
nodes = (
(426,1040,l),
(1008,1022,o),
(1237,807,o),
(1197,527,cs),
(1154,225,o),
(821,144,o),
(268,142,c)
);
},
{
closed = 1;
nodes = (
(1168,1169,o),
(1266,1287,o),
(1287,1476,cs),
(1316,1741,o),
(1051,1842,o),
(588,1849,c),
(467,1160,l)
);
},
{
closed = 1;
nodes = (
(572,1869,l),
(1049,1865,o),
(1340,1759,o),
(1307,1474,cs),
(1284,1274,o),
(1177,1147,o),
(444,1140,c)
);
},
{
closed = 1;
nodes = (
(546,1874,o),
(566,1894,o),
(566,1919,cs),
(566,1944,o),
(546,1964,o),
(521,1964,cs),
(496,1964,o),
(476,1944,o),
(476,1919,cs),
(476,1894,o),
(496,1874,o),
(521,1874,cs)
);
}
);
vertWidth = 0;
width = 1474;
},
{
layerId = "140DECC1-64C4-40C0-9C07-503DBC3F4160";
shapes = (
{
closed = 1;
nodes = (
(1180,-20,o),
(1508,62,o),
(1570,507,cs),
(1609,784,o),
(1493,954,o),
(1280,1063,c),
(1557,1146,o),
(1696,1292,o),
(1716,1455,cs),
(1764,1856,o),
(1394,2028,o),
(592,2028,cs),
(516,2028,o),
(443,2002,o),
(422,1884,cs),
(119,167,ls),
(100,61,o),
(177,-20,o),
(269,-20,cs)
);
},
{
closed = 1;
nodes = (
(198,20,o),
(144,76,o),
(159,161,cs),
(462,1878,ls),
(478,1970,o),
(526,1988,o),
(592,1988,cs),
(1382,1988,o),
(1719,1832,o),
(1676,1461,cs),
(1655,1285,o),
(1499,1147,o),
(1157,1073,c),
(1427,973,o),
(1572,807,o),
(1530,513,cs),
(1471,97,o),
(1172,20,o),
(269,20,cs)
);
},
{
closed = 1;
nodes = (
(1026,313,o),
(1195,373,o),
(1223,567,cs),
(1257,797,o),
(1107,898,o),
(608,917,c),
(499,299,l)
);
},
{
closed = 1;
nodes = (
(575,959,l),
(1118,942,o),
(1301,825,o),
(1263,561,cs),
(1231,336,o),
(1025,269,o),
(451,257,c)
);
},
{
closed = 1;
nodes = (
(1330,1234,o),
(1357,1377,o),
(1366,1476,cs),
(1377,1605,o),
(1281,1689,o),
(747,1706,c),
(659,1213,l)
);
},
{
closed = 1;
nodes = (
(713,1747,l),
(1295,1733,o),
(1420,1629,o),
(1406,1472,cs),
(1396,1365,o),
(1367,1188,o),
(612,1171,c)
);
},
{
closed = 1;
nodes = (
(608,1819,o),
(635,1846,o),
(635,1879,cs),
(635,1912,o),
(608,1939,o),
(575,1939,cs),
(542,1939,o),
(515,1912,o),
(515,1879,cs),
(515,1846,o),
(542,1819,o),
(575,1819,cs)
);
}
);
vertWidth = 0;
width = 1687;
}
);
metricLeft = B;
metricRight = B;
},
{
color = 7;
glyphname = C.ss04;
layers = (
{
layerId = m01;
shapes = (
{
closed = 1;
nodes = (
(1012,0,o),
(1221,139,o),
(1397,333,cs),
(1474,418,o),
(1482,459,o),
(1479,483,cs),
(1471,524,o),
(1440,546,o),
(1397,546,cs),
(1341,546,o),
(1322,490,o),
(1262,437,cs),
(1095,278,o),
(946,162,o),
(748,162,cs),
(534,162,o),
(313,430,o),
(400,938,cs),
(462,1290,o),
(606,1849,o),
(1134,1849,cs),
(1274,1849,o),
(1419,1786,o),
(1555,1644,cs),
(1601,1598,o),
(1649,1611,o),
(1677,1641,cs),
(1706,1673,o),
(1699,1721,o),
(1665,1757,cs),
(1521,1909,o),
(1330,2008,o),
(1137,2008,cs),
(480,2008,o),
(306,1380,o),
(228,944,cs),
(119,335,o),
(446,0,o),
(746,0,cs)
);
},
{
closed = 1;
nodes = (
(456,20,o),
(141,343,o),
(248,941,cs),
(325,1375,o),
(495,1988,o),
(1137,1988,cs),
(1325,1988,o),
(1504,1900,o),
(1653,1743,cs),
(1679,1718,o),
(1685,1677,o),
(1662,1654,cs),
(1641,1629,o),
(1606,1620,o),
(1569,1657,cs),
(1431,1803,o),
(1278,1869,o),
(1134,1869,cs),
(591,1869,o),
(442,1294,o),
(381,941,cs),
(292,422,o),
(523,142,o),
(748,142,cs),
(953,142,o),
(1108,263,o),
(1275,423,cs),
(1340,479,o),
(1354,526,o),
(1397,526,cs),
(1433,526,o),
(1453,511,o),
(1459,480,cs),
(1462,461,o),
(1455,427,o),
(1382,346,cs),
(1208,154,o),
(1005,20,o),
(746,20,cs)
);
},
{
closed = 1;
nodes = (
(1640,1650,o),
(1660,1670,o),
(1660,1695,cs),
(1660,1720,o),
(1640,1740,o),
(1615,1740,cs),
(1590,1740,o),
(1570,1720,o),
(1570,1695,cs),
(1570,1670,o),
(1590,1650,o),
(1615,1650,cs)
);
}
);
vertWidth = 0;
width = 1491;
},
{
layerId = "140DECC1-64C4-40C0-9C07-503DBC3F4160";
shapes = (
{
closed = 1;
nodes = (
(1114,-20,o),
(1384,103,o),
(1568,303,cs),
(1647,389,o),
(1679,435,o),
(1679,499,cs),
(1679,567,o),
(1627,626,o),
(1534,626,cs),
(1481,626,o),
(1413,607,o),
(1335,520,cs),
(1210,380,o),
(1034,298,o),
(861,298,cs),
(645,298,o),
(533,561,o),
(597,936,cs),
(685,1455,o),
(901,1710,o),
(1251,1710,cs),
(1388,1710,o),
(1480,1680,o),
(1576,1592,cs),
(1656,1521,o),
(1762,1487,o),
(1840,1565,cs),
(1921,1646,o),
(1875,1750,o),
(1792,1825,cs),
(1624,1977,o),
(1450,2028,o),
(1254,2028,cs),
(712,2028,o),
(375,1661,o),
(248,945,cs),
(152,394,o),
(412,-20,o),
(858,-20,cs)
);
},
{
closed = 1;
nodes = (
(437,20,o),
(195,405,o),
(288,939,cs),
(412,1640,o),
(732,1988,o),
(1254,1988,cs),
(1443,1988,o),
(1605,1941,o),
(1766,1795,cs),
(1840,1728,o),
(1872,1654,o),
(1812,1593,cs),
(1752,1534,o),
(1674,1558,o),
(1602,1622,cs),
(1500,1716,o),
(1395,1750,o),
(1251,1750,cs),
(880,1750,o),
(648,1475,o),
(557,942,cs),
(491,552,o),
(616,258,o),
(861,258,cs),
(1044,258,o),
(1233,347,o),
(1365,494,cs),
(1434,570,o),
(1488,586,o),
(1534,586,cs),
(1606,586,o),
(1639,549,o),
(1639,499,cs),
(1639,448,o),
(1615,414,o),
(1538,331,cs),
(1361,137,o),
(1104,20,o),
(858,20,cs)
);
},
{
closed = 1;
nodes = (
(1767,1612,o),
(1794,1639,o),
(1794,1672,cs),
(1794,1705,o),
(1767,1732,o),
(1734,1732,cs),
(1701,1732,o),
(1674,1705,o),
(1674,1672,cs),
(1674,1639,o),
(1701,1612,o),
(1734,1612,cs)
);
}
);
vertWidth = 0;
width = 1669;
}
);
metricLeft = C;
},
{
color = 7;
glyphname = D.ss04;
layers = (
{
layerId = m01;
shapes = (
{
closed = 1;
nodes = (
(385,0,ls),
(976,0,o),
(1475,377,o),
(1566,1062,cs),
(1647,1677,o),
(1208,2008,o),
(639,2008,cs),
(528,2008,ls),
(457,2008,o),
(437,1969,o),
(428,1918,cs),
(106,94,ls),
(97,41,o),
(123,0,o),
(185,0,cs)
);
},
{
closed = 1;
nodes = (
(135,20,o),
(117,47,o),
(125,90,cs),
(448,1914,ls),
(456,1961,o),
(470,1988,o),
(528,1988,cs),
(639,1988,ls),
(1200,1988,o),
(1625,1667,o),
(1546,1065,cs),
(1456,389,o),
(968,20,o),
(385,20,cs),
(185,20,ls)
);
},
{
closed = 1;
nodes = (
(385,162,ls),
(876,162,o),
(1320,471,o),
(1394,1085,cs),
(1450,1571,o),
(1115,1849,o),
(650,1849,cs),
(589,1849,l),
(291,162,l)
);
},
{
closed = 1;
nodes = (
(572,1869,l),
(650,1869,ls),
(1123,1869,o),
(1471,1581,o),
(1414,1083,cs),
(1338,459,o),
(883,142,o),
(385,142,cs),
(268,142,l)
);
},
{
closed = 1;
nodes = (
(546,1874,o),
(566,1894,o),
(566,1919,cs),
(566,1944,o),
(546,1964,o),
(521,1964,cs),
(496,1964,o),
(476,1944,o),
(476,1919,cs),
(476,1894,o),
(496,1874,o),
(521,1874,cs)
);
}
);
vertWidth = 0;
width = 1566;
},
{
layerId = "140DECC1-64C4-40C0-9C07-503DBC3F4160";
shapes = (
{
closed = 1;
nodes = (
(517,-20,ls),
(1149,-20,o),
(1680,451,o),
(1765,1082,cs),
(1845,1668,o),
(1457,2028,o),
(756,2028,cs),
(601,2028,ls),
(495,2028,o),
(439,1979,o),
(422,1885,cs),
(117,155,ls),
(100,59,o),
(170,-20,o),
(278,-20,cs)
);
},
{
closed = 1;
nodes = (
(191,20,o),
(144,74,o),
(157,147,cs),
(462,1877,ls),
(476,1956,o),
(513,1988,o),
(601,1988,cs),
(756,1988,ls),
(1438,1988,o),
(1802,1649,o),
(1725,1088,cs),
(1642,473,o),
(1131,20,o),
(517,20,cs),
(278,20,ls)
);
},
{
closed = 1;
nodes = (
(517,296,ls),
(981,296,o),
(1367,632,o),
(1426,1085,cs),
(1477,1476,o),
(1232,1712,o),
(772,1712,cs),
(748,1712,l),
(499,296,l)
);
},
{
closed = 1;
nodes = (
(714,1752,l),
(772,1752,ls),
(1251,1752,o),
(1520,1493,o),
(1466,1079,cs),
(1405,610,o),
(998,256,o),
(517,256,cs),
(451,256,l)
);
},
{
closed = 1;
nodes = (
(608,1819,o),
(635,1846,o),
(635,1879,cs),
(635,1912,o),
(608,1939,o),
(575,1939,cs),
(542,1939,o),
(515,1912,o),
(515,1879,cs),
(515,1846,o),
(542,1819,o),
(575,1819,cs)
);
}
);
vertWidth = 0;
width = 1791;
}
);
metricLeft = D;
metricRight = D;
},
{
color = 7;
glyphname = E.ss04;
layers = (
{
layerId = m01;
shapes = (
{
closed = 1;
nodes = (
(1213,0,ls),
(1282,0,o),
(1303,51,o),
(1303,90,cs),
(1303,130,o),
(1281,162,o),
(1213,162,cs),
(291,162,l),
(440,1005,l),
(1244,1005,ls),
(1314,1005,o),
(1334,1045,o),
(1333,1078,cs),
(1332,1120,o),
(1313,1160,o),
(1243,1160,cs),
(467,1160,l),
(589,1849,l),
(1512,1849,ls),
(1580,1849,o),
(1601,1881,o),
(1601,1924,cs),
(1601,1963,o),
(1581,2008,o),
(1512,2008,cs),
(531,2008,ls),
(457,2008,o),
(437,1968,o),
(428,1918,cs),
(106,94,ls),
(97,41,o),
(123,0,o),
(185,0,cs)
);
},
{
closed = 1;
nodes = (
(135,20,o),
(117,47,o),
(125,90,cs),
(448,1914,ls),
(456,1961,o),
(470,1988,o),
(531,1988,cs),
(1512,1988,ls),
(1567,1988,o),
(1582,1957,o),
(1582,1924,cs),
(1582,1888,o),
(1569,1869,o),
(1512,1869,cs),
(572,1869,l),
(443,1140,l),
(1243,1140,ls),
(1300,1140,o),
(1312,1114,o),
(1313,1078,cs),
(1314,1051,o),
(1301,1025,o),
(1244,1025,cs),
(423,1025,l),
(268,142,l),
(1213,142,ls),
(1270,142,o),
(1284,123,o),
(1284,90,cs),
(1284,56,o),
(1268,20,o),
(1213,20,cs),
(185,20,ls)
);
},
{
closed = 1;
nodes = (
(546,1874,o),
(566,1894,o),
(566,1919,cs),
(566,1944,o),
(546,1964,o),
(521,1964,cs),
(496,1964,o),
(476,1944,o),
(476,1919,cs),
(476,1894,o),
(496,1874,o),
(521,1874,cs)
);
}
);
vertWidth = 0;
width = 1444;
},
{
layerId = "140DECC1-64C4-40C0-9C07-503DBC3F4160";
shapes = (
{
closed = 1;
nodes = (
(1326,-20,ls),
(1427,-20,o),
(1499,37,o),
(1499,130,cs),
(1499,212,o),
(1443,296,o),
(1331,296,cs),
(499,296,l),
(606,910,l),
(1390,910,ls),
(1498,910,o),
(1576,978,o),
(1576,1063,cs),
(1576,1155,o),
(1506,1213,o),
(1405,1213,cs),
(660,1213,l),
(748,1712,l),
(1630,1712,ls),
(1734,1712,o),
(1809,1781,o),
(1809,1873,cs),
(1809,1962,o),
(1743,2028,o),
(1638,2028,cs),
(608,2028,ls),
(504,2028,o),
(441,1988,o),
(424,1892,cs),
(117,156,ls),
(100,61,o),
(147,-20,o),
(252,-20,cs)
);
},
{
closed = 1;
nodes = (
(173,20,o),
(143,72,o),
(157,150,cs),
(464,1884,ls),
(478,1962,o),
(518,1988,o),
(608,1988,cs),
(1638,1988,ls),
(1724,1988,o),
(1769,1943,o),
(1769,1873,cs),
(1769,1801,o),
(1716,1752,o),
(1630,1752,cs),
(714,1752,l),
(612,1173,l),
(1405,1173,ls),
(1489,1173,o),
(1536,1134,o),
(1536,1063,cs),
(1536,999,o),
(1480,950,o),
(1390,950,cs),
(572,950,l),
(451,256,l),
(1331,256,ls),
(1419,256,o),
(1459,197,o),
(1459,130,cs),
(1459,59,o),
(1410,20,o),
(1326,20,cs),
(252,20,ls)
);
},
{
closed = 1;
nodes = (
(608,1819,o),
(635,1846,o),
(635,1879,cs),
(635,1912,o),
(608,1939,o),
(575,1939,cs),
(542,1939,o),
(515,1912,o),
(515,1879,cs),
(515,1846,o),
(542,1819,o),
(575,1819,cs)
);
}
);
vertWidth = 0;
width = 1587;
}
);
metricLeft = E;
metricRight = E;
},
{
color = 7;
glyphname = F.ss04;
layers = (
{
layerId = m01;
shapes = (
{
closed = 1;
nodes = (
(260,0,o),
(271,54,o),
(277,86,cs),
(440,1005,l),
(1210,1005,ls),
(1280,1005,o),
(1300,1045,o),
(1300,1078,cs),
(1300,1120,o),
(1280,1160,o),
(1210,1160,cs),
(468,1160,l),
(589,1849,l),
(1481,1849,ls),
(1549,1849,o),
(1571,1881,o),
(1571,1924,cs),
(1571,1963,o),
(1550,2008,o),
(1481,2008,cs),
(531,2008,ls),
(457,2008,o),
(437,1968,o),
(428,1918,cs),
(106,94,ls),
(97,41,o),
(124,0,o),
(186,0,cs)
);
},
{
closed = 1;
nodes = (
(136,20,o),
(118,48,o),
(125,90,cs),
(448,1914,ls),
(456,1961,o),
(470,1988,o),
(531,1988,cs),
(1481,1988,ls),
(1537,1988,o),
(1551,1957,o),
(1551,1924,cs),
(1551,1888,o),
(1538,1869,o),
(1481,1869,cs),
(572,1869,l),
(444,1140,l),
(1210,1140,ls),
(1267,1140,o),
(1281,1114,o),
(1281,1078,cs),
(1281,1051,o),
(1267,1025,o),
(1210,1025,cs),
(423,1025,l),
(258,89,ls),
(253,59,o),
(244,20,o),
(186,20,cs)
);
},
{
closed = 1;
nodes = (
(546,1874,o),
(566,1894,o),
(566,1919,cs),
(566,1944,o),
(546,1964,o),
(521,1964,cs),
(496,1964,o),
(476,1944,o),
(476,1919,cs),
(476,1894,o),
(496,1874,o),
(521,1874,cs)
);
}
);
vertWidth = 0;
width = 1279;
},
{
layerId = "140DECC1-64C4-40C0-9C07-503DBC3F4160";
shapes = (
{
closed = 1;
nodes = (
(382,-20,o),
(457,53,o),
(475,156,cs),
(607,910,l),
(1376,910,ls),
(1486,910,o),
(1546,980,o),
(1546,1065,cs),
(1546,1154,o),
(1482,1213,o),
(1378,1213,cs),
(660,1213,l),
(748,1712,l),
(1595,1712,ls),
(1709,1712,o),
(1776,1792,o),
(1776,1868,cs),
(1776,1964,o),
(1710,2028,o),
(1605,2028,cs),
(602,2028,ls),
(496,2028,o),
(440,1985,o),
(423,1889,cs),
(120,170,ls),
(104,79,o),
(136,-20,o),
(275,-20,cs)
);
},
{
closed = 1;
nodes = (
(167,20,o),
(146,85,o),
(160,162,cs),
(463,1883,ls),
(477,1961,o),
(512,1988,o),
(602,1988,cs),
(1605,1988,ls),
(1691,1988,o),
(1736,1945,o),
(1736,1868,cs),
(1736,1809,o),
(1688,1752,o),
(1595,1752,cs),
(714,1752,l),
(612,1173,l),
(1378,1173,ls),
(1464,1173,o),
(1506,1134,o),
(1506,1065,cs),
(1506,997,o),
(1465,950,o),
(1376,950,cs),
(573,950,l),
(435,162,ls),
(420,75,o),
(364,20,o),
(275,20,cs)
);
},
{
closed = 1;
nodes = (
(608,1819,o),
(635,1846,o),
(635,1879,cs),
(635,1912,o),
(608,1939,o),
(575,1939,cs),
(542,1939,o),
(515,1912,o),
(515,1879,cs),
(515,1846,o),
(542,1819,o),
(575,1819,cs)
);
}
);
vertWidth = 0;
width = 1484;
}
);
metricLeft = F;
metricRight = F;
},
{
color = 7;
glyphname = G.ss04;
layers = (
{
layerId = m01;
shapes = (
{
closed = 1;
nodes = (
(908,-20,o),
(1077,95,o),
(1274,363,c),
(1230,94,ls),
(1224,55,o),
(1234,4,o),
(1301,0,cs),
(1381,-3,o),
(1398,56,o),
(1404,91,cs),
(1523,783,ls),
(1533,840,o),
(1517,877,o),
(1454,877,cs),
(1386,877,o),
(1352,829,o),
(1318,748,cs),
(1157,379,o),
(945,142,o),
(730,142,cs),
(462,142,o),
(324,487,o),
(400,938,cs),
(505,1545,o),
(751,1869,o),
(1134,1869,cs),
(1274,1869,o),
(1409,1809,o),
(1547,1666,cs),
(1590,1622,o),
(1638,1634,o),
(1667,1664,cs),
(1697,1695,o),
(1690,1749,o),
(1659,1780,cs),
(1508,1939,o),
(1330,2028,o),
(1137,2028,cs),
(660,2028,o),
(356,1648,o),
(228,944,cs),
(135,404,o),
(346,-20,o),
(727,-20,cs)
);
},
{
closed = 1;
nodes = (
(360,0,o),
(156,409,o),
(248,941,cs),
(374,1638,o),
(670,2008,o),
(1137,2008,cs),
(1325,2008,o),
(1496,1923,o),
(1645,1767,cs),
(1671,1740,o),
(1673,1701,o),
(1652,1677,cs),
(1630,1653,o),
(1596,1644,o),
(1561,1679,cs),
(1421,1826,o),
(1278,1889,o),
(1134,1889,cs),
(740,1889,o),
(486,1555,o),
(381,941,cs),
(303,483,o),
(447,122,o),
(730,122,cs),
(954,122,o),
(1174,367,o),
(1336,740,cs),
(1370,819,o),
(1397,857,o),
(1454,857,cs),
(1504,857,o),
(1512,836,o),
(1504,787,cs),
(1385,94,ls),
(1379,61,o),
(1366,17,o),
(1302,20,cs),
(1251,23,o),
(1245,56,o),
(1250,90,cs),
(1298,389,ls),
(1305,435,o),
(1298,432,o),
(1270,392,cs),
(1071,113,o),
(906,0,o),
(727,0,cs)
);
},
{
closed = 1;
nodes = (
(1630,1675,o),
(1650,1695,o),
(1650,1720,cs),
(1650,1745,o),
(1630,1765,o),
(1605,1765,cs),
(1580,1765,o),
(1560,1745,o),
(1560,1720,cs),
(1560,1695,o),
(1580,1675,o),
(1605,1675,cs)
);
}
);
vertWidth = 0;
width = 1668;
},
{
layerId = "140DECC1-64C4-40C0-9C07-503DBC3F4160";
shapes = (
{
closed = 1;
nodes = (
(993,-20,o),
(1138,72,o),
(1269,235,c),
(1257,174,ls),
(1236,65,o),
(1313,-1,o),
(1431,-1,cs),
(1551,-1,o),
(1585,65,o),
(1599,146,cs),
(1718,822,ls),
(1737,930,o),
(1676,1001,o),
(1568,1001,cs),
(1503,1001,o),
(1429,985,o),
(1346,832,cs),
(1190,560,o),
(996,298,o),
(796,298,cs),
(627,298,o),
(528,533,o),
(597,936,cs),
(685,1455,o),
(901,1710,o),
(1251,1710,cs),
(1388,1710,o),
(1480,1680,o),
(1576,1592,cs),
(1656,1521,o),
(1762,1487,o),
(1840,1565,cs),
(1921,1646,o),
(1875,1750,o),
(1792,1825,cs),
(1624,1977,o),
(1450,2028,o),
(1254,2028,cs),
(712,2028,o),
(375,1661,o),
(248,945,cs),
(144,351,o),
(380,-20,o),
(793,-20,cs)
);
},
{
closed = 1;
nodes = (
(404,20,o),
(187,363,o),
(288,939,cs),
(412,1640,o),
(732,1988,o),
(1254,1988,cs),
(1443,1988,o),
(1605,1941,o),
(1766,1795,cs),
(1840,1728,o),
(1872,1654,o),
(1812,1593,cs),
(1752,1534,o),
(1674,1558,o),
(1602,1622,cs),
(1500,1716,o),
(1395,1750,o),
(1251,1750,cs),
(880,1750,o),
(648,1475,o),
(557,942,cs),
(485,523,o),
(598,258,o),
(796,258,cs),
(1017,258,o),
(1223,537,o),
(1380,812,cs),
(1454,948,o),
(1508,961,o),
(1568,961,cs),
(1655,961,o),
(1693,915,o),
(1678,828,cs),
(1559,152,ls),
(1547,81,o),
(1525,39,o),
(1431,39,cs),
(1331,39,o),
(1282,82,o),
(1297,166,cs),
(1321,297,ls),
(1332,355,o),
(1312,360,o),
(1275,309,cs),
(1139,121,o),
(999,20,o),
(793,20,cs)
);
},
{
closed = 1;
nodes = (
(1767,1612,o),
(1794,1639,o),
(1794,1672,cs),
(1794,1705,o),
(1767,1732,o),
(1734,1732,cs),
(1701,1732,o),
(1674,1705,o),
(1674,1672,cs),
(1674,1639,o),
(1701,1612,o),
(1734,1612,cs)
);
}
);
vertWidth = 0;
width = 1864;
}
);
metricLeft = G;
metricRight = G;
},
{
color = 7;
glyphname = H.ss04;
layers = (
{
layerId = m01;
shapes = (
{
closed = 1;
nodes = (
(260,0,o),
(272,54,o),
(278,86,cs),
(440,1005,l),
(1294,1005,l),
(1136,94,ls),
(1129,55,o),
(1137,0,o),
(1215,0,cs),
(1282,0,o),
(1302,45,o),
(1307,76,cs),
(1630,1909,ls),
(1640,1966,o),
(1617,2008,o),
(1551,2008,cs),
(1488,2008,o),
(1459,1968,o),
(1453,1933,cs),
(1320,1160,l),
(467,1160,l),
(598,1901,ls),
(609,1963,o),
(589,2008,o),
(530,2008,cs),
(465,2008,o),
(437,1969,o),
(428,1918,cs),
(106,94,ls),
(97,41,o),
(124,0,o),
(185,0,cs)
);
},
{
closed = 1;
nodes = (
(135,20,o),
(117,47,o),
(125,90,cs),
(447,1914,ls),
(455,1960,o),
(476,1988,o),
(530,1988,cs),
(576,1988,o),
(588,1958,o),
(578,1904,cs),
(443,1140,l),
(1337,1140,l),
(1473,1929,ls),
(1478,1959,o),
(1500,1988,o),
(1551,1988,cs),
(1604,1988,o),
(1620,1961,o),
(1611,1912,cs),
(1288,79,ls),
(1283,52,o),
(1269,20,o),
(1215,20,cs),
(1155,20,o),
(1150,56,o),
(1156,90,cs),
(1317,1025,l),
(423,1025,l),
(258,89,ls),
(253,59,o),
(245,20,o),
(185,20,cs)
);
},
{
closed = 1;
nodes = (
(539,1874,o),
(559,1894,o),
(559,1919,cs),
(559,1944,o),
(539,1964,o),
(514,1964,cs),
(489,1964,o),
(469,1944,o),
(469,1919,cs),
(469,1894,o),
(489,1874,o),
(514,1874,cs)
);
}
);
vertWidth = 0;
width = 1574;
},
{
layerId = "140DECC1-64C4-40C0-9C07-503DBC3F4160";
shapes = (
{
closed = 1;
nodes = (
(402,-20,o),
(458,52,o),
(467,122,c),
(594,851,l),
(1275,851,l),
(1153,154,ls),
(1135,53,o),
(1200,-20,o),
(1313,-20,cs),
(1411,-20,o),
(1485,39,o),
(1500,110,c),
(1802,1848,ls),
(1822,1961,o),
(1748,2028,o),
(1641,2028,cs),
(1544,2028,o),
(1470,1975,o),
(1457,1897,cs),
(1330,1170,l),
(649,1170,l),
(766,1841,ls),
(787,1963,o),
(721,2028,o),
(621,2028,cs),
(531,2028,o),
(440,1985,o),
(422,1885,cs),
(118,155,ls),
(100,56,o),
(174,-20,o),
(283,-20,cs)
);
},
{
closed = 1;
nodes = (
(193,20,o),
(144,72,o),
(158,147,cs),
(462,1877,ls),
(476,1955,o),
(543,1988,o),
(621,1988,cs),
(702,1988,o),
(744,1946,o),
(726,1847,cs),
(601,1130,l),
(1364,1130,l),
(1497,1891,ls),
(1506,1950,o),
(1559,1988,o),
(1641,1988,cs),
(1729,1988,o),
(1778,1944,o),
(1762,1856,cs),
(1460,118,ls),
(1449,63,o),
(1395,20,o),
(1313,20,cs),
(1221,20,o),
(1178,68,o),
(1193,148,cs),
(1323,891,l),
(560,891,l),
(427,128,l),
(420,70,o),
(380,20,o),
(283,20,cs)
);
},
{
closed = 1;
nodes = (
(629,1819,o),
(656,1846,o),
(656,1879,cs),
(656,1912,o),
(629,1939,o),
(596,1939,cs),
(563,1939,o),
(536,1912,o),
(536,1879,cs),
(536,1846,o),
(563,1819,o),
(596,1819,cs)
);
}
);
vertWidth = 0;
width = 1753;
}
);
metricLeft = H;
metricRight = H;
},
{
color = 7;
glyphname = I.ss04;
layers = (
{
layerId = m01;
shapes = (
{
closed = 1;
nodes = (
(469,0,ls),
(539,0,o),
(559,40,o),
(559,79,cs),
(559,122,o),
(539,162,o),
(469,162,cs),
(428,162,l),
(725,1849,l),
(789,1849,ls),
(855,1849,o),
(876,1892,o),
(876,1931,cs),
(876,1971,o),
(855,2008,o),
(789,2008,cs),
(516,2008,ls),
(447,2008,o),
(427,1971,o),
(427,1931,cs),
(427,1892,o),
(447,1849,o),
(516,1849,cs),
(546,1849,l),
(252,162,l),
(184,162,ls),
(118,162,o),
(97,121,o),
(97,79,cs),
(97,40,o),
(118,0,o),
(184,0,cs)
);
},
{
closed = 1;
nodes = (
(131,20,o),
(117,46,o),
(117,79,cs),
(117,115,o),
(131,142,o),
(184,142,cs),
(269,142,l),
(570,1869,l),
(516,1869,ls),
(460,1869,o),
(446,1897,o),
(446,1931,cs),
(446,1965,o),
(460,1988,o),
(516,1988,cs),
(789,1988,ls),
(843,1988,o),
(856,1965,o),
(856,1931,cs),
(856,1897,o),
(842,1869,o),
(789,1869,cs),
(708,1869,l),
(405,142,l),
(469,142,ls),
(526,142,o),
(539,115,o),
(539,79,cs),
(539,46,o),
(526,20,o),
(469,20,cs),
(184,20,ls)
);
},
{
closed = 1;
nodes = (
(662,1822,o),
(682,1842,o),
(682,1867,cs),
(682,1892,o),
(662,1912,o),
(637,1912,cs),
(612,1912,o),
(592,1892,o),
(592,1867,cs),
(592,1842,o),
(612,1822,o),
(637,1822,cs)
);
}
);
vertWidth = 0;
width = 819;
},
{
layerId = "140DECC1-64C4-40C0-9C07-503DBC3F4160";
shapes = (
{
closed = 1;
nodes = (
(662,-20,ls),
(780,-20,o),
(819,54,o),
(830,132,cs),
(844,218,o),
(798,298,o),
(706,298,cs),
(612,298,l),
(857,1710,l),
(972,1710,ls),
(1083,1710,o),
(1134,1793,o),
(1148,1872,cs),
(1159,1961,o),
(1098,2028,o),
(1016,2028,cs),
(464,2028,ls),
(359,2028,o),
(308,1961,o),
(294,1878,cs),
(279,1795,o),
(336,1710,o),
(423,1710,cs),
(503,1710,l),
(259,298,l),
(157,298,ls),
(47,298,o),
(-7,221,o),
(-21,138,cs),
(-36,54,o),
(22,-20,o),
(113,-20,cs)
);
},
{
closed = 1;
nodes = (
(45,20,o),
(7,67,o),
(19,132,cs),
(31,203,o),
(69,258,o),
(157,258,cs),
(293,258,l),
(551,1750,l),
(423,1750,ls),
(361,1750,o),
(322,1807,o),
(334,1872,cs),
(346,1943,o),
(381,1988,o),
(464,1988,cs),
(1016,1988,ls),
(1077,1988,o),
(1117,1944,o),
(1108,1878,cs),
(1096,1809,o),
(1059,1750,o),
(972,1750,cs),
(823,1750,l),
(564,258,l),
(706,258,ls),
(773,258,o),
(802,207,o),
(790,138,cs),
(781,68,o),
(754,20,o),
(662,20,cs),
(113,20,ls)
);
},
{
closed = 1;
nodes = (
(712,1691,o),
(739,1718,o),
(739,1751,cs),
(739,1784,o),
(712,1811,o),
(679,1811,cs),
(646,1811,o),
(619,1784,o),
(619,1751,cs),
(619,1718,o),
(646,1691,o),
(679,1691,cs)
);
}
);
vertWidth = 0;
width = 863;
}
);
metricLeft = I;
metricRight = I;
},
{
color = 7;
glyphname = J.ss04;
layers = (
{
layerId = m01;
shapes = (
{
closed = 1;
nodes = (
(1,0,o),
(277,13,o),
(337,21,cs),
(758,83,o),
(841,461,o),
(922,915,cs),
(1088,1849,l),
(1479,1849,ls),
(1548,1849,o),
(1568,1888,o),
(1568,1929,cs),
(1568,1968,o),
(1548,2008,o),
(1479,2008,cs),
(549,2008,ls),
(480,2008,o),
(459,1968,o),
(459,1929,cs),
(459,1888,o),
(480,1849,o),
(549,1849,cs),
(914,1849,l),
(751,933,ls),
(689,586,o),
(638,234,o),
(347,184,cs),
(264,169,o),
(-20,162,o),
(-92,162,cs),
(-135,162,o),
(-179,132,o),
(-179,84,cs),
(-179,33,o),
(-135,0,o),
(-92,0,cs)
);
},
{
closed = 1;
nodes = (
(-127,20,o),
(-159,44,o),
(-159,84,cs),
(-159,121,o),
(-128,142,o),
(-92,142,cs),
(-20,142,o),
(266,150,o),
(350,165,cs),
(655,217,o),
(708,582,o),
(770,930,cs),
(937,1869,l),
(549,1869,ls),
(493,1869,o),
(479,1895,o),
(479,1929,cs),
(479,1962,o),
(493,1988,o),
(549,1988,cs),
(1479,1988,ls),
(1534,1988,o),
(1548,1962,o),
(1548,1929,cs),
(1548,1895,o),
(1535,1869,o),
(1479,1869,cs),
(1072,1869,l),
(902,919,ls),
(821,465,o),
(741,101,o),
(334,41,cs),
(275,33,o),
(1,20,o),
(-92,20,cs)
);
},
{
closed = 1;
nodes = (
(1028,1822,o),
(1048,1842,o),
(1048,1867,cs),
(1048,1892,o),
(1028,1912,o),
(1003,1912,cs),
(978,1912,o),
(958,1892,o),
(958,1867,cs),
(958,1842,o),
(978,1822,o),
(1003,1822,cs)
);
}
);
vertWidth = 0;
width = 1148;
},
{
layerId = "140DECC1-64C4-40C0-9C07-503DBC3F4160";
shapes = (
{
closed = 1;
nodes = (
(193,-20,o),
(463,-15,o),
(519,-7,cs),
(1097,63,o),
(1096,486,o),
(1170,904,cs),
(1313,1710,l),
(1611,1710,ls),
(1722,1710,o),
(1784,1782,o),
(1784,1873,cs),
(1784,1971,o),
(1714,2028,o),
(1613,2028,cs),
(724,2028,ls),
(618,2028,o),
(548,1968,o),
(548,1873,cs),
(548,1776,o),
(617,1710,o),
(719,1710,cs),
(958,1710,l),
(823,950,ls),
(765,623,o),
(740,343,o),
(507,314,cs),
(433,304,o),
(167,298,o),
(102,298,cs),
(17,298,o),
(-69,230,o),
(-69,138,cs),
(-69,42,o),
(18,-20,o),
(102,-20,cs)
);
},
{
closed = 1;
nodes = (
(33,20,o),
(-29,65,o),
(-29,138,cs),
(-29,208,o),
(34,258,o),
(102,258,cs),
(167,258,o),
(437,264,o),
(513,274,cs),
(777,307,o),
(805,617,o),
(863,944,cs),
(1006,1750,l),
(719,1750,ls),
(636,1750,o),
(588,1796,o),
(588,1873,cs),
(588,1947,o),
(635,1988,o),
(724,1988,cs),
(1613,1988,ls),
(1697,1988,o),
(1744,1950,o),
(1744,1873,cs),
(1744,1799,o),
(1701,1750,o),
(1611,1750,cs),
(1279,1750,l),
(1130,912,ls),
(1055,489,o),
(1058,99,o),
(513,33,cs),
(459,25,o),
(193,20,o),
(102,20,cs)
);
},
{
closed = 1;
nodes = (
(1172,1691,o),
(1199,1718,o),
(1199,1751,cs),
(1199,1784,o),
(1172,1811,o),
(1139,1811,cs),
(1106,1811,o),
(1079,1784,o),
(1079,1751,cs),
(1079,1718,o),
(1106,1691,o),
(1139,1691,cs)
);
}
);
vertWidth = 0;
width = 1552;
}
);
metricLeft = J;
metricRight = J;
},
{
color = 7;
glyphname = K.ss04;
layers = (
{
layerId = m01;
shapes = (
{
closed = 1;
nodes = (
(1264,0,o),
(1308,35,o),
(1308,79,cs),
(1308,106,o),
(1296,128,o),
(1270,163,cs),
(582,1075,l),
(1572,1846,ls),
(1610,1876,o),
(1632,1898,o),
(1632,1942,cs),
(1632,1971,o),
(1608,2008,o),
(1564,2008,cs),
(1535,2008,o),
(1500,1997,o),
(1462,1967,cs),
(475,1191,l),
(602,1901,ls),
(613,1961,o),
(598,2008,o),
(530,2008,cs),
(463,2008,o),
(440,1969,o),
(431,1917,cs),
(109,110,ls),
(100,58,o),
(126,0,o),
(188,0,cs),
(260,0,o),
(276,62,o),
(283,104,cs),
(439,988,l),
(1125,64,ls),
(1149,32,o),
(1177,0,o),
(1223,0,cs)
);
},
{
closed = 1;
nodes = (
(1186,20,o),
(1164,45,o),
(1141,75,cs),
(448,1009,ls),
(430,1034,o),
(427,1033,o),
(423,1008,cs),
(263,107,ls),
(256,66,o),
(245,20,o),
(188,20,cs),
(140,20,o),
(120,63,o),
(128,106,cs),
(450,1914,ls),
(458,1961,o),
(475,1988,o),
(530,1988,cs),
(582,1988,o),
(592,1959,o),
(582,1904,cs),
(453,1178,ls),
(448,1150,o),
(452,1148,o),
(480,1170,cs),
(1474,1952,ls),
(1510,1980,o),
(1539,1988,o),
(1562,1988,cs),
(1596,1988,o),
(1612,1964,o),
(1612,1942,cs),
(1612,1907,o),
(1597,1890,o),
(1560,1861,cs),
(554,1079,l),
(1254,151,ls),
(1279,118,o),
(1288,101,o),
(1288,79,cs),
(1288,46,o),
(1256,20,o),
(1223,20,cs)
);
},
{
closed = 1;
nodes = (
(543,1874,o),
(563,1894,o),
(563,1919,cs),
(563,1944,o),
(543,1964,o),
(518,1964,cs),
(493,1964,o),
(473,1944,o),
(473,1919,cs),
(473,1894,o),
(493,1874,o),
(518,1874,cs)
);
}
);
vertWidth = 0;
width = 1440;
},
{
layerId = "140DECC1-64C4-40C0-9C07-503DBC3F4160";
shapes = (
{
closed = 1;
nodes = (
(1412,-20,o),
(1483,58,o),
(1483,146,cs),
(1483,191,o),
(1467,241,o),
(1444,274,cs),
(894,1056,l),
(1721,1733,ls),
(1769,1772,o),
(1806,1823,o),
(1806,1888,cs),
(1806,1961,o),
(1751,2028,o),
(1648,2028,cs),
(1594,2028,o),
(1528,2010,o),
(1476,1967,cs),
(675,1313,l),
(770,1841,ls),
(795,1979,o),
(695,2028,o),
(613,2028,cs),
(527,2028,o),
(441,1984,o),
(423,1885,cs),
(119,169,ls),
(101,66,o),
(177,-20,o),
(287,-20,cs),
(392,-20,o),
(451,48,o),
(466,134,cs),
(596,865,l),
(1150,67,ls),
(1188,13,o),
(1254,-20,o),
(1317,-20,cs)
);
},
{
closed = 1;
nodes = (
(1265,20,o),
(1214,45,o),
(1184,89,cs),
(617,905,ls),
(582,955,o),
(571,952,o),
(561,895,cs),
(426,142,ls),
(413,69,o),
(372,20,o),
(287,20,cs),
(198,20,o),
(144,81,o),
(159,163,cs),
(463,1877,ls),
(477,1956,o),
(539,1988,o),
(613,1988,cs),
(683,1988,o),
(749,1955,o),
(730,1847,cs),
(630,1286,ls),
(619,1227,o),
(625,1219,o),
(688,1271,cs),
(1502,1935,ls),
(1547,1972,o),
(1601,1988,o),
(1648,1988,cs),
(1730,1988,o),
(1766,1944,o),
(1766,1888,cs),
(1766,1838,o),
(1739,1799,o),
(1695,1763,cs),
(840,1064,l),
(1410,252,ls),
(1430,223,o),
(1443,183,o),
(1443,146,cs),
(1443,76,o),
(1392,20,o),
(1317,20,cs)
);
},
{
closed = 1;
nodes = (
(628,1819,o),
(655,1846,o),
(655,1879,cs),
(655,1912,o),
(628,1939,o),
(595,1939,cs),
(562,1939,o),
(535,1912,o),
(535,1879,cs),
(535,1846,o),
(562,1819,o),
(595,1819,cs)
);
}
);
vertWidth = 0;
width = 1581;
}
);
metricLeft = K;
metricRight = K;
},
{
color = 7;
glyphname = L.ss04;
layers = (
{
layerId = m01;
shapes = (
{
closed = 1;
nodes = (
(1219,0,ls),
(1282,0,o),
(1308,50,o),
(1308,90,cs),
(1308,132,o),
(1280,162,o),
(1219,162,cs),
(295,162,l),
(603,1901,ls),
(613,1960,o),
(602,2008,o),
(531,2008,cs),
(463,2008,o),
(437,1969,o),
(428,1918,cs),
(109,94,ls),
(100,42,o),
(128,0,o),
(188,0,cs)
);
},
{
closed = 1;
nodes = (
(140,20,o),
(122,48,o),
(129,90,cs),
(447,1914,ls),
(455,1962,o),
(475,1988,o),
(531,1988,cs),
(585,1988,o),
(593,1959,o),
(583,1904,cs),
(271,142,l),
(1219,142,ls),
(1271,142,o),
(1288,122,o),
(1288,90,cs),
(1288,56,o),
(1269,20,o),
(1219,20,cs),
(188,20,ls)
);
},
{
closed = 1;
nodes = (
(545,1874,o),
(565,1894,o),
(565,1919,cs),
(565,1944,o),
(545,1964,o),
(520,1964,cs),
(495,1964,o),
(475,1944,o),
(475,1919,cs),
(475,1894,o),
(495,1874,o),
(520,1874,cs)
);
}
);
vertWidth = 0;
width = 1449;
},
{
layerId = "140DECC1-64C4-40C0-9C07-503DBC3F4160";
shapes = (
{
closed = 1;
nodes = (
(1339,-20,ls),
(1443,-20,o),
(1515,58,o),
(1515,143,cs),
(1515,227,o),
(1443,298,o),
(1339,298,cs),
(499,298,l),
(774,1841,ls),
(800,1987,o),
(709,2028,o),
(624,2028,cs),
(525,2028,o),
(442,1984,o),
(424,1885,cs),
(117,154,ls),
(100,56,o),
(167,-20,o),
(270,-20,cs)
);
},
{
closed = 1;
nodes = (
(188,20,o),
(143,71,o),
(157,148,cs),
(464,1877,ls),
(478,1956,o),
(537,1988,o),
(624,1988,cs),
(698,1988,o),
(754,1962,o),
(734,1847,cs),
(451,258,l),
(1339,258,ls),
(1424,258,o),
(1475,208,o),
(1475,143,cs),
(1475,76,o),
(1423,20,o),
(1339,20,cs),
(270,20,ls)
);
},
{
closed = 1;
nodes = (
(634,1819,o),
(661,1846,o),
(661,1879,cs),
(661,1912,o),
(634,1939,o),
(601,1939,cs),
(568,1939,o),
(541,1912,o),
(541,1879,cs),
(541,1846,o),
(568,1819,o),
(601,1819,cs)
);
}
);
vertWidth = 0;
width = 1598;
}
);
metricLeft = L;
metricRight = L;
},
{
color = 7;
glyphname = M.ss04;
layers = (
{
layerId = m01;
shapes = (
{
closed = 1;
nodes = (
(67,0,o),
(110,25,o),
(140,83,cs),
(956,1664,l),
(1074,83,ls),
(1076,51,o),
(1092,0,o),
(1169,0,cs),
(1235,0,o),
(1261,57,o),
(1273,80,cs),
(2094,1669,l),
(2215,84,ls),
(2218,51,o),
(2235,0,o),
(2308,0,cs),
(2363,0,o),
(2391,39,o),
(2387,91,cs),
(2237,1913,ls),
(2233,1965,o),
(2222,2008,o),
(2150,2008,cs),
(2077,2008,o),
(2056,1956,o),
(2038,1922,cs),
(1219,329,l),
(1097,1943,ls),
(1095,1968,o),
(1073,2008,o),
(1010,2008,cs),
(952,2008,o),
(929,1969,o),
(908,1928,cs),
(-30,130,ls),
(-71,51,o),
(-24,0,o),
(32,0,cs)
);
},
{
closed = 1;
nodes = (
(-14,20,o),
(-46,56,o),
(-12,121,cs),
(925,1919,ls),
(946,1959,o),
(964,1988,o),
(1010,1988,cs),
(1060,1988,o),
(1075,1961,o),
(1077,1941,cs),
(1200,310,ls),
(1203,268,o),
(1210,269,o),
(1230,308,cs),
(2056,1913,ls),
(2074,1947,o),
(2090,1988,o),
(2150,1988,cs),
(2207,1988,o),
(2213,1961,o),
(2217,1912,cs),
(2367,89,ls),
(2370,47,o),
(2351,20,o),
(2308,20,cs),
(2250,20,o),
(2237,56,o),
(2235,85,cs),
(2113,1689,ls),
(2110,1729,o),
(2105,1732,o),
(2083,1690,cs),
(1255,89,ls),
(1243,66,o),
(1222,20,o),
(1169,20,cs),
(1107,20,o),
(1096,55,o),
(1094,85,cs),
(974,1683,ls),
(971,1719,o),
(962,1721,o),
(940,1678,cs),
(123,92,ls),
(96,39,o),
(62,20,o),
(32,20,cs)
);
},
{
closed = 1;
nodes = (
(64,38,o),
(84,58,o),
(84,83,cs),
(84,108,o),
(64,128,o),
(39,128,cs),
(14,128,o),
(-6,108,o),
(-6,83,cs),
(-6,58,o),
(14,38,o),
(39,38,cs)
);
}
);
vertWidth = 0;
width = 2505;
},
{
layerId = "140DECC1-64C4-40C0-9C07-503DBC3F4160";
shapes = (
{
closed = 1;
nodes = (
(180,-20,o),
(274,11,o),
(315,92,cs),
(931,1300,l),
(1021,123,ls),
(1027,44,o),
(1090,-20,o),
(1194,-20,cs),
(1329,-20,o),
(1365,50,o),
(1384,87,cs),
(2010,1303,l),
(2095,124,ls),
(2100,48,o),
(2175,-20,o),
(2281,-20,cs),
(2381,-20,o),
(2450,52,o),
(2442,145,cs),
(2301,1875,ls),
(2293,1968,o),
(2270,2028,o),
(2146,2028,cs),
(2047,2028,o),
(1987,1987,o),
(1949,1913,cs),
(1312,681,l),
(1225,1874,ls),
(1218,1971,o),
(1175,2028,o),
(1036,2028,cs),
(941,2028,o),
(908,1984,o),
(872,1916,cs),
(-20,207,ls),
(-82,88,o),
(12,-20,o),
(117,-20,cs)
);
},
{
closed = 1;
nodes = (
(35,20,o),
(-33,95,o),
(16,189,cs),
(908,1898,ls),
(941,1961,o),
(962,1988,o),
(1036,1988,cs),
(1153,1988,o),
(1179,1954,o),
(1185,1872,cs),
(1275,634,ls),
(1281,552,o),
(1289,552,o),
(1332,634,cs),
(1985,1895,ls),
(2017,1957,o),
(2061,1988,o),
(2146,1988,cs),
(2242,1988,o),
(2254,1956,o),
(2261,1871,cs),
(2402,141,ls),
(2408,69,o),
(2362,20,o),
(2281,20,cs),
(2193,20,o),
(2139,69,o),
(2135,126,cs),
(2046,1363,ls),
(2041,1437,o),
(2035,1437,o),
(1994,1358,cs),
(1348,105,ls),
(1330,69,o),
(1304,20,o),
(1194,20,cs),
(1110,20,o),
(1066,64,o),
(1061,127,cs),
(968,1354,ls),
(962,1433,o),
(955,1432,o),
(915,1354,cs),
(279,110,ls),
(246,45,o),
(172,20,o),
(117,20,cs)
);
},
{
closed = 1;
nodes = (
(156,70,o),
(183,97,o),
(183,130,cs),
(183,163,o),
(156,190,o),
(123,190,cs),
(90,190,o),
(63,163,o),
(63,130,cs),
(63,97,o),
(90,70,o),
(123,70,cs)
);
}
);
vertWidth = 0;
width = 2547;
}
);
metricLeft = M;
metricRight = M;
},
{
color = 7;
glyphname = N.ss04;
layers = (
{
layerId = m01;
shapes = (
{
closed = 1;
nodes = (
(263,0,o),
(276,56,o),
(283,94,cs),
(555,1646,l),
(1134,61,ls),
(1146,29,o),
(1177,0,o),
(1225,0,cs),
(1298,0,o),
(1305,55,o),
(1310,86,cs),
(1629,1901,ls),
(1639,1960,o),
(1628,2008,o),
(1560,2008,cs),
(1495,2008,o),
(1469,1969,o),
(1460,1917,cs),
(1189,388,l),
(633,1940,ls),
(622,1970,o),
(587,2008,o),
(527,2008,cs),
(456,2008,o),
(437,1968,o),
(428,1918,cs),
(109,94,ls),
(100,42,o),
(128,0,o),
(188,0,cs)
);
},
{
closed = 1;
nodes = (
(139,20,o),
(121,48,o),
(128,90,cs),
(447,1914,ls),
(455,1962,o),
(470,1988,o),
(527,1988,cs),
(578,1988,o),
(605,1959,o),
(614,1933,cs),
(1179,356,ls),
(1191,322,o),
(1197,322,o),
(1203,356,cs),
(1480,1914,ls),
(1488,1960,o),
(1507,1988,o),
(1560,1988,cs),
(1611,1988,o),
(1620,1959,o),
(1610,1904,cs),
(1291,89,ls),
(1286,58,o),
(1281,20,o),
(1225,20,cs),
(1186,20,o),
(1163,41,o),
(1153,68,cs),
(565,1676,ls),
(552,1712,o),
(546,1712,o),
(540,1676,cs),
(263,97,ls),
(257,60,o),
(248,20,o),
(188,20,cs)
);
},
{
closed = 1;
nodes = (
(217,38,o),
(237,58,o),
(237,83,cs),
(237,108,o),
(217,128,o),
(192,128,cs),
(167,128,o),
(147,108,o),
(147,83,cs),
(147,58,o),
(167,38,o),
(192,38,cs)
);
}
);
vertWidth = 0;
width = 1575;
},
{
layerId = "140DECC1-64C4-40C0-9C07-503DBC3F4160";
shapes = (
{
closed = 1;
nodes = (
(383,-20,o),
(453,48,o),
(466,127,cs),
(658,1290,l),
(1167,78,ls),
(1194,15,o),
(1247,-20,o),
(1333,-20,cs),
(1451,-20,o),
(1487,52,o),
(1499,121,cs),
(1801,1840,ls),
(1820,1950,o),
(1763,2038,o),
(1648,2038,cs),
(1553,2038,o),
(1472,1983,o),
(1456,1884,cs),
(1263,710,l),
(753,1925,ls),
(722,2000,o),
(659,2028,o),
(589,2028,cs),
(502,2028,o),
(441,1979,o),
(424,1884,cs),
(117,155,ls),
(99,56,o),
(169,-20,o),
(269,-20,cs)
);
},
{
closed = 1;
nodes = (
(190,20,o),
(144,71,o),
(157,147,cs),
(464,1878,ls),
(478,1955,o),
(518,1988,o),
(589,1988,cs),
(647,1988,o),
(692,1968,o),
(717,1909,cs),
(1243,652,ls),
(1275,576,o),
(1281,576,o),
(1294,657,cs),
(1496,1878,ls),
(1509,1957,o),
(1568,1998,o),
(1648,1998,cs),
(1738,1998,o),
(1777,1939,o),
(1761,1848,cs),
(1459,129,ls),
(1448,66,o),
(1424,20,o),
(1333,20,cs),
(1261,20,o),
(1224,43,o),
(1203,94,cs),
(678,1348,ls),
(647,1422,o),
(640,1421,o),
(627,1344,cs),
(426,133,ls),
(416,70,o),
(365,20,o),
(269,20,cs)
);
},
{
closed = 1;
nodes = (
(316,70,o),
(343,97,o),
(343,130,cs),
(343,163,o),
(316,190,o),
(283,190,cs),
(250,190,o),
(223,163,o),
(223,130,cs),
(223,97,o),
(250,70,o),
(283,70,cs)
);
}
);
vertWidth = 0;
width = 1750;
}
);
metricLeft = N;
metricRight = N;
},
{
color = 7;
glyphname = O.ss04;
layers = (
{
layerId = m01;
shapes = (
{
closed = 1;
nodes = (
(1309,0,o),
(1547,790,o),
(1618,1192,cs),
(1709,1700,o),
(1543,2008,o),
(1100,2008,cs),
(550,2008,o),
(314,1443,o),
(241,1019,cs),
(156,519,o),
(239,0,o),
(777,0,cs)
);
},
{
closed = 1;
nodes = (
(256,20,o),
(176,520,o),
(261,1015,cs),
(333,1437,o),
(563,1988,o),
(1100,1988,cs),
(1530,1988,o),
(1688,1695,o),
(1598,1196,cs),
(1528,795,o),
(1294,20,o),
(777,20,cs)
);
},
{
closed = 1;
nodes = (
(346,627,o),
(376,162,o),
(774,162,cs),
(1122,162,o),
(1387,842,o),
(1446,1178,cs),
(1508,1524,o),
(1483,1849,o),
(1085,1849,cs),
(647,1849,o),
(458,1249,o),
(410,984,cs)
);
},
{
closed = 1;
nodes = (
(439,1254,o),
(632,1869,o),
(1085,1869,cs),
(1502,1869,o),
(1528,1524,o),
(1465,1175,cs),
(1406,836,o),
(1137,142,o),
(774,142,cs),
(357,142,o),
(326,628,o),
(391,988,cs)
);
},
{
closed = 1;
nodes = (
(1445,1779,o),
(1465,1799,o),
(1465,1824,cs),
(1465,1849,o),
(1445,1869,o),
(1420,1869,cs),
(1395,1869,o),
(1375,1849,o),
(1375,1824,cs),
(1375,1799,o),
(1395,1779,o),
(1420,1779,cs)
);
}
);
vertWidth = 0;
width = 1638;
},
{
layerId = "140DECC1-64C4-40C0-9C07-503DBC3F4160";
shapes = (
{
closed = 1;
nodes = (
(1341,-20,o),
(1695,447,o),
(1828,1193,cs),
(1917,1710,o),
(1747,2028,o),
(1217,2028,cs),
(702,2028,o),
(380,1687,o),
(261,1020,cs),
(149,382,o),
(389,-20,o),
(889,-20,cs)
);
},
{
closed = 1;
nodes = (
(414,20,o),
(192,394,o),
(301,1014,cs),
(417,1666,o),
(722,1988,o),
(1217,1988,cs),
(1720,1988,o),
(1875,1701,o),
(1788,1199,cs),
(1658,466,o),
(1319,20,o),
(889,20,cs)
);
},
{
closed = 1;
nodes = (
(531,548,o),
(637,298,o),
(887,298,cs),
(1157,298,o),
(1383,630,o),
(1478,1181,cs),
(1540,1529,o),
(1516,1710,o),
(1201,1710,cs),
(891,1710,o),
(695,1471,o),
(605,983,cs)
);
},
{
closed = 1;
nodes = (
(658,1491,o),
(870,1750,o),
(1201,1750,cs),
(1552,1750,o),
(1581,1532,o),
(1518,1175,cs),
(1421,612,o),
(1181,258,o),
(887,258,cs),
(609,258,o),
(489,540,o),
(565,989,cs)
);
},
{
closed = 1;
nodes = (
(1556,1735,o),
(1583,1762,o),
(1583,1795,cs),
(1583,1828,o),
(1556,1855,o),
(1523,1855,cs),
(1490,1855,o),
(1463,1828,o),
(1463,1795,cs),
(1463,1762,o),
(1490,1735,o),
(1523,1735,cs)
);
}
);
vertWidth = 0;
width = 1820;
}
);
metricLeft = O;
metricRight = O;
},
{
color = 7;
glyphname = P.ss04;
layers = (
{
layerId = m01;
shapes = (
{
closed = 1;
nodes = (
(76,0,o),
(87,55,o),
(92,86,cs),
(254,999,l),
(856,1004,o),
(1316,1071,o),
(1372,1493,cs),
(1419,1846,o),
(1007,2008,o),
(346,2008,cs),
(272,2008,o),
(252,1969,o),
(243,1918,cs),
(-79,94,ls),
(-88,42,o),
(-60,0,o),
(1,0,cs)
);
},
{
closed = 1;
nodes = (
(-48,20,o),
(-66,48,o),
(-59,90,cs),
(263,1914,ls),
(271,1961,o),
(285,1988,o),
(346,1988,cs),
(1001,1988,o),
(1396,1832,o),
(1352,1496,cs),
(1298,1085,o),
(845,1023,o),
(238,1018,c),
(73,89,ls),
(68,58,o),
(60,20,o),
(1,20,cs)
);
},
{
closed = 1;
nodes = (
(772,1167,o),
(1166,1230,o),
(1201,1512,cs),
(1225,1706,o),
(1000,1840,o),
(404,1849,c),
(283,1160,l)
);
},
{
closed = 1;
nodes = (
(387,1869,l),
(1003,1863,o),
(1245,1720,o),
(1219,1509,cs),
(1183,1206,o),
(761,1145,o),
(259,1140,c)
);
},
{
closed = 1;
nodes = (
(361,1874,o),
(381,1894,o),
(381,1919,cs),
(381,1944,o),
(361,1964,o),
(336,1964,cs),
(311,1964,o),
(291,1944,o),
(291,1919,cs),
(291,1894,o),
(311,1874,o),
(336,1874,cs)
);
}
);
vertWidth = 0;
width = 1209;
},
{
layerId = "140DECC1-64C4-40C0-9C07-503DBC3F4160";
shapes = (
{
closed = 1;
nodes = (
(397,-20,o),
(455,41,o),
(468,116,cs),
(604,893,l),
(1149,907,o),
(1658,920,o),
(1732,1441,cs),
(1794,1875,o),
(1369,2028,o),
(606,2028,cs),
(504,2028,o),
(439,1983,o),
(422,1885,cs),
(116,152,ls),
(99,56,o),
(168,-20,o),
(281,-20,cs)
);
},
{
closed = 1;
nodes = (
(189,20,o),
(143,71,o),
(156,144,cs),
(462,1877,ls),
(476,1957,o),
(519,1988,o),
(606,1988,cs),
(1359,1988,o),
(1750,1847,o),
(1692,1447,cs),
(1622,946,o),
(1124,944,o),
(570,933,c),
(428,124,ls),
(417,61,o),
(375,20,o),
(281,20,cs)
);
},
{
closed = 1;
nodes = (
(1058,1229,o),
(1365,1231,o),
(1393,1461,cs),
(1415,1638,o),
(1347,1716,o),
(749,1717,c),
(660,1213,l)
);
},
{
closed = 1;
nodes = (
(715,1757,l),
(1368,1759,o),
(1458,1658,o),
(1433,1457,cs),
(1400,1186,o),
(1037,1183,o),
(612,1171,c)
);
},
{
closed = 1;
nodes = (
(608,1819,o),
(635,1846,o),
(635,1879,cs),
(635,1912,o),
(608,1939,o),
(575,1939,cs),
(542,1939,o),
(515,1912,o),
(515,1879,cs),
(515,1846,o),
(542,1819,o),
(575,1819,cs)
);
}
);
vertWidth = 0;
width = 1624;
}
);
metricLeft = P;
metricRight = P;
},
{
color = 7;
glyphname = Q.ss04;
layers = (
{
layerId = m01;
shapes = (
{
closed = 1;
nodes = (
(860,-1,o),
(938,19,o),
(1007,53,c),
(1169,-182,ls),
(1203,-231,o),
(1257,-261,o),
(1301,-234,cs),
(1351,-207,o),
(1351,-141,o),
(1322,-101,cs),
(1149,151,l),
(1426,400,o),
(1567,898,o),
(1618,1191,cs),
(1709,1699,o),
(1543,2007,o),
(1100,2007,cs),
(550,2007,o),
(314,1442,o),
(241,1017,cs),
(156,518,o),
(239,-1,o),
(777,-1,cs)
);
},
{
closed = 1;
nodes = (
(256,19,o),
(176,519,o),
(261,1014,cs),
(333,1436,o),
(563,1987,o),
(1100,1987,cs),
(1530,1987,o),
(1688,1694,o),
(1598,1195,cs),
(1547,898,o),
(1404,395,o),
(1123,154,c),
(1306,-113,ls),
(1330,-146,o),
(1330,-196,o),
(1291,-217,cs),
(1257,-237,o),
(1216,-215,o),
(1186,-171,cs),
(1013,79,l),
(942,40,o),
(863,19,o),
(777,19,cs)
);
},
{
closed = 1;
nodes = (
(346,626,o),
(376,160,o),
(774,160,cs),
(821,160,o),
(866,173,o),
(910,195,c),
(851,281,ls),
(815,333,o),
(809,376,o),
(849,408,cs),
(898,448,o),
(959,426,o),
(993,378,cs),
(1046,301,l),
(1256,519,o),
(1404,937,o),
(1446,1177,cs),
(1508,1523,o),
(1483,1848,o),
(1085,1848,cs),
(647,1848,o),
(458,1248,o),
(410,983,cs)
);
},
{
closed = 1;
nodes = (
(439,1253,o),
(632,1868,o),
(1085,1868,cs),
(1502,1868,o),
(1528,1523,o),
(1465,1173,cs),
(1422,926,o),
(1265,486,o),
(1043,270,c),
(976,366,ls),
(947,408,o),
(901,425,o),
(862,392,cs),
(831,368,o),
(835,339,o),
(867,293,cs),
(938,189,l),
(887,158,o),
(831,140,o),
(774,140,cs),
(357,140,o),
(326,626,o),
(391,987,cs)
);
},
{
closed = 1;
nodes = (
(1445,1779,o),
(1465,1799,o),
(1465,1824,cs),
(1465,1849,o),
(1445,1869,o),
(1420,1869,cs),
(1395,1869,o),
(1375,1849,o),
(1375,1824,cs),
(1375,1799,o),
(1395,1779,o),
(1420,1779,cs)
);
}
);
vertWidth = 0;
width = 1638;
},
{
layerId = "140DECC1-64C4-40C0-9C07-503DBC3F4160";
shapes = (
{
closed = 1;
nodes = (
(955,-20,o),
(1020,-10,o),
(1082,9,c),
(1200,-164,ls),
(1261,-256,o),
(1369,-286,o),
(1447,-235,cs),
(1526,-185,o),
(1544,-84,o),
(1489,-2,cs),
(1365,181,l),
(1583,385,o),
(1747,737,o),
(1828,1193,cs),
(1917,1710,o),
(1747,2028,o),
(1217,2028,cs),
(702,2028,o),
(380,1687,o),
(261,1020,cs),
(149,382,o),
(389,-20,o),
(889,-20,cs)
);
},
{
closed = 1;
nodes = (
(414,20,o),
(192,394,o),
(301,1014,cs),
(417,1666,o),
(722,1988,o),
(1217,1988,cs),
(1720,1988,o),
(1875,1701,o),
(1788,1199,cs),
(1705,732,o),
(1537,382,o),
(1313,187,c),
(1455,-24,ls),
(1500,-91,o),
(1488,-162,o),
(1425,-201,cs),
(1365,-241,o),
(1285,-220,o),
(1234,-142,cs),
(1098,57,l),
(1030,32,o),
(961,20,o),
(889,20,cs)
);
},
{
closed = 1;
nodes = (
(531,548,o),
(637,298,o),
(887,298,cs),
(886,298,o),
(886,298,o),
(885,298,c),
(876,312,ls),
(821,392,o),
(835,499,o),
(911,552,cs),
(989,608,o),
(1098,579,o),
(1159,487,cs),
(1183,451,l),
(1317,601,o),
(1421,851,o),
(1478,1181,cs),
(1540,1529,o),
(1516,1710,o),
(1201,1710,cs),
(891,1710,o),
(695,1471,o),
(605,983,cs)
);
},
{
closed = 1;
nodes = (
(658,1491,o),
(870,1750,o),
(1201,1750,cs),
(1552,1750,o),
(1581,1532,o),
(1518,1175,cs),
(1455,812,o),
(1333,537,o),
(1178,388,c),
(1125,465,ls),
(1074,542,o),
(995,563,o),
(935,520,cs),
(875,478,o),
(864,400,o),
(908,334,cs),
(959,262,l),
(933,262,o),
(912,258,o),
(887,258,cs),
(609,258,o),
(489,540,o),
(565,989,cs)
);
},
{
closed = 1;
nodes = (
(1556,1735,o),
(1583,1762,o),
(1583,1795,cs),
(1583,1828,o),
(1556,1855,o),
(1523,1855,cs),
(1490,1855,o),
(1463,1828,o),
(1463,1795,cs),
(1463,1762,o),
(1490,1735,o),
(1523,1735,cs)
);
}
);
vertWidth = 0;
width = 1820;
}
);
metricLeft = Q;
metricRight = Q;
},
{
color = 7;
glyphname = R.ss04;
layers = (
{
layerId = m01;
shapes = (
{
closed = 1;
nodes = (
(261,0,o),
(272,56,o),
(280,103,cs),
(432,956,l),
(1139,58,ls),
(1172,16,o),
(1205,0,o),
(1232,0,cs),
(1305,0,o),
(1336,80,o),
(1267,168,cs),
(612,1002,l),
(1113,1022,o),
(1508,1119,o),
(1557,1492,cs),
(1603,1845,o),
(1203,2008,o),
(531,2008,cs),
(457,2008,o),
(437,1969,o),
(428,1918,cs),
(109,112,ls),
(99,56,o),
(124,0,o),
(186,0,cs)
);
},
{
closed = 1;
nodes = (
(138,20,o),
(121,60,o),
(129,108,cs),
(448,1914,ls),
(456,1961,o),
(470,1988,o),
(531,1988,cs),
(1196,1988,o),
(1580,1832,o),
(1537,1496,cs),
(1490,1132,o),
(1104,1041,o),
(601,1022,cs),
(576,1021,o),
(574,1015,o),
(588,997,cs),
(1252,155,ls),
(1312,79,o),
(1290,20,o),
(1232,20,cs),
(1211,20,o),
(1184,33,o),
(1154,71,cs),
(442,971,ls),
(421,997,o),
(418,995,o),
(413,966,cs),
(261,107,ls),
(253,61,o),
(245,20,o),
(186,20,cs)
);
},
{
closed = 1;
nodes = (
(954,1167,o),
(1349,1234,o),
(1386,1511,cs),
(1412,1710,o),
(1147,1840,o),
(589,1849,c),
(468,1160,l)
);
},
{
closed = 1;
nodes = (
(572,1869,l),
(1149,1863,o),
(1433,1725,o),
(1405,1508,cs),
(1366,1210,o),
(943,1145,o),
(444,1140,c)
);
},
{
closed = 1;
nodes = (
(546,1874,o),
(566,1894,o),
(566,1919,cs),
(566,1944,o),
(546,1964,o),
(521,1964,cs),
(496,1964,o),
(476,1944,o),
(476,1919,cs),
(476,1894,o),
(496,1874,o),
(521,1874,cs)
);
}
);
vertWidth = 0;
width = 1420;
},
{
layerId = "140DECC1-64C4-40C0-9C07-503DBC3F4160";
shapes = (
{
closed = 1;
nodes = (
(366,-20,o),
(455,57,o),
(473,161,cs),
(586,806,l),
(1161,57,ls),
(1215,-14,o),
(1293,-20,o),
(1334,-20,cs),
(1449,-20,o),
(1555,120,o),
(1425,289,cs),
(946,914,l),
(1349,963,o),
(1672,1105,o),
(1738,1473,cs),
(1810,1876,o),
(1369,2028,o),
(611,2028,cs),
(507,2028,o),
(439,1983,o),
(422,1885,cs),
(121,169,ls),
(104,70,o),
(146,-20,o),
(260,-20,cs)
);
},
{
closed = 1;
nodes = (
(174,20,o),
(146,78,o),
(161,163,cs),
(462,1877,ls),
(476,1957,o),
(521,1988,o),
(611,1988,cs),
(1360,1988,o),
(1763,1848,o),
(1698,1481,cs),
(1635,1124,o),
(1322,996,o),
(915,951,cs),
(873,946,o),
(869,940,o),
(900,901,cs),
(1395,263,ls),
(1505,121,o),
(1424,20,o),
(1334,20,cs),
(1297,20,o),
(1235,26,o),
(1191,83,cs),
(608,839,ls),
(567,892,o),
(563,888,o),
(553,834,cs),
(435,167,ls),
(420,80,o),
(349,20,o),
(260,20,cs)
);
},
{
closed = 1;
nodes = (
(1066,1228,o),
(1366,1301,o),
(1398,1487,cs),
(1422,1630,o),
(1278,1710,o),
(748,1710,c),
(660,1213,l)
);
},
{
closed = 1;
nodes = (
(714,1750,l),
(1286,1754,o),
(1469,1659,o),
(1438,1481,cs),
(1399,1257,o),
(1047,1182,o),
(612,1171,c)
);
},
{
closed = 1;
nodes = (
(608,1819,o),
(635,1846,o),
(635,1879,cs),
(635,1912,o),
(608,1939,o),
(575,1939,cs),
(542,1939,o),
(515,1912,o),
(515,1879,cs),
(515,1846,o),
(542,1819,o),
(575,1819,cs)
);
}
);
vertWidth = 0;
width = 1584;
}
);
metricLeft = R;
metricRight = R;
},
{
color = 7;
glyphname = S.ss04;
layers = (
{
layerId = m01;
shapes = (
{
closed = 1;
nodes = (
(975,0,o),
(1232,233,o),
(1232,610,cs),
(1232,807,o),
(1088,990,o),
(870,1144,cs),
(643,1300,o),
(509,1393,o),
(509,1530,cs),
(509,1727,o),
(695,1849,o),
(1001,1849,cs),
(1207,1849,o),
(1252,1793,o),
(1269,1683,cs),
(1275,1633,o),
(1346,1624,o),
(1384,1633,cs),
(1439,1648,o),
(1438,1699,o),
(1433,1731,cs),
(1396,1933,o),
(1267,2008,o),
(1004,2008,cs),
(594,2008,o),
(339,1821,o),
(339,1522,cs),
(339,1303,o),
(519,1184,o),
(735,1027,cs),
(976,855,o),
(1058,733,o),
(1058,589,cs),
(1058,323,o),
(871,162,o),
(563,162,cs),
(388,162,o),
(304,217,o),
(279,326,cs),
(268,373,o),
(220,392,o),
(179,380,cs),
(127,365,o),
(110,311,o),
(116,279,cs),
(147,96,o),
(317,0,o),
(563,0,cs)
);
},
{
closed = 1;
nodes = (
(323,20,o),
(165,109,o),
(135,282,cs),
(131,308,o),
(143,349,o),
(185,361,cs),
(217,371,o),
(251,358,o),
(259,322,cs),
(286,204,o),
(381,142,o),
(563,142,cs),
(880,142,o),
(1078,313,o),
(1078,589,cs),
(1078,739,o),
(991,869,o),
(746,1043,cs),
(530,1200,o),
(359,1313,o),
(359,1522,cs),
(359,1810,o),
(602,1988,o),
(1004,1988,cs),
(1260,1988,o),
(1378,1919,o),
(1414,1728,cs),
(1419,1698,o),
(1419,1663,o),
(1379,1652,cs),
(1346,1645,o),
(1293,1651,o),
(1289,1685,cs),
(1270,1802,o),
(1218,1869,o),
(1001,1869,cs),
(689,1869,o),
(489,1740,o),
(489,1530,cs),
(489,1383,o),
(632,1284,o),
(858,1128,cs),
(1074,976,o),
(1213,800,o),
(1213,610,cs),
(1213,243,o),
(966,20,o),
(563,20,cs)
);
},
{
closed = 1;
nodes = (
(1375,1672,o),
(1395,1692,o),
(1395,1717,cs),
(1395,1742,o),
(1375,1762,o),
(1350,1762,cs),
(1325,1762,o),
(1305,1742,o),
(1305,1717,cs),
(1305,1692,o),
(1325,1672,o),
(1350,1672,cs)
);
}
);
vertWidth = 0;
width = 1389;
},
{
layerId = "140DECC1-64C4-40C0-9C07-503DBC3F4160";
shapes = (
{
closed = 1;
nodes = (
(1034,-20,o),
(1366,269,o),
(1366,655,cs),
(1366,839,o),
(1296,977,o),
(973,1205,cs),
(816,1318,o),
(628,1422,o),
(628,1506,cs),
(628,1642,o),
(761,1710,o),
(1050,1710,cs),
(1180,1710,o),
(1237,1682,o),
(1248,1622,cs),
(1267,1513,o),
(1378,1488,o),
(1451,1510,cs),
(1539,1537,o),
(1570,1615,o),
(1556,1697,cs),
(1513,1935,o),
(1352,2028,o),
(1097,2028,cs),
(566,2028,o),
(289,1853,o),
(289,1506,cs),
(289,1199,o),
(580,1070,o),
(744,952,cs),
(972,785,o),
(1033,730,o),
(1033,622,cs),
(1033,438,o),
(871,298,o),
(647,298,cs),
(495,298,o),
(406,337,o),
(396,386,cs),
(375,492,o),
(269,510,o),
(198,496,cs),
(104,477,o),
(69,395,o),
(86,311,cs),
(122,106,o),
(319,-20,o),
(595,-20,cs)
);
},
{
closed = 1;
nodes = (
(333,20,o),
(158,132,o),
(126,319,c),
(111,388,o),
(135,442,o),
(206,456,cs),
(267,469,o),
(341,456,o),
(356,378,cs),
(372,306,o),
(484,258,o),
(647,258,cs),
(888,258,o),
(1073,417,o),
(1073,622,cs),
(1073,749,o),
(998,816,o),
(768,984,cs),
(600,1105,o),
(329,1225,o),
(329,1506,cs),
(329,1828,o),
(580,1988,o),
(1097,1988,cs),
(1339,1988,o),
(1477,1907,o),
(1516,1689,cs),
(1528,1623,o),
(1507,1568,o),
(1439,1548,cs),
(1378,1529,o),
(1301,1549,o),
(1288,1630,cs),
(1272,1712,o),
(1192,1750,o),
(1050,1750,cs),
(748,1750,o),
(588,1669,o),
(588,1506,cs),
(588,1396,o),
(794,1284,o),
(949,1173,cs),
(1263,952,o),
(1326,827,o),
(1326,655,cs),
(1326,290,o),
(1017,20,o),
(595,20,cs)
);
},
{
closed = 1;
nodes = (
(1438,1593,o),
(1465,1620,o),
(1465,1653,cs),
(1465,1686,o),
(1438,1713,o),
(1405,1713,cs),
(1372,1713,o),
(1345,1686,o),
(1345,1653,cs),
(1345,1620,o),
(1372,1593,o),
(1405,1593,cs)
);
}
);
vertWidth = 0;
width = 1475;
}
);
metricLeft = S;
metricRight = S;
},
{
color = 7;
glyphname = T.ss04;
layers = (
{
layerId = m01;
shapes = (
{
closed = 1;
nodes = (
(689,0,o),
(700,54,o),
(706,86,cs),
(1014,1849,l),
(1520,1849,ls),
(1586,1849,o),
(1607,1888,o),
(1607,1929,cs),
(1607,1968,o),
(1587,2008,o),
(1520,2008,cs),
(336,2008,ls),
(266,2008,o),
(246,1968,o),
(246,1929,cs),
(246,1888,o),
(267,1849,o),
(336,1849,cs),
(839,1849,l),
(535,94,l),
(523,42,o),
(551,0,o),
(614,0,cs)
);
},
{
closed = 1;
nodes = (
(563,20,o),
(545,48,o),
(555,90,c),
(863,1869,l),
(336,1869,ls),
(279,1869,o),
(266,1895,o),
(266,1929,cs),
(266,1962,o),
(280,1988,o),
(336,1988,cs),
(1520,1988,ls),
(1573,1988,o),
(1587,1962,o),
(1587,1929,cs),
(1587,1895,o),
(1574,1869,o),
(1520,1869,cs),
(997,1869,l),
(687,89,ls),
(682,58,o),
(673,20,o),
(614,20,cs)
);
},
{
closed = 1;
nodes = (
(953,1824,o),
(973,1844,o),
(973,1869,cs),
(973,1894,o),
(953,1914,o),
(928,1914,cs),
(903,1914,o),
(883,1894,o),
(883,1869,cs),
(883,1844,o),
(903,1824,o),
(928,1824,cs)
);
}
);
vertWidth = 0;
width = 1244;
},
{
layerId = "140DECC1-64C4-40C0-9C07-503DBC3F4160";
shapes = (
{
closed = 1;
nodes = (
(766,-23,o),
(825,44,o),
(840,116,c),
(1120,1720,l),
(1530,1720,ls),
(1641,1720,o),
(1704,1792,o),
(1704,1875,cs),
(1704,1967,o),
(1635,2038,o),
(1530,2038,cs),
(412,2038,ls),
(307,2038,o),
(238,1967,o),
(238,1875,cs),
(238,1792,o),
(301,1720,o),
(412,1720,cs),
(767,1720,l),
(491,155,ls),
(474,56,o),
(545,-23,o),
(654,-23,cs)
);
},
{
closed = 1;
nodes = (
(566,17,o),
(518,71,o),
(531,147,cs),
(815,1760,l),
(412,1760,ls),
(322,1760,o),
(278,1810,o),
(278,1875,cs),
(278,1948,o),
(326,1998,o),
(412,1998,cs),
(1530,1998,ls),
(1616,1998,o),
(1664,1948,o),
(1664,1875,cs),
(1664,1810,o),
(1620,1760,o),
(1530,1760,cs),
(1086,1760,l),
(800,124,ls),
(789,64,o),
(746,17,o),
(654,17,cs)
);
},
{
closed = 1;
nodes = (
(980,1691,o),
(1007,1718,o),
(1007,1751,cs),
(1007,1784,o),
(980,1811,o),
(947,1811,cs),
(914,1811,o),
(887,1784,o),
(887,1751,cs),
(887,1718,o),
(914,1691,o),
(947,1691,cs)
);
}
);
vertWidth = 0;
width = 1321;
}
);
metricLeft = T;
metricRight = T;
},
{
color = 7;
glyphname = U.ss04;
layers = (
{
layerId = m01;
shapes = (
{
closed = 1;
nodes = (
(693,-14,o),
(1062,385,o),
(1273,885,c),
(1136,93,ls),
(1125,29,o),
(1166,-4,o),
(1215,-4,cs),
(1254,-4,o),
(1298,23,o),
(1307,74,cs),
(1631,1915,ls),
(1640,1967,o),
(1616,2007,o),
(1549,2007,cs),
(1486,2007,o),
(1463,1966,o),
(1454,1926,c),
(1395,1587,l),
(1138,757,o),
(718,147,o),
(429,147,cs),
(296,147,o),
(325,363,o),
(361,559,cs),
(607,1910,ls),
(616,1959,o),
(585,2003,o),
(532,2007,cs),
(477,2007,o),
(441,1960,o),
(432,1908,cs),
(190,569,ls),
(117,164,o),
(215,-14,o),
(403,-14,cs)
);
},
{
closed = 1;
nodes = (
(228,6,o),
(139,169,o),
(210,565,cs),
(451,1905,ls),
(459,1951,o),
(488,1987,o),
(531,1987,cs),
(573,1984,o),
(594,1953,o),
(587,1913,cs),
(342,562,ls),
(306,365,o),
(272,128,o),
(429,128,cs),
(731,128,o),
(1156,749,o),
(1414,1583,c),
(1474,1923,ls),
(1480,1958,o),
(1498,1987,o),
(1549,1987,cs),
(1603,1987,o),
(1620,1961,o),
(1612,1918,cs),
(1287,78,ls),
(1280,36,o),
(1247,16,o),
(1215,16,cs),
(1174,16,o),
(1146,39,o),
(1155,89,cs),
(1298,911,ls),
(1310,981,o),
(1303,1000,o),
(1265,915,cs),
(1023,372,o),
(675,6,o),
(403,6,cs)
);
},
{
closed = 1;
nodes = (
(546,1874,o),
(566,1894,o),
(566,1919,cs),
(566,1944,o),
(546,1964,o),
(521,1964,cs),
(496,1964,o),
(476,1944,o),
(476,1919,cs),
(476,1894,o),
(496,1874,o),
(521,1874,cs)
);
}
);
vertWidth = 0;
width = 1574;
},
{
layerId = "140DECC1-64C4-40C0-9C07-503DBC3F4160";
shapes = (
{
closed = 1;
nodes = (
(745,-33,o),
(1000,146,o),
(1208,459,c),
(1154,154,ls),
(1133,38,o),
(1221,-20,o),
(1317,-20,cs),
(1393,-20,o),
(1485,20,o),
(1501,111,cs),
(1808,1857,ls),
(1825,1955,o),
(1758,2028,o),
(1642,2028,cs),
(1545,2028,o),
(1473,1975,o),
(1458,1894,cs),
(1419,1682,l),
(1184,812,o),
(861,285,o),
(581,285,cs),
(506,285,o),
(513,386,o),
(546,568,cs),
(775,1851,ls),
(793,1953,o),
(717,2028,o),
(615,2028,cs),
(504,2031,o),
(437,1937,o),
(426,1877,cs),
(197,607,ls),
(118,167,o),
(256,-33,o),
(495,-33,cs)
);
},
{
closed = 1;
nodes = (
(280,7,o),
(162,181,o),
(237,599,cs),
(466,1869,ls),
(475,1919,o),
(526,1991,o),
(615,1988,cs),
(698,1988,o),
(749,1936,o),
(735,1859,cs),
(506,576,ls),
(472,388,o),
(462,245,o),
(581,245,cs),
(887,245,o),
(1221,794,o),
(1459,1674,c),
(1498,1888,ls),
(1509,1950,o),
(1560,1988,o),
(1642,1988,cs),
(1737,1988,o),
(1782,1940,o),
(1768,1863,cs),
(1461,117,ls),
(1449,50,o),
(1383,20,o),
(1317,20,cs),
(1237,20,o),
(1178,59,o),
(1194,148,cs),
(1264,550,ls),
(1277,622,o),
(1263,628,o),
(1221,556,cs),
(1013,202,o),
(750,7,o),
(495,7,cs)
);
},
{
closed = 1;
nodes = (
(634,1819,o),
(661,1846,o),
(661,1879,cs),
(661,1912,o),
(634,1939,o),
(601,1939,cs),
(568,1939,o),
(541,1912,o),
(541,1879,cs),
(541,1846,o),
(568,1819,o),
(601,1819,cs)
);
}
);
vertWidth = 0;
width = 1754;
}
);
metricLeft = U;
metricRight = U;
},
{
color = 7;
glyphname = V.ss04;
layers = (
{
layerId = m01;
shapes = (
{
closed = 1;
nodes = (
(505,0,o),
(520,40,o),
(541,83,cs),
(1437,1896,ls),
(1472,1966,o),
(1429,2008,o),
(1377,2008,cs),
(1313,2008,o),
(1286,1982,o),
(1260,1928,cs),
(495,347,l),
(421,1926,ls),
(419,1959,o),
(403,2008,o),
(326,2008,cs),
(265,2008,o),
(244,1968,o),
(247,1917,cs),
(347,94,ls),
(349,53,o),
(379,0,o),
(439,0,cs)
);
},
{
closed = 1;
nodes = (
(392,20,o),
(369,60,o),
(367,96,cs),
(267,1918,ls),
(265,1962,o),
(278,1988,o),
(326,1988,cs),
(389,1988,o),
(401,1955,o),
(402,1925,cs),
(477,314,ls),
(479,273,o),
(481,273,o),
(500,312,cs),
(1278,1919,ls),
(1302,1969,o),
(1321,1988,o),
(1377,1988,cs),
(1419,1988,o),
(1447,1960,o),
(1419,1904,cs),
(523,92,ls),
(501,48,o),
(492,20,o),
(439,20,cs)
);
},
{
closed = 1;
nodes = (
(357,1874,o),
(377,1894,o),
(377,1919,cs),
(377,1944,o),
(357,1964,o),
(332,1964,cs),
(307,1964,o),
(287,1944,o),
(287,1919,cs),
(287,1894,o),
(307,1874,o),
(332,1874,cs)
);
}
);
vertWidth = 0;
width = 1114;
},
{
layerId = "140DECC1-64C4-40C0-9C07-503DBC3F4160";
shapes = (
{
closed = 1;
nodes = (
(610,-25,o),
(658,34,o),
(688,95,cs),
(1538,1817,ls),
(1598,1939,o),
(1519,2028,o),
(1406,2028,cs),
(1309,2028,o),
(1245,1987,o),
(1211,1917,cs),
(633,724,l),
(578,1887,ls),
(574,1968,o),
(508,2028,o),
(399,2028,cs),
(301,2028,o),
(233,1971,o),
(239,1867,cs),
(337,134,ls),
(342,49,o),
(412,-25,o),
(511,-25,cs)
);
},
{
closed = 1;
nodes = (
(431,15,o),
(381,68,o),
(377,136,cs),
(279,1869,ls),
(274,1950,o),
(318,1988,o),
(399,1988,cs),
(490,1988,o),
(535,1947,o),
(538,1885,cs),
(596,673,ls),
(600,579,o),
(611,586,o),
(653,673,cs),
(1247,1901,ls),
(1274,1957,o),
(1323,1988,o),
(1406,1988,cs),
(1496,1988,o),
(1549,1931,o),
(1502,1835,cs),
(652,113,ls),
(624,56,o),
(589,15,o),
(511,15,cs)
);
},
{
closed = 1;
nodes = (
(442,1819,o),
(469,1846,o),
(469,1879,cs),
(469,1912,o),
(442,1939,o),
(409,1939,cs),
(376,1939,o),
(349,1912,o),
(349,1879,cs),
(349,1846,o),
(376,1819,o),
(409,1819,cs)
);
}
);
vertWidth = 0;
width = 1322;
}
);
metricLeft = V;
metricRight = V;
},
{
color = 7;
glyphname = W.ss04;
layers = (
{
layerId = m01;
shapes = (
{
closed = 1;
nodes = (
(492,0,o),
(519,53,o),
(535,86,cs),
(1306,1677,l),
(1387,69,ls),
(1389,22,o),
(1418,0,o),
(1477,0,cs),
(1520,0,o),
(1550,30,o),
(1576,83,cs),
(2470,1896,ls),
(2504,1966,o),
(2461,2008,o),
(2399,2008,cs),
(2351,2008,o),
(2317,1980,o),
(2292,1928,cs),
(1533,360,l),
(1453,1927,ls),
(1451,1959,o),
(1430,2008,o),
(1350,2008,cs),
(1296,2008,o),
(1259,1952,o),
(1249,1930,cs),
(488,351,l),
(411,1926,ls),
(409,1959,o),
(393,2008,o),
(316,2008,cs),
(254,2008,o),
(233,1968,o),
(236,1917,cs),
(336,94,ls),
(339,41,o),
(374,0,o),
(434,0,cs)
);
},
{
closed = 1;
nodes = (
(385,20,o),
(359,50,o),
(356,96,cs),
(256,1918,ls),
(254,1962,o),
(267,1988,o),
(316,1988,cs),
(378,1988,o),
(390,1955,o),
(391,1925,cs),
(470,318,ls),
(472,283,o),
(478,285,o),
(495,321,cs),
(1267,1921,ls),
(1277,1942,o),
(1307,1988,o),
(1350,1988,cs),
(1415,1988,o),
(1432,1954,o),
(1433,1925,cs),
(1514,339,ls),
(1516,295,o),
(1524,297,o),
(1544,338,cs),
(2309,1919,ls),
(2332,1967,o),
(2359,1988,o),
(2399,1988,cs),
(2451,1988,o),
(2480,1960,o),
(2452,1904,cs),
(1558,91,ls),
(1534,43,o),
(1512,20,o),
(1477,20,cs),
(1426,20,o),
(1409,33,o),
(1407,70,cs),
(1323,1706,ls),
(1321,1748,o),
(1316,1744,o),
(1297,1705,cs),
(517,94,ls),
(501,62,o),
(480,20,o),
(434,20,cs)
);
},
{
closed = 1;
nodes = (
(344,1874,o),
(364,1894,o),
(364,1919,cs),
(364,1944,o),
(344,1964,o),
(319,1964,cs),
(294,1964,o),
(274,1944,o),
(274,1919,cs),
(274,1894,o),
(294,1874,o),
(319,1874,cs)
);
}
);
vertWidth = 0;
width = 2146;
},
{
layerId = "140DECC1-64C4-40C0-9C07-503DBC3F4160";
shapes = (
{
closed = 1;
nodes = (
(584,-20,o),
(647,23,o),
(683,95,cs),
(1277,1292,l),
(1357,137,ls),
(1364,40,o),
(1433,-20,o),
(1528,-20,cs),
(1604,-20,o),
(1671,24,o),
(1708,100,cs),
(2550,1817,ls),
(2610,1939,o),
(2518,2028,o),
(2413,2028,cs),
(2306,2028,o),
(2247,1970,o),
(2218,1910,cs),
(1651,734,l),
(1569,1887,ls),
(1563,1973,o),
(1502,2028,o),
(1383,2028,cs),
(1268,2028,o),
(1235,1960,o),
(1216,1921,cs),
(628,719,l),
(578,1887,ls),
(575,1967,o),
(512,2028,o),
(402,2028,cs),
(304,2028,o),
(234,1971,o),
(239,1867,cs),
(330,134,ls),
(335,40,o),
(408,-20,o),
(517,-20,cs)
);
},
{
closed = 1;
nodes = (
(425,20,o),
(374,62,o),
(370,136,cs),
(279,1869,ls),
(275,1950,o),
(321,1988,o),
(402,1988,cs),
(493,1988,o),
(535,1947,o),
(538,1885,cs),
(590,656,ls),
(593,575,o),
(602,578,o),
(640,655,cs),
(1252,1903,ls),
(1271,1942,o),
(1293,1988,o),
(1383,1988,cs),
(1484,1988,o),
(1524,1952,o),
(1529,1885,cs),
(1615,669,ls),
(1620,595,o),
(1626,593,o),
(1663,669,cs),
(2254,1892,ls),
(2279,1944,o),
(2324,1988,o),
(2413,1988,cs),
(2496,1988,o),
(2560,1928,o),
(2514,1835,cs),
(1672,118,ls),
(1640,54,o),
(1590,20,o),
(1528,20,cs),
(1450,20,o),
(1402,62,o),
(1397,139,cs),
(1314,1344,ls),
(1309,1421,o),
(1297,1422,o),
(1259,1345,cs),
(647,113,ls),
(617,53,o),
(570,20,o),
(517,20,cs)
);
},
{
closed = 1;
nodes = (
(442,1819,o),
(469,1846,o),
(469,1879,cs),
(469,1912,o),
(442,1939,o),
(409,1939,cs),
(376,1939,o),
(349,1912,o),
(349,1879,cs),
(349,1846,o),
(376,1819,o),
(409,1819,cs)
);
}
);
vertWidth = 0;
width = 2333;
}
);
metricLeft = W;
metricRight = W;
},
{
color = 7;
glyphname = X.ss04;
layers = (
{
layerId = m01;
shapes = (
{
closed = 1;
nodes = (
(-14,-11,o),
(51,-13,o),
(88,38,cs),
(659,825,l),
(944,66,ls),
(968,1,o),
(1036,-11,o),
(1079,11,cs),
(1114,29,o),
(1128,70,o),
(1109,121,cs),
(781,992,l),
(1417,1866,ls),
(1453,1916,o),
(1445,1967,o),
(1415,1990,cs),
(1380,2019,o),
(1315,2017,o),
(1277,1965,cs),
(709,1185,l),
(422,1945,ls),
(399,2007,o),
(343,2020,o),
(300,2004,cs),
(257,1988,o),
(241,1944,o),
(264,1882,cs),
(588,1018,l),
(-58,132,ls),
(-89,90,o),
(-81,44,o),
(-52,20,cs)
);
},
{
closed = 1;
nodes = (
(-62,54,o),
(-67,87,o),
(-43,120,cs),
(610,1015,l),
(282,1889,ls),
(262,1942,o),
(273,1974,o),
(307,1986,cs),
(341,2000,o),
(383,1990,o),
(403,1938,cs),
(694,1168,ls),
(702,1147,o),
(705,1147,o),
(722,1170,cs),
(1293,1954,ls),
(1324,1996,o),
(1375,1998,o),
(1402,1974,cs),
(1425,1957,o),
(1432,1920,o),
(1401,1878,cs),
(759,995,l),
(1091,114,ls),
(1107,71,o),
(1097,43,o),
(1070,29,cs),
(1034,10,o),
(983,20,o),
(963,73,cs),
(673,844,ls),
(666,863,o),
(663,863,o),
(650,845,cs),
(72,50,ls),
(41,8,o),
(-8,10,o),
(-39,36,cs)
);
},
{
closed = 1;
nodes = (
(364,1874,o),
(384,1894,o),
(384,1919,cs),
(384,1944,o),
(364,1964,o),
(339,1964,cs),
(314,1964,o),
(294,1944,o),
(294,1919,cs),
(294,1894,o),
(314,1874,o),
(339,1874,cs)
);
}
);
vertWidth = 0;
width = 1204;
},
{
layerId = "140DECC1-64C4-40C0-9C07-503DBC3F4160";
shapes = (
{
closed = 1;
nodes = (
(49,-31,o),
(185,-49,o),
(247,37,cs),
(687,653,l),
(902,79,ls),
(941,-24,o),
(1073,-40,o),
(1151,0,cs),
(1224,38,o),
(1261,109,o),
(1226,194,cs),
(926,986,l),
(1491,1775,ls),
(1552,1857,o),
(1536,1934,o),
(1472,1989,cs),
(1410,2046,o),
(1285,2048,o),
(1222,1963,cs),
(787,1358,l),
(570,1932,ls),
(532,2031,o),
(419,2045,o),
(341,2019,cs),
(251,1987,o),
(216,1910,o),
(257,1803,cs),
(548,1026,l),
(-29,225,ls),
(-81,153,o),
(-82,81,o),
(-18,24,cs)
);
},
{
closed = 1;
nodes = (
(-40,97,o),
(-40,142,o),
(3,201,cs),
(592,1020,l),
(295,1817,ls),
(261,1906,o),
(283,1956,o),
(355,1981,cs),
(421,2004,o),
(504,1993,o),
(532,1918,cs),
(759,1316,ls),
(773,1278,o),
(778,1279,o),
(805,1316,cs),
(1254,1939,ls),
(1303,2006,o),
(1396,2004,o),
(1446,1959,cs),
(1498,1914,o),
(1508,1865,o),
(1459,1799,cs),
(882,992,l),
(1188,180,ls),
(1214,112,o),
(1192,67,o),
(1133,36,cs),
(1068,3,o),
(969,15,o),
(940,93,cs),
(715,694,ls),
(701,733,o),
(696,733,o),
(669,695,cs),
(215,61,ls),
(168,-5,o),
(63,9,o),
(8,54,cs)
);
},
{
closed = 1;
nodes = (
(449,1819,o),
(476,1846,o),
(476,1879,cs),
(476,1912,o),
(449,1939,o),
(416,1939,cs),
(383,1939,o),
(356,1912,o),
(356,1879,cs),
(356,1846,o),
(383,1819,o),
(416,1819,cs)
);
}
);
vertWidth = 0;
width = 1314;
}
);
metricLeft = X;
metricRight = X;
},
{
color = 7;
glyphname = Y.ss04;
layers = (
{
layerId = m01;
shapes = (
{
closed = 1;
nodes = (
(600,0,o),
(613,53,o),
(619,85,cs),
(778,992,l),
(1420,1866,ls),
(1437,1890,o),
(1448,1914,o),
(1448,1934,cs),
(1448,1974,o),
(1403,2008,o),
(1366,2008,cs),
(1333,2008,o),
(1304,1999,o),
(1279,1965,cs),
(713,1185,l),
(423,1940,ls),
(408,1979,o),
(377,2008,o),
(326,2008,cs),
(285,2008,o),
(246,1974,o),
(246,1937,cs),
(246,1916,o),
(250,1907,o),
(260,1882,cs),
(601,998,l),
(442,94,ls),
(433,42,o),
(461,0,o),
(521,0,cs)
);
},
{
closed = 1;
nodes = (
(473,20,o),
(454,48,o),
(462,91,cs),
(622,1000,l),
(278,1889,ls),
(268,1915,o),
(266,1920,o),
(266,1937,cs),
(266,1963,o),
(293,1988,o),
(326,1988,cs),
(369,1988,o),
(391,1967,o),
(404,1933,cs),
(701,1162,ls),
(707,1147,o),
(710,1147,o),
(721,1162,cs),
(1295,1953,ls),
(1316,1982,o),
(1337,1988,o),
(1366,1988,cs),
(1396,1988,o),
(1428,1962,o),
(1428,1934,cs),
(1428,1918,o),
(1420,1900,o),
(1404,1878,cs),
(759,1000,l),
(600,89,ls),
(595,58,o),
(584,20,o),
(521,20,cs)
);
},
{
closed = 1;
nodes = (
(360,1874,o),
(380,1894,o),
(380,1919,cs),
(380,1944,o),
(360,1964,o),
(335,1964,cs),
(310,1964,o),
(290,1944,o),
(290,1919,cs),
(290,1894,o),
(310,1874,o),
(335,1874,cs)
);
}
);
vertWidth = 0;
width = 1113;
},
{
layerId = "140DECC1-64C4-40C0-9C07-503DBC3F4160";
shapes = (
{
closed = 1;
nodes = (
(715,-25,o),
(765,50,o),
(777,121,cs),
(924,967,l),
(1525,1764,ls),
(1552,1800,o),
(1565,1837,o),
(1565,1878,cs),
(1565,1973,o),
(1456,2028,o),
(1394,2028,cs),
(1339,2028,o),
(1285,2000,o),
(1251,1954,cs),
(797,1329,l),
(573,1920,ls),
(545,1993,o),
(499,2028,o),
(424,2028,cs),
(324,2028,o),
(240,1972,o),
(240,1894,cs),
(240,1859,o),
(246,1838,o),
(259,1803,cs),
(572,994,l),
(427,154,ls),
(410,56,o),
(485,-25,o),
(596,-25,cs)
);
},
{
closed = 1;
nodes = (
(506,15,o),
(454,71,o),
(467,148,cs),
(614,998,l),
(297,1817,ls),
(284,1850,o),
(280,1865,o),
(280,1894,cs),
(280,1948,o),
(339,1988,o),
(424,1988,cs),
(481,1988,o),
(512,1967,o),
(536,1904,cs),
(771,1282,ls),
(784,1248,o),
(788,1248,o),
(812,1282,cs),
(1283,1932,ls),
(1310,1969,o),
(1349,1988,o),
(1394,1988,cs),
(1444,1988,o),
(1525,1947,o),
(1525,1878,cs),
(1525,1846,o),
(1516,1819,o),
(1493,1788,cs),
(886,983,l),
(737,129,ls),
(726,68,o),
(691,15,o),
(596,15,cs)
);
},
{
closed = 1;
nodes = (
(448,1819,o),
(475,1846,o),
(475,1879,cs),
(475,1912,o),
(448,1939,o),
(415,1939,cs),
(382,1939,o),
(355,1912,o),
(355,1879,cs),
(355,1846,o),
(382,1819,o),
(415,1819,cs)
);
}
);
vertWidth = 0;
width = 1222;
}
);
metricLeft = Y;
metricRight = Y;
},
{
color = 7;
glyphname = Z.ss04;
layers = (
{
layerId = m01;
shapes = (
{
closed = 1;
nodes = (
(1031,0,ls),
(1101,0,o),
(1121,45,o),
(1121,87,cs),
(1121,127,o),
(1100,162,o),
(1031,162,cs),
(166,162,l),
(1392,1864,ls),
(1408,1887,o),
(1420,1916,o),
(1420,1937,cs),
(1420,1983,o),
(1392,2008,o),
(1332,2008,cs),
(338,2008,ls),
(270,2008,o),
(249,1963,o),
(249,1924,cs),
(249,1881,o),
(270,1849,o),
(338,1849,cs),
(1179,1849,l),
(-56,135,ls),
(-72,112,o),
(-75,91,o),
(-75,74,cs),
(-75,38,o),
(-47,0,o),
(15,0,cs)
);
},
{
closed = 1;
nodes = (
(-37,20,o),
(-56,47,o),
(-56,74,cs),
(-56,89,o),
(-53,104,o),
(-40,123,cs),
(1203,1848,ls),
(1217,1867,o),
(1216,1869,o),
(1190,1869,cs),
(338,1869,ls),
(282,1869,o),
(269,1888,o),
(269,1924,cs),
(269,1957,o),
(283,1988,o),
(338,1988,cs),
(1332,1988,ls),
(1383,1988,o),
(1401,1973,o),
(1401,1937,cs),
(1401,1920,o),
(1392,1897,o),
(1376,1875,cs),
(145,167,ls),
(129,144,o),
(130,142,o),
(160,142,cs),
(1031,142,ls),
(1088,142,o),
(1102,120,o),
(1102,87,cs),
(1102,51,o),
(1087,20,o),
(1031,20,cs),
(15,20,ls)
);
},
{
closed = 1;
nodes = (
(369,1881,o),
(389,1901,o),
(389,1926,cs),
(389,1951,o),
(369,1971,o),
(344,1971,cs),
(319,1971,o),
(299,1951,o),
(299,1926,cs),
(299,1901,o),
(319,1881,o),
(344,1881,cs)
);
}
);
vertWidth = 0;
width = 1205;
},
{
layerId = "140DECC1-64C4-40C0-9C07-503DBC3F4160";
shapes = (
{
closed = 1;
nodes = (
(1087,-20,ls),
(1197,-20,o),
(1261,50,o),
(1261,133,cs),
(1261,224,o),
(1189,298,o),
(1087,298,cs),
(430,298,l),
(1496,1760,ls),
(1528,1803,o),
(1539,1841,o),
(1539,1876,cs),
(1539,1963,o),
(1464,2028,o),
(1353,2028,cs),
(414,2028,ls),
(309,2028,o),
(240,1957,o),
(240,1865,cs),
(240,1782,o),
(303,1710,o),
(414,1710,cs),
(1045,1710,l),
(-39,228,ls),
(-59,200,o),
(-69,167,o),
(-69,135,cs),
(-69,71,o),
(-25,-20,o),
(128,-20,cs)
);
},
{
closed = 1;
nodes = (
(2,20,o),
(-29,83,o),
(-29,135,cs),
(-29,161,o),
(-23,183,o),
(-7,204,cs),
(1095,1712,ls),
(1121,1747,o),
(1119,1750,o),
(1072,1750,cs),
(414,1750,ls),
(324,1750,o),
(280,1800,o),
(280,1865,cs),
(280,1938,o),
(328,1988,o),
(414,1988,cs),
(1353,1988,ls),
(1446,1988,o),
(1499,1942,o),
(1499,1876,cs),
(1499,1848,o),
(1490,1820,o),
(1464,1784,cs),
(383,301,ls),
(354,261,o),
(355,258,o),
(408,258,cs),
(1087,258,ls),
(1170,258,o),
(1221,205,o),
(1221,133,cs),
(1221,68,o),
(1177,20,o),
(1087,20,cs),
(128,20,ls)
);
},
{
closed = 1;
nodes = (
(448,1819,o),
(475,1846,o),
(475,1879,cs),
(475,1912,o),
(448,1939,o),
(415,1939,cs),
(382,1939,o),
(355,1912,o),
(355,1879,cs),
(355,1846,o),
(382,1819,o),
(415,1819,cs)
);
}
);
vertWidth = 0;
width = 1335;
}
);
metricLeft = Z;
metricRight = Z;
},
{
color = 6;
glyphname = A.ss05;
layers = (
{
layerId = m01;
shapes = (
{
closed = 1;
nodes = (
(94,0,o),
(111,25,o),
(141,83,cs),
(612,1008,l),
(1012,1008,l),
(1085,84,ls),
(1088,52,o),
(1100,0,o),
(1174,0,cs),
(1236,0,o),
(1257,39,o),
(1253,91,cs),
(1097,1943,ls),
(1094,1978,o),
(1069,2008,o),
(1012,2008,cs),
(936,2008,o),
(932,1968,o),
(911,1928,cs),
(-34,113,ls),
(-71,43,o),
(-24,0,o),
(29,0,cs)
);
},
{
closed = 1;
nodes = (
(-14,20,o),
(-46,49,o),
(-17,104,cs),
(929,1919,ls),
(952,1963,o),
(953,1988,o),
(1012,1988,cs),
(1058,1988,o),
(1075,1968,o),
(1077,1940,cs),
(1234,89,ls),
(1238,45,o),
(1223,20,o),
(1174,20,cs),
(1116,20,o),
(1107,55,o),
(1105,85,cs),
(1030,1028,l),
(600,1028,l),
(123,92,ls),
(94,36,o),
(83,20,o),
(29,20,cs)
);
},
{
closed = 1;
nodes = (
(999,1159,l),
(959,1689,l),
(690,1159,l)
);
},
{
closed = 1;
nodes = (
(949,1713,ls),
(968,1750,o),
(973,1750,o),
(976,1708,cs),
(1021,1140,l),
(657,1140,l)
);
},
{
closed = 1;
nodes = (
(1032,1874,o),
(1052,1894,o),
(1052,1919,cs),
(1052,1944,o),
(1032,1964,o),
(1007,1964,cs),
(982,1964,o),
(962,1944,o),
(962,1919,cs),
(962,1894,o),
(982,1874,o),
(1007,1874,cs)
);
},
{
closed = 1;
nodes = (
(837,1666,l),
(826,1596,l),
(876,1647,l),
(864,1652,l),
(961,1843,l),
(946,1851,l),
(849,1660,l)
);
}
);
vertWidth = 0;
width = 1372;
},
{
layerId = "140DECC1-64C4-40C0-9C07-503DBC3F4160";
shapes = (
{
closed = 1;
nodes = (
(202,-20,o),
(257,8,o),
(299,92,cs),
(659,803,l),
(1042,802,l),
(1098,124,ls),
(1105,37,o),
(1162,-20,o),
(1269,-20,cs),
(1365,-20,o),
(1438,35,o),
(1429,145,cs),
(1281,1864,ls),
(1272,1972,o),
(1192,2028,o),
(1087,2028,cs),
(977,2028,o),
(907,1976,o),
(874,1913,cs),
(-21,194,ls),
(-86,70,o),
(3,-20,o),
(112,-20,cs)
);
},
{
closed = 1;
nodes = (
(26,20,o),
(-36,78,o),
(15,176,cs),
(910,1895,ls),
(938,1949,o),
(992,1988,o),
(1087,1988,cs),
(1177,1988,o),
(1233,1948,o),
(1241,1860,cs),
(1389,141,ls),
(1396,56,o),
(1348,20,o),
(1269,20,cs),
(1181,20,o),
(1144,58,o),
(1138,126,cs),
(1078,842,l),
(635,843,l),
(263,110,ls),
(227,39,o),
(190,20,o),
(112,20,cs)
);
},
{
closed = 1;
nodes = (
(1016,1122,l),
(988,1451,l),
(821,1122,l)
);
},
{
closed = 1;
nodes = (
(971,1505,ls),
(1005,1571,o),
(1016,1576,o),
(1022,1509,cs),
(1058,1082,l),
(756,1082,l)
);
},
{
closed = 1;
nodes = (
(1092,1819,o),
(1119,1846,o),
(1119,1879,cs),
(1119,1912,o),
(1092,1939,o),
(1059,1939,cs),
(1026,1939,o),
(999,1912,o),
(999,1879,cs),
(999,1846,o),
(1026,1819,o),
(1059,1819,cs)
);
},
{
closed = 1;
nodes = (
(877,1617,l),
(871,1546,l),
(925,1594,l),
(914,1599,l),
(1011,1790,l),
(986,1802,l),
(889,1611,l)
);
}
);
vertWidth = 0;
width = 1536;
}
);
metricLeft = A;
metricRight = A;
},
{
color = 6;
glyphname = B.ss05;
layers = (
{
layerId = m01;
shapes = (
{
closed = 1;
nodes = (
(1045,0,o),
(1295,167,o),
(1348,509,cs),
(1391,787,o),
(1254,976,o),
(963,1077,c),
(1342,1138,o),
(1437,1279,o),
(1461,1469,cs),
(1508,1839,o),
(1189,2008,o),
(528,2008,cs),
(472,2008,o),
(440,1984,o),
(428,1918,cs),
(108,107,ls),
(99,55,o),
(125,0,o),
(174,0,cs)
);
},
{
closed = 1;
nodes = (
(139,20,o),
(119,60,o),
(127,103,cs),
(447,1914,ls),
(457,1972,o),
(480,1988,o),
(528,1988,cs),
(1182,1988,o),
(1485,1827,o),
(1441,1472,cs),
(1416,1270,o),
(1316,1136,o),
(870,1084,c),
(1214,994,o),
(1373,802,o),
(1329,511,cs),
(1279,180,o),
(1037,20,o),
(174,20,cs)
);
},
{
closed = 1;
nodes = (
(827,166,o),
(1137,246,o),
(1177,529,cs),
(1215,796,o),
(1002,999,o),
(443,1020,c),
(292,162,l)
);
},
{
closed = 1;
nodes = (
(426,1040,l),
(1008,1022,o),
(1237,807,o),
(1197,527,cs),
(1154,225,o),
(821,144,o),
(268,142,c)
);
},
{
closed = 1;
nodes = (
(1168,1169,o),
(1266,1287,o),
(1287,1476,cs),
(1316,1741,o),
(1051,1842,o),
(588,1849,c),
(467,1160,l)
);
},
{
closed = 1;
nodes = (
(572,1869,l),
(1049,1865,o),
(1340,1759,o),
(1307,1474,cs),
(1284,1274,o),
(1177,1147,o),
(444,1140,c)
);
},
{
closed = 1;
nodes = (
(542,1874,o),
(562,1894,o),
(562,1919,cs),
(562,1944,o),
(542,1964,o),
(517,1964,cs),
(492,1964,o),
(472,1944,o),
(472,1919,cs),
(472,1894,o),
(492,1874,o),
(517,1874,cs)
);
},
{
closed = 1;
nodes = (
(443,1626,l),
(453,1556,l),
(486,1619,l),
(473,1621,l),
(510,1832,l),
(493,1835,l),
(456,1624,l)
);
}
);
vertWidth = 0;
width = 1474;
},
{
layerId = "140DECC1-64C4-40C0-9C07-503DBC3F4160";
shapes = (
{
closed = 1;
nodes = (
(1180,-20,o),
(1508,62,o),
(1570,507,cs),
(1609,784,o),
(1493,954,o),
(1280,1063,c),
(1557,1146,o),
(1696,1292,o),
(1716,1455,cs),
(1764,1856,o),
(1394,2028,o),
(592,2028,cs),
(516,2028,o),
(443,2002,o),
(422,1884,cs),
(119,167,ls),
(100,61,o),
(177,-20,o),
(269,-20,cs)
);
},
{
closed = 1;
nodes = (
(198,20,o),
(144,76,o),
(159,161,cs),
(462,1878,ls),
(478,1970,o),
(526,1988,o),
(592,1988,cs),
(1382,1988,o),
(1719,1832,o),
(1676,1461,cs),
(1655,1285,o),
(1499,1147,o),
(1157,1073,c),
(1427,973,o),
(1572,807,o),
(1530,513,cs),
(1471,97,o),
(1172,20,o),
(269,20,cs)
);
},
{
closed = 1;
nodes = (
(1026,313,o),
(1195,373,o),
(1223,567,cs),
(1257,797,o),
(1107,898,o),
(608,917,c),
(499,299,l)
);
},
{
closed = 1;
nodes = (
(575,959,l),
(1118,942,o),
(1301,825,o),
(1263,561,cs),
(1231,336,o),
(1025,269,o),
(451,257,c)
);
},
{
closed = 1;
nodes = (
(1330,1234,o),
(1357,1377,o),
(1366,1476,cs),
(1377,1605,o),
(1281,1689,o),
(747,1706,c),
(659,1213,l)
);
},
{
closed = 1;
nodes = (
(713,1747,l),
(1295,1733,o),
(1420,1629,o),
(1406,1472,cs),
(1396,1365,o),
(1367,1188,o),
(612,1171,c)
);
},
{
closed = 1;
nodes = (
(627,1816,o),
(654,1843,o),
(654,1876,cs),
(654,1909,o),
(627,1936,o),
(594,1936,cs),
(561,1936,o),
(534,1909,o),
(534,1876,cs),
(534,1843,o),
(561,1816,o),
(594,1816,cs)
);
},
{
closed = 1;
nodes = (
(518,1567,l),
(533,1497,l),
(571,1559,l),
(558,1561,l),
(595,1772,l),
(568,1776,l),
(531,1565,l)
);
}
);
vertWidth = 0;
width = 1687;
}
);
metricLeft = B;
metricRight = B;
},
{
color = 6;
glyphname = C.ss05;
layers = (
{
layerId = m01;
shapes = (
{
closed = 1;
nodes = (
(1012,0,o),
(1221,139,o),
(1397,333,cs),
(1474,418,o),
(1482,459,o),
(1479,483,cs),
(1471,524,o),
(1440,546,o),
(1397,546,cs),
(1341,546,o),
(1322,490,o),
(1262,437,cs),
(1095,278,o),
(946,162,o),
(748,162,cs),
(534,162,o),
(313,430,o),
(400,938,cs),
(462,1290,o),
(606,1849,o),
(1134,1849,cs),
(1274,1849,o),
(1419,1786,o),
(1555,1644,cs),
(1601,1598,o),
(1649,1611,o),
(1677,1641,cs),
(1706,1673,o),
(1699,1721,o),
(1665,1757,cs),
(1521,1909,o),
(1330,2008,o),
(1137,2008,cs),
(480,2008,o),
(306,1380,o),
(228,944,cs),
(119,335,o),
(446,0,o),
(746,0,cs)
);
},
{
closed = 1;
nodes = (
(456,20,o),
(141,343,o),
(248,941,cs),
(325,1375,o),
(495,1988,o),
(1137,1988,cs),
(1325,1988,o),
(1504,1900,o),
(1653,1743,cs),
(1679,1718,o),
(1685,1677,o),
(1662,1654,cs),
(1641,1629,o),
(1606,1620,o),
(1569,1657,cs),
(1431,1803,o),
(1278,1869,o),
(1134,1869,cs),
(591,1869,o),
(442,1294,o),
(381,941,cs),
(292,422,o),
(523,142,o),
(748,142,cs),
(953,142,o),
(1108,263,o),
(1275,423,cs),
(1340,479,o),
(1354,526,o),
(1397,526,cs),
(1433,526,o),
(1453,511,o),
(1459,480,cs),
(1462,461,o),
(1455,427,o),
(1382,346,cs),
(1208,154,o),
(1005,20,o),
(746,20,cs)
);
},
{
closed = 1;
nodes = (
(1640,1650,o),
(1660,1670,o),
(1660,1695,cs),
(1660,1720,o),
(1640,1740,o),
(1615,1740,cs),
(1590,1740,o),
(1570,1720,o),
(1570,1695,cs),
(1570,1670,o),
(1590,1650,o),
(1615,1650,cs)
);
},
{
closed = 1;
nodes = (
(1423,1877,l),
(1355,1885,l),
(1404,1839,l),
(1410,1850,l),
(1465,1822,o),
(1499,1795,o),
(1546,1748,c),
(1558,1760,l),
(1511,1808,o),
(1473,1838,o),
(1417,1865,c)
);
}
);
vertWidth = 0;
width = 1491;
},
{
layerId = "140DECC1-64C4-40C0-9C07-503DBC3F4160";
shapes = (
{
closed = 1;
nodes = (
(1114,-20,o),
(1384,103,o),
(1568,303,cs),
(1647,389,o),
(1679,435,o),
(1679,499,cs),
(1679,567,o),
(1627,626,o),
(1534,626,cs),
(1481,626,o),
(1413,607,o),
(1335,520,cs),
(1210,380,o),
(1034,298,o),
(861,298,cs),
(645,298,o),
(533,561,o),
(597,936,cs),
(685,1455,o),
(901,1710,o),
(1251,1710,cs),
(1388,1710,o),
(1480,1680,o),
(1576,1592,cs),
(1656,1521,o),
(1762,1487,o),
(1840,1565,cs),
(1921,1646,o),
(1875,1750,o),
(1792,1825,cs),
(1624,1977,o),
(1450,2028,o),
(1254,2028,cs),
(712,2028,o),
(375,1661,o),
(248,945,cs),
(152,394,o),
(412,-20,o),
(858,-20,cs)
);
},
{
closed = 1;
nodes = (
(437,20,o),
(195,405,o),
(288,939,cs),
(412,1640,o),
(732,1988,o),
(1254,1988,cs),
(1443,1988,o),
(1605,1941,o),
(1766,1795,cs),
(1840,1728,o),
(1872,1654,o),
(1812,1593,cs),
(1752,1534,o),
(1674,1558,o),
(1602,1622,cs),
(1500,1716,o),
(1395,1750,o),
(1251,1750,cs),
(880,1750,o),
(648,1475,o),
(557,942,cs),
(491,552,o),
(616,258,o),
(861,258,cs),
(1044,258,o),
(1233,347,o),
(1365,494,cs),
(1434,570,o),
(1488,586,o),
(1534,586,cs),
(1606,586,o),
(1639,549,o),
(1639,499,cs),
(1639,448,o),
(1615,414,o),
(1538,331,cs),
(1361,137,o),
(1104,20,o),
(858,20,cs)
);
},
{
closed = 1;
nodes = (
(1767,1612,o),
(1794,1639,o),
(1794,1672,cs),
(1794,1705,o),
(1767,1732,o),
(1734,1732,cs),
(1701,1732,o),
(1674,1705,o),
(1674,1672,cs),
(1674,1639,o),
(1701,1612,o),
(1734,1612,cs)
);
},
{
closed = 1;
nodes = (
(1470,1868,l),
(1401,1861,l),
(1457,1817,l),
(1460,1830,l),
(1529,1816,o),
(1570,1789,o),
(1646,1726,c),
(1663,1750,l),
(1586,1812,o),
(1536,1842,o),
(1468,1856,c)
);
}
);
vertWidth = 0;
width = 1669;
}
);
metricLeft = C;
},
{
color = 6;
glyphname = D.ss05;
layers = (
{
layerId = m01;
shapes = (
{
closed = 1;
nodes = (
(385,0,ls),
(976,0,o),
(1475,377,o),
(1566,1062,cs),
(1647,1677,o),
(1208,2008,o),
(639,2008,cs),
(528,2008,ls),
(457,2008,o),
(437,1969,o),
(428,1918,cs),
(106,94,ls),
(97,41,o),
(123,0,o),
(185,0,cs)
);
},
{
closed = 1;
nodes = (
(135,20,o),
(117,47,o),
(125,90,cs),
(448,1914,ls),
(456,1961,o),
(470,1988,o),
(528,1988,cs),
(639,1988,ls),
(1200,1988,o),
(1625,1667,o),
(1546,1065,cs),
(1456,389,o),
(968,20,o),
(385,20,cs),
(185,20,ls)
);
},
{
closed = 1;
nodes = (
(385,162,ls),
(876,162,o),
(1320,471,o),
(1394,1085,cs),
(1450,1571,o),
(1115,1849,o),
(650,1849,cs),
(589,1849,l),
(291,162,l)
);
},
{
closed = 1;
nodes = (
(572,1869,l),
(650,1869,ls),
(1123,1869,o),
(1471,1581,o),
(1414,1083,cs),
(1338,459,o),
(883,142,o),
(385,142,cs),
(268,142,l)
);
},
{
closed = 1;
nodes = (
(542,1874,o),
(562,1894,o),
(562,1919,cs),
(562,1944,o),
(542,1964,o),
(517,1964,cs),
(492,1964,o),
(472,1944,o),
(472,1919,cs),
(472,1894,o),
(492,1874,o),
(517,1874,cs)
);
},
{
closed = 1;
nodes = (
(443,1626,l),
(453,1556,l),
(486,1619,l),
(473,1621,l),
(510,1832,l),
(493,1835,l),
(456,1624,l)
);
}
);
vertWidth = 0;
width = 1566;
},
{
layerId = "140DECC1-64C4-40C0-9C07-503DBC3F4160";
shapes = (
{
closed = 1;
nodes = (
(517,-20,ls),
(1149,-20,o),
(1680,451,o),
(1765,1082,cs),
(1845,1668,o),
(1457,2028,o),
(756,2028,cs),
(601,2028,ls),
(495,2028,o),
(439,1979,o),
(422,1885,cs),
(117,155,ls),
(100,59,o),
(170,-20,o),
(278,-20,cs)
);
},
{
closed = 1;
nodes = (
(191,20,o),
(144,74,o),
(157,147,cs),
(462,1877,ls),
(476,1956,o),
(513,1988,o),
(601,1988,cs),
(756,1988,ls),
(1438,1988,o),
(1802,1649,o),
(1725,1088,cs),
(1642,473,o),
(1131,20,o),
(517,20,cs),
(278,20,ls)
);
},
{
closed = 1;
nodes = (
(517,296,ls),
(981,296,o),
(1367,632,o),
(1426,1085,cs),
(1477,1476,o),
(1232,1712,o),
(772,1712,cs),
(748,1712,l),
(499,296,l)
);
},
{
closed = 1;
nodes = (
(714,1752,l),
(772,1752,ls),
(1251,1752,o),
(1520,1493,o),
(1466,1079,cs),
(1405,610,o),
(998,256,o),
(517,256,cs),
(451,256,l)
);
},
{
closed = 1;
nodes = (
(627,1816,o),
(654,1843,o),
(654,1876,cs),
(654,1909,o),
(627,1936,o),
(594,1936,cs),
(561,1936,o),
(534,1909,o),
(534,1876,cs),
(534,1843,o),
(561,1816,o),
(594,1816,cs)
);
},
{
closed = 1;
nodes = (
(518,1567,l),
(533,1497,l),
(571,1559,l),
(558,1561,l),
(595,1772,l),
(568,1776,l),
(531,1565,l)
);
}
);
vertWidth = 0;
width = 1791;
}
);
metricLeft = D;
metricRight = D;
},
{
color = 6;
glyphname = E.ss05;
layers = (
{
layerId = m01;
shapes = (
{
closed = 1;
nodes = (
(1213,0,ls),
(1282,0,o),
(1303,51,o),
(1303,90,cs),
(1303,130,o),
(1281,162,o),
(1213,162,cs),
(291,162,l),
(440,1005,l),
(1244,1005,ls),
(1314,1005,o),
(1334,1045,o),
(1333,1078,cs),
(1332,1120,o),
(1313,1160,o),
(1243,1160,cs),
(467,1160,l),
(589,1849,l),
(1512,1849,ls),
(1580,1849,o),
(1601,1881,o),
(1601,1924,cs),
(1601,1963,o),
(1581,2008,o),
(1512,2008,cs),
(531,2008,ls),
(457,2008,o),
(437,1968,o),
(428,1918,cs),
(106,94,ls),
(97,41,o),
(123,0,o),
(185,0,cs)
);
},
{
closed = 1;
nodes = (
(135,20,o),
(117,47,o),
(125,90,cs),
(448,1914,ls),
(456,1961,o),
(470,1988,o),
(531,1988,cs),
(1512,1988,ls),
(1567,1988,o),
(1582,1957,o),
(1582,1924,cs),
(1582,1888,o),
(1569,1869,o),
(1512,1869,cs),
(572,1869,l),
(443,1140,l),
(1243,1140,ls),
(1300,1140,o),
(1312,1114,o),
(1313,1078,cs),
(1314,1051,o),
(1301,1025,o),
(1244,1025,cs),
(423,1025,l),
(268,142,l),
(1213,142,ls),
(1270,142,o),
(1284,123,o),
(1284,90,cs),
(1284,56,o),
(1268,20,o),
(1213,20,cs),
(185,20,ls)
);
},
{
closed = 1;
nodes = (
(542,1874,o),
(562,1894,o),
(562,1919,cs),
(562,1944,o),
(542,1964,o),
(517,1964,cs),
(492,1964,o),
(472,1944,o),
(472,1919,cs),
(472,1894,o),
(492,1874,o),
(517,1874,cs)
);
},
{
closed = 1;
nodes = (
(443,1626,l),
(453,1556,l),
(486,1619,l),
(473,1621,l),
(510,1832,l),
(493,1835,l),
(456,1624,l)
);
}
);
vertWidth = 0;
width = 1444;
},
{
layerId = "140DECC1-64C4-40C0-9C07-503DBC3F4160";
shapes = (
{
closed = 1;
nodes = (
(1326,-20,ls),
(1427,-20,o),
(1499,37,o),
(1499,130,cs),
(1499,212,o),
(1443,296,o),
(1331,296,cs),
(499,296,l),
(606,910,l),
(1390,910,ls),
(1498,910,o),
(1576,978,o),
(1576,1063,cs),
(1576,1155,o),
(1506,1213,o),
(1405,1213,cs),
(660,1213,l),
(748,1712,l),
(1630,1712,ls),
(1734,1712,o),
(1809,1781,o),
(1809,1873,cs),
(1809,1962,o),
(1743,2028,o),
(1638,2028,cs),
(608,2028,ls),
(504,2028,o),
(441,1988,o),
(424,1892,cs),
(117,156,ls),
(100,61,o),
(147,-20,o),
(252,-20,cs)
);
},
{
closed = 1;
nodes = (
(173,20,o),
(143,72,o),
(157,150,cs),
(464,1884,ls),
(478,1962,o),
(518,1988,o),
(608,1988,cs),
(1638,1988,ls),
(1724,1988,o),
(1769,1943,o),
(1769,1873,cs),
(1769,1801,o),
(1716,1752,o),
(1630,1752,cs),
(714,1752,l),
(612,1173,l),
(1405,1173,ls),
(1489,1173,o),
(1536,1134,o),
(1536,1063,cs),
(1536,999,o),
(1480,950,o),
(1390,950,cs),
(572,950,l),
(451,256,l),
(1331,256,ls),
(1419,256,o),
(1459,197,o),
(1459,130,cs),
(1459,59,o),
(1410,20,o),
(1326,20,cs),
(252,20,ls)
);
},
{
closed = 1;
nodes = (
(627,1816,o),
(654,1843,o),
(654,1876,cs),
(654,1909,o),
(627,1936,o),
(594,1936,cs),
(561,1936,o),
(534,1909,o),
(534,1876,cs),
(534,1843,o),
(561,1816,o),
(594,1816,cs)
);
},
{
closed = 1;
nodes = (
(518,1567,l),
(533,1497,l),
(571,1559,l),
(558,1561,l),
(595,1772,l),
(568,1776,l),
(531,1565,l)
);
}
);
vertWidth = 0;
width = 1587;
}
);
metricLeft = E;
metricRight = E;
},
{
color = 6;
glyphname = F.ss05;
layers = (
{
layerId = m01;
shapes = (
{
closed = 1;
nodes = (
(260,0,o),
(271,54,o),
(277,86,cs),
(440,1005,l),
(1210,1005,ls),
(1280,1005,o),
(1300,1045,o),
(1300,1078,cs),
(1300,1120,o),
(1280,1160,o),
(1210,1160,cs),
(468,1160,l),
(589,1849,l),
(1481,1849,ls),
(1549,1849,o),
(1571,1881,o),
(1571,1924,cs),
(1571,1963,o),
(1550,2008,o),
(1481,2008,cs),
(531,2008,ls),
(457,2008,o),
(437,1968,o),
(428,1918,cs),
(106,94,ls),
(97,41,o),
(124,0,o),
(186,0,cs)
);
},
{
closed = 1;
nodes = (
(136,20,o),
(118,48,o),
(125,90,cs),
(448,1914,ls),
(456,1961,o),
(470,1988,o),
(531,1988,cs),
(1481,1988,ls),
(1537,1988,o),
(1551,1957,o),
(1551,1924,cs),
(1551,1888,o),
(1538,1869,o),
(1481,1869,cs),
(572,1869,l),
(444,1140,l),
(1210,1140,ls),
(1267,1140,o),
(1281,1114,o),
(1281,1078,cs),
(1281,1051,o),
(1267,1025,o),
(1210,1025,cs),
(423,1025,l),
(258,89,ls),
(253,59,o),
(244,20,o),
(186,20,cs)
);
},
{
closed = 1;
nodes = (
(542,1874,o),
(562,1894,o),
(562,1919,cs),
(562,1944,o),
(542,1964,o),
(517,1964,cs),
(492,1964,o),
(472,1944,o),
(472,1919,cs),
(472,1894,o),
(492,1874,o),
(517,1874,cs)
);
},
{
closed = 1;
nodes = (
(443,1626,l),
(453,1556,l),
(486,1619,l),
(473,1621,l),
(510,1832,l),
(493,1835,l),
(456,1624,l)
);
}
);
vertWidth = 0;
width = 1279;
},
{
layerId = "140DECC1-64C4-40C0-9C07-503DBC3F4160";
shapes = (
{
closed = 1;
nodes = (
(382,-20,o),
(457,53,o),
(475,156,cs),
(607,910,l),
(1376,910,ls),
(1486,910,o),
(1546,980,o),
(1546,1065,cs),
(1546,1154,o),
(1482,1213,o),
(1378,1213,cs),
(660,1213,l),
(748,1712,l),
(1595,1712,ls),
(1709,1712,o),
(1776,1792,o),
(1776,1868,cs),
(1776,1964,o),
(1710,2028,o),
(1605,2028,cs),
(602,2028,ls),
(496,2028,o),
(440,1985,o),
(423,1889,cs),
(120,170,ls),
(104,79,o),
(136,-20,o),
(275,-20,cs)
);
},
{
closed = 1;
nodes = (
(167,20,o),
(146,85,o),
(160,162,cs),
(463,1883,ls),
(477,1961,o),
(512,1988,o),
(602,1988,cs),
(1605,1988,ls),
(1691,1988,o),
(1736,1945,o),
(1736,1868,cs),
(1736,1809,o),
(1688,1752,o),
(1595,1752,cs),
(714,1752,l),
(612,1173,l),
(1378,1173,ls),
(1464,1173,o),
(1506,1134,o),
(1506,1065,cs),
(1506,997,o),
(1465,950,o),
(1376,950,cs),
(573,950,l),
(435,162,ls),
(420,75,o),
(364,20,o),
(275,20,cs)
);
},
{
closed = 1;
nodes = (
(627,1816,o),
(654,1843,o),
(654,1876,cs),
(654,1909,o),
(627,1936,o),
(594,1936,cs),
(561,1936,o),
(534,1909,o),
(534,1876,cs),
(534,1843,o),
(561,1816,o),
(594,1816,cs)
);
},
{
closed = 1;
nodes = (
(518,1567,l),
(533,1497,l),
(571,1559,l),
(558,1561,l),
(595,1772,l),
(568,1776,l),
(531,1565,l)
);
}
);
vertWidth = 0;
width = 1484;
}
);
metricLeft = F;
metricRight = F;
},
{
color = 6;
glyphname = G.ss05;
layers = (
{
layerId = m01;
shapes = (
{
closed = 1;
nodes = (
(908,-20,o),
(1077,95,o),
(1274,363,c),
(1230,94,ls),
(1224,55,o),
(1234,4,o),
(1301,0,cs),
(1381,-3,o),
(1398,56,o),
(1404,91,cs),
(1523,783,ls),
(1533,840,o),
(1517,877,o),
(1454,877,cs),
(1386,877,o),
(1352,829,o),
(1318,748,cs),
(1157,379,o),
(945,142,o),
(730,142,cs),
(462,142,o),
(324,487,o),
(400,938,cs),
(505,1545,o),
(751,1869,o),
(1134,1869,cs),
(1274,1869,o),
(1409,1809,o),
(1547,1666,cs),
(1590,1622,o),
(1638,1634,o),
(1667,1664,cs),
(1697,1695,o),
(1690,1749,o),
(1659,1780,cs),
(1508,1939,o),
(1330,2028,o),
(1137,2028,cs),
(660,2028,o),
(356,1648,o),
(228,944,cs),
(135,404,o),
(346,-20,o),
(727,-20,cs)
);
},
{
closed = 1;
nodes = (
(360,0,o),
(156,409,o),
(248,941,cs),
(374,1638,o),
(670,2008,o),
(1137,2008,cs),
(1325,2008,o),
(1496,1923,o),
(1645,1767,cs),
(1671,1740,o),
(1673,1701,o),
(1652,1677,cs),
(1630,1653,o),
(1596,1644,o),
(1561,1679,cs),
(1421,1826,o),
(1278,1889,o),
(1134,1889,cs),
(740,1889,o),
(486,1555,o),
(381,941,cs),
(303,483,o),
(447,122,o),
(730,122,cs),
(954,122,o),
(1174,367,o),
(1336,740,cs),
(1370,819,o),
(1397,857,o),
(1454,857,cs),
(1504,857,o),
(1512,836,o),
(1504,787,cs),
(1385,94,ls),
(1379,61,o),
(1366,17,o),
(1302,20,cs),
(1251,23,o),
(1245,56,o),
(1250,90,cs),
(1298,389,ls),
(1305,435,o),
(1298,432,o),
(1270,392,cs),
(1071,113,o),
(906,0,o),
(727,0,cs)
);
},
{
closed = 1;
nodes = (
(1630,1675,o),
(1650,1695,o),
(1650,1720,cs),
(1650,1745,o),
(1630,1765,o),
(1605,1765,cs),
(1580,1765,o),
(1560,1745,o),
(1560,1720,cs),
(1560,1695,o),
(1580,1675,o),
(1605,1675,cs)
);
},
{
closed = 1;
nodes = (
(1423,1893,l),
(1355,1901,l),
(1404,1855,l),
(1410,1866,l),
(1465,1838,o),
(1499,1811,o),
(1546,1764,c),
(1558,1776,l),
(1511,1824,o),
(1473,1854,o),
(1417,1881,c)
);
}
);
vertWidth = 0;
width = 1668;
},
{
layerId = "140DECC1-64C4-40C0-9C07-503DBC3F4160";
shapes = (
{
closed = 1;
nodes = (
(993,-20,o),
(1138,72,o),
(1269,235,c),
(1257,174,ls),
(1236,65,o),
(1313,-1,o),
(1431,-1,cs),
(1551,-1,o),
(1585,65,o),
(1599,146,cs),
(1718,822,ls),
(1737,930,o),
(1676,1001,o),
(1568,1001,cs),
(1503,1001,o),
(1429,985,o),
(1346,832,cs),
(1190,560,o),
(996,298,o),
(796,298,cs),
(627,298,o),
(528,533,o),
(597,936,cs),
(685,1455,o),
(901,1710,o),
(1251,1710,cs),
(1388,1710,o),
(1480,1680,o),
(1576,1592,cs),
(1656,1521,o),
(1762,1487,o),
(1840,1565,cs),
(1921,1646,o),
(1875,1750,o),
(1792,1825,cs),
(1624,1977,o),
(1450,2028,o),
(1254,2028,cs),
(712,2028,o),
(375,1661,o),
(248,945,cs),
(144,351,o),
(380,-20,o),
(793,-20,cs)
);
},
{
closed = 1;
nodes = (
(404,20,o),
(187,363,o),
(288,939,cs),
(412,1640,o),
(732,1988,o),
(1254,1988,cs),
(1443,1988,o),
(1605,1941,o),
(1766,1795,cs),
(1840,1728,o),
(1872,1654,o),
(1812,1593,cs),
(1752,1534,o),
(1674,1558,o),
(1602,1622,cs),
(1500,1716,o),
(1395,1750,o),
(1251,1750,cs),
(880,1750,o),
(648,1475,o),
(557,942,cs),
(485,523,o),
(598,258,o),
(796,258,cs),
(1017,258,o),
(1223,537,o),
(1380,812,cs),
(1454,948,o),
(1508,961,o),
(1568,961,cs),
(1655,961,o),
(1693,915,o),
(1678,828,cs),
(1559,152,ls),
(1547,81,o),
(1525,39,o),
(1431,39,cs),
(1331,39,o),
(1282,82,o),
(1297,166,cs),
(1321,297,ls),
(1332,355,o),
(1312,360,o),
(1275,309,cs),
(1139,121,o),
(999,20,o),
(793,20,cs)
);
},
{
closed = 1;
nodes = (
(1767,1612,o),
(1794,1639,o),
(1794,1672,cs),
(1794,1705,o),
(1767,1732,o),
(1734,1732,cs),
(1701,1732,o),
(1674,1705,o),
(1674,1672,cs),
(1674,1639,o),
(1701,1612,o),
(1734,1612,cs)
);
},
{
closed = 1;
nodes = (
(1470,1868,l),
(1401,1861,l),
(1457,1817,l),
(1460,1830,l),
(1529,1816,o),
(1570,1789,o),
(1646,1726,c),
(1663,1750,l),
(1586,1812,o),
(1536,1842,o),
(1468,1856,c)
);
}
);
vertWidth = 0;
width = 1864;
}
);
metricLeft = G;
metricRight = G;
},
{
color = 6;
glyphname = H.ss05;
layers = (
{
layerId = m01;
shapes = (
{
closed = 1;
nodes = (
(260,0,o),
(272,54,o),
(278,86,cs),
(440,1005,l),
(1294,1005,l),
(1136,94,ls),
(1129,55,o),
(1137,0,o),
(1215,0,cs),
(1282,0,o),
(1302,45,o),
(1307,76,cs),
(1630,1909,ls),
(1640,1966,o),
(1617,2008,o),
(1551,2008,cs),
(1488,2008,o),
(1459,1968,o),
(1453,1933,cs),
(1320,1160,l),
(467,1160,l),
(598,1901,ls),
(609,1963,o),
(589,2008,o),
(530,2008,cs),
(465,2008,o),
(437,1969,o),
(428,1918,cs),
(106,94,ls),
(97,41,o),
(124,0,o),
(185,0,cs)
);
},
{
closed = 1;
nodes = (
(135,20,o),
(117,47,o),
(125,90,cs),
(447,1914,ls),
(455,1960,o),
(476,1988,o),
(530,1988,cs),
(576,1988,o),
(588,1958,o),
(578,1904,cs),
(443,1140,l),
(1337,1140,l),
(1473,1929,ls),
(1478,1959,o),
(1500,1988,o),
(1551,1988,cs),
(1604,1988,o),
(1620,1961,o),
(1611,1912,cs),
(1288,79,ls),
(1283,52,o),
(1269,20,o),
(1215,20,cs),
(1155,20,o),
(1150,56,o),
(1156,90,cs),
(1317,1025,l),
(423,1025,l),
(258,89,ls),
(253,59,o),
(245,20,o),
(185,20,cs)
);
},
{
closed = 1;
nodes = (
(542,1874,o),
(562,1894,o),
(562,1919,cs),
(562,1944,o),
(542,1964,o),
(517,1964,cs),
(492,1964,o),
(472,1944,o),
(472,1919,cs),
(472,1894,o),
(492,1874,o),
(517,1874,cs)
);
},
{
closed = 1;
nodes = (
(443,1626,l),
(453,1556,l),
(486,1619,l),
(473,1621,l),
(510,1832,l),
(493,1835,l),
(456,1624,l)
);
}
);
vertWidth = 0;
width = 1574;
},
{
layerId = "140DECC1-64C4-40C0-9C07-503DBC3F4160";
shapes = (
{
closed = 1;
nodes = (
(402,-20,o),
(458,52,o),
(467,122,c),
(594,851,l),
(1275,851,l),
(1153,154,ls),
(1135,53,o),
(1200,-20,o),
(1313,-20,cs),
(1411,-20,o),
(1485,39,o),
(1500,110,c),
(1802,1848,ls),
(1822,1961,o),
(1748,2028,o),
(1641,2028,cs),
(1544,2028,o),
(1471,1975,o),
(1457,1897,cs),
(1330,1170,l),
(649,1170,l),
(766,1841,ls),
(787,1963,o),
(721,2028,o),
(621,2028,cs),
(531,2028,o),
(440,1985,o),
(422,1885,cs),
(118,155,ls),
(101,56,o),
(174,-20,o),
(283,-20,cs)
);
},
{
closed = 1;
nodes = (
(193,20,o),
(145,72,o),
(158,147,cs),
(462,1877,ls),
(476,1955,o),
(543,1988,o),
(621,1988,cs),
(702,1988,o),
(743,1946,o),
(726,1847,cs),
(601,1130,l),
(1364,1130,l),
(1497,1891,ls),
(1507,1950,o),
(1559,1988,o),
(1641,1988,cs),
(1729,1988,o),
(1777,1944,o),
(1762,1856,cs),
(1460,118,ls),
(1450,63,o),
(1395,20,o),
(1313,20,cs),
(1221,20,o),
(1179,68,o),
(1193,148,cs),
(1323,891,l),
(560,891,l),
(427,128,l),
(420,70,o),
(380,20,o),
(283,20,cs)
);
},
{
closed = 1;
nodes = (
(625,1816,o),
(652,1843,o),
(652,1876,cs),
(652,1909,o),
(625,1936,o),
(592,1936,cs),
(559,1936,o),
(532,1909,o),
(532,1876,cs),
(532,1843,o),
(559,1816,o),
(592,1816,cs)
);
},
{
closed = 1;
nodes = (
(516,1567,l),
(531,1497,l),
(569,1559,l),
(556,1561,l),
(593,1772,l),
(566,1776,l),
(529,1565,l)
);
}
);
vertWidth = 0;
width = 1753;
}
);
metricLeft = H;
metricRight = H;
},
{
color = 6;
glyphname = I.ss05;
layers = (
{
layerId = m01;
shapes = (
{
closed = 1;
nodes = (
(469,0,ls),
(539,0,o),
(559,40,o),
(559,79,cs),
(559,122,o),
(539,162,o),
(469,162,cs),
(428,162,l),
(725,1849,l),
(789,1849,ls),
(855,1849,o),
(876,1892,o),
(876,1931,cs),
(876,1971,o),
(855,2008,o),
(789,2008,cs),
(516,2008,ls),
(447,2008,o),
(427,1971,o),
(427,1931,cs),
(427,1892,o),
(447,1849,o),
(516,1849,cs),
(546,1849,l),
(252,162,l),
(184,162,ls),
(118,162,o),
(97,121,o),
(97,79,cs),
(97,40,o),
(118,0,o),
(184,0,cs)
);
},
{
closed = 1;
nodes = (
(131,20,o),
(117,46,o),
(117,79,cs),
(117,115,o),
(131,142,o),
(184,142,cs),
(269,142,l),
(570,1869,l),
(516,1869,ls),
(460,1869,o),
(446,1897,o),
(446,1931,cs),
(446,1965,o),
(460,1988,o),
(516,1988,cs),
(789,1988,ls),
(843,1988,o),
(856,1965,o),
(856,1931,cs),
(856,1897,o),
(842,1869,o),
(789,1869,cs),
(708,1869,l),
(405,142,l),
(469,142,ls),
(526,142,o),
(539,115,o),
(539,79,cs),
(539,46,o),
(526,20,o),
(469,20,cs),
(184,20,ls)
);
},
{
closed = 1;
nodes = (
(662,1822,o),
(682,1842,o),
(682,1867,cs),
(682,1892,o),
(662,1912,o),
(637,1912,cs),
(612,1912,o),
(592,1892,o),
(592,1867,cs),
(592,1842,o),
(612,1822,o),
(637,1822,cs)
);
},
{
closed = 1;
nodes = (
(565,1573,l),
(575,1503,l),
(608,1566,l),
(595,1568,l),
(632,1779,l),
(615,1782,l),
(578,1571,l)
);
}
);
vertWidth = 0;
width = 819;
},
{
layerId = "140DECC1-64C4-40C0-9C07-503DBC3F4160";
shapes = (
{
closed = 1;
nodes = (
(662,-20,ls),
(780,-20,o),
(819,54,o),
(830,132,cs),
(844,218,o),
(798,298,o),
(706,298,cs),
(612,298,l),
(857,1710,l),
(972,1710,ls),
(1083,1710,o),
(1134,1793,o),
(1148,1872,cs),
(1159,1961,o),
(1098,2028,o),
(1016,2028,cs),
(464,2028,ls),
(359,2028,o),
(308,1961,o),
(294,1878,cs),
(279,1795,o),
(336,1710,o),
(423,1710,cs),
(503,1710,l),
(259,298,l),
(157,298,ls),
(47,298,o),
(-7,221,o),
(-21,138,cs),
(-36,54,o),
(22,-20,o),
(113,-20,cs)
);
},
{
closed = 1;
nodes = (
(45,20,o),
(7,67,o),
(19,132,cs),
(31,203,o),
(69,258,o),
(157,258,cs),
(293,258,l),
(551,1750,l),
(423,1750,ls),
(361,1750,o),
(322,1807,o),
(334,1872,cs),
(346,1943,o),
(381,1988,o),
(464,1988,cs),
(1016,1988,ls),
(1077,1988,o),
(1117,1944,o),
(1108,1878,cs),
(1096,1809,o),
(1059,1750,o),
(972,1750,cs),
(823,1750,l),
(564,258,l),
(706,258,ls),
(773,258,o),
(802,207,o),
(790,138,cs),
(781,68,o),
(754,20,o),
(662,20,cs),
(113,20,ls)
);
},
{
closed = 1;
nodes = (
(712,1691,o),
(739,1718,o),
(739,1751,cs),
(739,1784,o),
(712,1811,o),
(679,1811,cs),
(646,1811,o),
(619,1784,o),
(619,1751,cs),
(619,1718,o),
(646,1691,o),
(679,1691,cs)
);
},
{
closed = 1;
nodes = (
(604,1442,l),
(619,1372,l),
(657,1434,l),
(644,1436,l),
(681,1647,l),
(654,1651,l),
(617,1440,l)
);
}
);
vertWidth = 0;
width = 863;
}
);
metricLeft = I;
metricRight = I;
},
{
color = 6;
glyphname = J.ss05;
layers = (
{
layerId = m01;
shapes = (
{
closed = 1;
nodes = (
(1,0,o),
(277,13,o),
(337,21,cs),
(758,83,o),
(841,461,o),
(922,915,cs),
(1088,1849,l),
(1479,1849,ls),
(1548,1849,o),
(1568,1888,o),
(1568,1929,cs),
(1568,1968,o),
(1548,2008,o),
(1479,2008,cs),
(549,2008,ls),
(480,2008,o),
(459,1968,o),
(459,1929,cs),
(459,1888,o),
(480,1849,o),
(549,1849,cs),
(914,1849,l),
(751,933,ls),
(689,586,o),
(638,234,o),
(347,184,cs),
(264,169,o),
(-20,162,o),
(-92,162,cs),
(-135,162,o),
(-179,132,o),
(-179,84,cs),
(-179,33,o),
(-135,0,o),
(-92,0,cs)
);
},
{
closed = 1;
nodes = (
(-127,20,o),
(-159,44,o),
(-159,84,cs),
(-159,121,o),
(-128,142,o),
(-92,142,cs),
(-20,142,o),
(266,150,o),
(350,165,cs),
(655,217,o),
(708,582,o),
(770,930,cs),
(937,1869,l),
(549,1869,ls),
(493,1869,o),
(479,1895,o),
(479,1929,cs),
(479,1962,o),
(493,1988,o),
(549,1988,cs),
(1479,1988,ls),
(1534,1988,o),
(1548,1962,o),
(1548,1929,cs),
(1548,1895,o),
(1535,1869,o),
(1479,1869,cs),
(1072,1869,l),
(902,919,ls),
(821,465,o),
(741,101,o),
(334,41,cs),
(275,33,o),
(1,20,o),
(-92,20,cs)
);
},
{
closed = 1;
nodes = (
(1028,1822,o),
(1048,1842,o),
(1048,1867,cs),
(1048,1892,o),
(1028,1912,o),
(1003,1912,cs),
(978,1912,o),
(958,1892,o),
(958,1867,cs),
(958,1842,o),
(978,1822,o),
(1003,1822,cs)
);
},
{
closed = 1;
nodes = (
(930,1573,l),
(940,1503,l),
(973,1566,l),
(960,1568,l),
(997,1779,l),
(980,1782,l),
(943,1571,l)
);
}
);
vertWidth = 0;
width = 1148;
},
{
layerId = "140DECC1-64C4-40C0-9C07-503DBC3F4160";
shapes = (
{
closed = 1;
nodes = (
(193,-20,o),
(463,-15,o),
(519,-7,cs),
(1097,63,o),
(1096,486,o),
(1170,904,cs),
(1313,1710,l),
(1611,1710,ls),
(1722,1710,o),
(1784,1782,o),
(1784,1873,cs),
(1784,1971,o),
(1714,2028,o),
(1613,2028,cs),
(724,2028,ls),
(618,2028,o),
(548,1968,o),
(548,1873,cs),
(548,1776,o),
(617,1710,o),
(719,1710,cs),
(958,1710,l),
(823,950,ls),
(765,623,o),
(740,343,o),
(507,314,cs),
(433,304,o),
(167,298,o),
(102,298,cs),
(17,298,o),
(-69,230,o),
(-69,138,cs),
(-69,42,o),
(18,-20,o),
(102,-20,cs)
);
},
{
closed = 1;
nodes = (
(33,20,o),
(-29,65,o),
(-29,138,cs),
(-29,208,o),
(34,258,o),
(102,258,cs),
(167,258,o),
(437,264,o),
(513,274,cs),
(777,307,o),
(805,617,o),
(863,944,cs),
(1006,1750,l),
(719,1750,ls),
(636,1750,o),
(588,1796,o),
(588,1873,cs),
(588,1947,o),
(635,1988,o),
(724,1988,cs),
(1613,1988,ls),
(1697,1988,o),
(1744,1950,o),
(1744,1873,cs),
(1744,1799,o),
(1701,1750,o),
(1611,1750,cs),
(1279,1750,l),
(1130,912,ls),
(1055,489,o),
(1058,99,o),
(513,33,cs),
(459,25,o),
(193,20,o),
(102,20,cs)
);
},
{
closed = 1;
nodes = (
(1172,1691,o),
(1199,1718,o),
(1199,1751,cs),
(1199,1784,o),
(1172,1811,o),
(1139,1811,cs),
(1106,1811,o),
(1079,1784,o),
(1079,1751,cs),
(1079,1718,o),
(1106,1691,o),
(1139,1691,cs)
);
},
{
closed = 1;
nodes = (
(1062,1442,l),
(1077,1372,l),
(1115,1434,l),
(1102,1436,l),
(1139,1647,l),
(1112,1651,l),
(1075,1440,l)
);
}
);
vertWidth = 0;
width = 1552;
}
);
metricLeft = J;
metricRight = J;
},
{
color = 6;
glyphname = K.ss05;
layers = (
{
layerId = m01;
shapes = (
{
closed = 1;
nodes = (
(1264,0,o),
(1308,35,o),
(1308,79,cs),
(1308,106,o),
(1296,128,o),
(1270,163,cs),
(582,1075,l),
(1572,1846,ls),
(1610,1876,o),
(1632,1898,o),
(1632,1942,cs),
(1632,1971,o),
(1608,2008,o),
(1564,2008,cs),
(1535,2008,o),
(1500,1997,o),
(1462,1967,cs),
(475,1191,l),
(602,1901,ls),
(613,1961,o),
(598,2008,o),
(530,2008,cs),
(463,2008,o),
(440,1969,o),
(431,1917,cs),
(109,110,ls),
(100,58,o),
(126,0,o),
(188,0,cs),
(260,0,o),
(276,62,o),
(283,104,cs),
(439,988,l),
(1125,64,ls),
(1149,32,o),
(1177,0,o),
(1223,0,cs)
);
},
{
closed = 1;
nodes = (
(1186,20,o),
(1164,45,o),
(1141,75,cs),
(448,1009,ls),
(430,1034,o),
(427,1033,o),
(423,1008,cs),
(263,107,ls),
(256,66,o),
(245,20,o),
(188,20,cs),
(140,20,o),
(120,63,o),
(128,106,cs),
(450,1914,ls),
(458,1961,o),
(475,1988,o),
(530,1988,cs),
(582,1988,o),
(592,1959,o),
(582,1904,cs),
(453,1178,ls),
(448,1150,o),
(452,1148,o),
(480,1170,cs),
(1474,1952,ls),
(1510,1980,o),
(1539,1988,o),
(1562,1988,cs),
(1596,1988,o),
(1612,1964,o),
(1612,1942,cs),
(1612,1907,o),
(1597,1890,o),
(1560,1861,cs),
(554,1079,l),
(1254,151,ls),
(1279,118,o),
(1288,101,o),
(1288,79,cs),
(1288,46,o),
(1256,20,o),
(1223,20,cs)
);
},
{
closed = 1;
nodes = (
(546,1874,o),
(566,1894,o),
(566,1919,cs),
(566,1944,o),
(546,1964,o),
(521,1964,cs),
(496,1964,o),
(476,1944,o),
(476,1919,cs),
(476,1894,o),
(496,1874,o),
(521,1874,cs)
);
},
{
closed = 1;
nodes = (
(447,1626,l),
(457,1556,l),
(490,1619,l),
(477,1621,l),
(514,1832,l),
(497,1835,l),
(460,1624,l)
);
}
);
vertWidth = 0;
width = 1440;
},
{
layerId = "140DECC1-64C4-40C0-9C07-503DBC3F4160";
shapes = (
{
closed = 1;
nodes = (
(1412,-20,o),
(1483,58,o),
(1483,146,cs),
(1483,191,o),
(1467,241,o),
(1444,274,cs),
(894,1056,l),
(1721,1733,ls),
(1769,1772,o),
(1806,1823,o),
(1806,1888,cs),
(1806,1961,o),
(1751,2028,o),
(1648,2028,cs),
(1594,2028,o),
(1528,2010,o),
(1476,1967,cs),
(675,1313,l),
(770,1841,ls),
(795,1979,o),
(695,2028,o),
(613,2028,cs),
(527,2028,o),
(441,1984,o),
(423,1885,cs),
(119,169,ls),
(101,66,o),
(177,-20,o),
(287,-20,cs),
(392,-20,o),
(451,48,o),
(466,134,cs),
(596,865,l),
(1150,67,ls),
(1188,13,o),
(1254,-20,o),
(1317,-20,cs)
);
},
{
closed = 1;
nodes = (
(1265,20,o),
(1214,45,o),
(1184,89,cs),
(617,905,ls),
(582,955,o),
(571,952,o),
(561,895,cs),
(426,142,ls),
(413,69,o),
(372,20,o),
(287,20,cs),
(198,20,o),
(144,81,o),
(159,163,cs),
(463,1877,ls),
(477,1956,o),
(539,1988,o),
(613,1988,cs),
(683,1988,o),
(749,1955,o),
(730,1847,cs),
(630,1286,ls),
(619,1227,o),
(625,1219,o),
(688,1271,cs),
(1502,1935,ls),
(1547,1972,o),
(1601,1988,o),
(1648,1988,cs),
(1730,1988,o),
(1766,1944,o),
(1766,1888,cs),
(1766,1838,o),
(1739,1799,o),
(1695,1763,cs),
(840,1064,l),
(1410,252,ls),
(1430,223,o),
(1443,183,o),
(1443,146,cs),
(1443,76,o),
(1392,20,o),
(1317,20,cs)
);
},
{
closed = 1;
nodes = (
(624,1816,o),
(651,1843,o),
(651,1876,cs),
(651,1909,o),
(624,1936,o),
(591,1936,cs),
(558,1936,o),
(531,1909,o),
(531,1876,cs),
(531,1843,o),
(558,1816,o),
(591,1816,cs)
);
},
{
closed = 1;
nodes = (
(515,1567,l),
(530,1497,l),
(568,1559,l),
(555,1561,l),
(592,1772,l),
(565,1776,l),
(528,1565,l)
);
}
);
vertWidth = 0;
width = 1581;
}
);
metricLeft = K;
metricRight = K;
},
{
color = 6;
glyphname = L.ss05;
layers = (
{
layerId = m01;
shapes = (
{
closed = 1;
nodes = (
(1219,0,ls),
(1282,0,o),
(1308,50,o),
(1308,90,cs),
(1308,132,o),
(1280,162,o),
(1219,162,cs),
(295,162,l),
(603,1901,ls),
(613,1960,o),
(602,2008,o),
(531,2008,cs),
(463,2008,o),
(437,1969,o),
(428,1918,cs),
(109,94,ls),
(100,42,o),
(128,0,o),
(188,0,cs)
);
},
{
closed = 1;
nodes = (
(140,20,o),
(122,48,o),
(129,90,cs),
(447,1914,ls),
(455,1962,o),
(475,1988,o),
(531,1988,cs),
(585,1988,o),
(593,1959,o),
(583,1904,cs),
(271,142,l),
(1219,142,ls),
(1271,142,o),
(1288,122,o),
(1288,90,cs),
(1288,56,o),
(1269,20,o),
(1219,20,cs),
(188,20,ls)
);
},
{
closed = 1;
nodes = (
(548,1874,o),
(568,1894,o),
(568,1919,cs),
(568,1944,o),
(548,1964,o),
(523,1964,cs),
(498,1964,o),
(478,1944,o),
(478,1919,cs),
(478,1894,o),
(498,1874,o),
(523,1874,cs)
);
},
{
closed = 1;
nodes = (
(449,1626,l),
(459,1556,l),
(492,1619,l),
(479,1621,l),
(516,1832,l),
(499,1835,l),
(462,1624,l)
);
}
);
vertWidth = 0;
width = 1449;
},
{
layerId = "140DECC1-64C4-40C0-9C07-503DBC3F4160";
shapes = (
{
closed = 1;
nodes = (
(1339,-20,ls),
(1443,-20,o),
(1515,58,o),
(1515,143,cs),
(1515,227,o),
(1443,298,o),
(1339,298,cs),
(499,298,l),
(774,1841,ls),
(800,1987,o),
(709,2028,o),
(624,2028,cs),
(525,2028,o),
(442,1984,o),
(424,1885,cs),
(117,154,ls),
(100,56,o),
(167,-20,o),
(270,-20,cs)
);
},
{
closed = 1;
nodes = (
(188,20,o),
(143,71,o),
(157,148,cs),
(464,1877,ls),
(478,1956,o),
(537,1988,o),
(624,1988,cs),
(698,1988,o),
(754,1962,o),
(734,1847,cs),
(451,258,l),
(1339,258,ls),
(1424,258,o),
(1475,208,o),
(1475,143,cs),
(1475,76,o),
(1423,20,o),
(1339,20,cs),
(270,20,ls)
);
},
{
closed = 1;
nodes = (
(625,1816,o),
(652,1843,o),
(652,1876,cs),
(652,1909,o),
(625,1936,o),
(592,1936,cs),
(559,1936,o),
(532,1909,o),
(532,1876,cs),
(532,1843,o),
(559,1816,o),
(592,1816,cs)
);
},
{
closed = 1;
nodes = (
(516,1567,l),
(531,1497,l),
(569,1559,l),
(556,1561,l),
(593,1772,l),
(566,1776,l),
(529,1565,l)
);
}
);
vertWidth = 0;
width = 1598;
}
);
metricLeft = L;
metricRight = L;
},
{
color = 6;
glyphname = M.ss05;
layers = (
{
layerId = m01;
shapes = (
{
closed = 1;
nodes = (
(67,0,o),
(110,25,o),
(140,83,cs),
(956,1664,l),
(1074,83,ls),
(1076,51,o),
(1092,0,o),
(1169,0,cs),
(1235,0,o),
(1261,57,o),
(1273,80,cs),
(2094,1669,l),
(2215,84,ls),
(2218,51,o),
(2235,0,o),
(2308,0,cs),
(2363,0,o),
(2391,39,o),
(2387,91,cs),
(2237,1913,ls),
(2233,1965,o),
(2222,2008,o),
(2150,2008,cs),
(2077,2008,o),
(2056,1956,o),
(2038,1922,cs),
(1219,329,l),
(1097,1943,ls),
(1095,1968,o),
(1073,2008,o),
(1010,2008,cs),
(952,2008,o),
(929,1969,o),
(908,1928,cs),
(-30,130,ls),
(-71,51,o),
(-24,0,o),
(32,0,cs)
);
},
{
closed = 1;
nodes = (
(-14,20,o),
(-46,56,o),
(-12,121,cs),
(925,1919,ls),
(946,1959,o),
(964,1988,o),
(1010,1988,cs),
(1060,1988,o),
(1075,1961,o),
(1077,1941,cs),
(1200,310,ls),
(1203,268,o),
(1210,269,o),
(1230,308,cs),
(2056,1913,ls),
(2074,1947,o),
(2090,1988,o),
(2150,1988,cs),
(2207,1988,o),
(2213,1961,o),
(2217,1912,cs),
(2367,89,ls),
(2370,47,o),
(2351,20,o),
(2308,20,cs),
(2250,20,o),
(2237,56,o),
(2235,85,cs),
(2113,1689,ls),
(2110,1729,o),
(2105,1732,o),
(2083,1690,cs),
(1255,89,ls),
(1243,66,o),
(1222,20,o),
(1169,20,cs),
(1107,20,o),
(1096,55,o),
(1094,85,cs),
(974,1683,ls),
(971,1719,o),
(962,1721,o),
(940,1678,cs),
(123,92,ls),
(96,39,o),
(62,20,o),
(32,20,cs)
);
},
{
closed = 1;
nodes = (
(64,38,o),
(84,58,o),
(84,83,cs),
(84,108,o),
(64,128,o),
(39,128,cs),
(14,128,o),
(-6,108,o),
(-6,83,cs),
(-6,58,o),
(14,38,o),
(39,38,cs)
);
},
{
closed = 1;
nodes = (
(200,339,l),
(212,409,l),
(161,359,l),
(173,354,l),
(72,164,l),
(87,156,l),
(188,345,l)
);
}
);
vertWidth = 0;
width = 2505;
},
{
layerId = "140DECC1-64C4-40C0-9C07-503DBC3F4160";
shapes = (
{
closed = 1;
nodes = (
(180,-20,o),
(274,11,o),
(315,92,cs),
(931,1300,l),
(1021,123,ls),
(1027,44,o),
(1090,-20,o),
(1194,-20,cs),
(1329,-20,o),
(1365,50,o),
(1384,87,cs),
(2010,1303,l),
(2095,124,ls),
(2100,48,o),
(2175,-20,o),
(2281,-20,cs),
(2381,-20,o),
(2450,52,o),
(2442,145,cs),
(2301,1875,ls),
(2293,1968,o),
(2270,2028,o),
(2146,2028,cs),
(2047,2028,o),
(1987,1987,o),
(1949,1913,cs),
(1312,681,l),
(1225,1874,ls),
(1218,1971,o),
(1175,2028,o),
(1036,2028,cs),
(941,2028,o),
(908,1984,o),
(872,1916,cs),
(-20,207,ls),
(-82,88,o),
(12,-20,o),
(117,-20,cs)
);
},
{
closed = 1;
nodes = (
(35,20,o),
(-33,95,o),
(16,189,cs),
(908,1898,ls),
(941,1961,o),
(962,1988,o),
(1036,1988,cs),
(1153,1988,o),
(1179,1954,o),
(1185,1872,cs),
(1275,634,ls),
(1281,552,o),
(1289,552,o),
(1332,634,cs),
(1985,1895,ls),
(2017,1957,o),
(2061,1988,o),
(2146,1988,cs),
(2242,1988,o),
(2254,1956,o),
(2261,1871,cs),
(2402,141,ls),
(2408,69,o),
(2362,20,o),
(2281,20,cs),
(2193,20,o),
(2139,69,o),
(2135,126,cs),
(2046,1363,ls),
(2041,1437,o),
(2035,1437,o),
(1994,1358,cs),
(1348,105,ls),
(1330,69,o),
(1304,20,o),
(1194,20,cs),
(1110,20,o),
(1066,64,o),
(1061,127,cs),
(968,1354,ls),
(962,1433,o),
(955,1432,o),
(915,1354,cs),
(279,110,ls),
(246,45,o),
(172,20,o),
(117,20,cs)
);
},
{
closed = 1;
nodes = (
(156,70,o),
(183,97,o),
(183,130,cs),
(183,163,o),
(156,190,o),
(123,190,cs),
(90,190,o),
(63,163,o),
(63,130,cs),
(63,97,o),
(90,70,o),
(123,70,cs)
);
},
{
closed = 1;
nodes = (
(303,394,l),
(310,466,l),
(255,419,l),
(266,413,l),
(166,223,l),
(191,211,l),
(291,400,l)
);
}
);
vertWidth = 0;
width = 2547;
}
);
metricLeft = M;
metricRight = M;
},
